G75*
G70*
%OFA0B0*%
%FSLAX24Y24*%
%IPPOS*%
%LPD*%
%AMOC8*
5,1,8,0,0,1.08239X$1,22.5*
%
%ADD10C,0.0000*%
D10*
X000101Y000101D02*
X000101Y021471D01*
X033843Y021471D01*
X033843Y000101D01*
X000101Y000101D01*
X000729Y001479D02*
X000731Y001533D01*
X000737Y001587D01*
X000747Y001640D01*
X000760Y001693D01*
X000777Y001744D01*
X000798Y001794D01*
X000823Y001842D01*
X000851Y001889D01*
X000882Y001933D01*
X000916Y001975D01*
X000953Y002014D01*
X000993Y002051D01*
X001036Y002084D01*
X001081Y002115D01*
X001128Y002142D01*
X001176Y002165D01*
X001227Y002185D01*
X001278Y002202D01*
X001331Y002214D01*
X001384Y002223D01*
X001438Y002228D01*
X001493Y002229D01*
X001547Y002226D01*
X001600Y002219D01*
X001653Y002208D01*
X001706Y002194D01*
X001757Y002176D01*
X001806Y002154D01*
X001854Y002129D01*
X001900Y002100D01*
X001944Y002068D01*
X001985Y002033D01*
X002023Y001995D01*
X002059Y001954D01*
X002092Y001911D01*
X002122Y001866D01*
X002148Y001818D01*
X002171Y001769D01*
X002190Y001718D01*
X002205Y001667D01*
X002217Y001614D01*
X002225Y001560D01*
X002229Y001506D01*
X002229Y001452D01*
X002225Y001398D01*
X002217Y001344D01*
X002205Y001291D01*
X002190Y001240D01*
X002171Y001189D01*
X002148Y001140D01*
X002122Y001092D01*
X002092Y001047D01*
X002059Y001004D01*
X002023Y000963D01*
X001985Y000925D01*
X001944Y000890D01*
X001900Y000858D01*
X001854Y000829D01*
X001806Y000804D01*
X001757Y000782D01*
X001706Y000764D01*
X001653Y000750D01*
X001600Y000739D01*
X001547Y000732D01*
X001493Y000729D01*
X001438Y000730D01*
X001384Y000735D01*
X001331Y000744D01*
X001278Y000756D01*
X001227Y000773D01*
X001176Y000793D01*
X001128Y000816D01*
X001081Y000843D01*
X001036Y000874D01*
X000993Y000907D01*
X000953Y000944D01*
X000916Y000983D01*
X000882Y001025D01*
X000851Y001069D01*
X000823Y001116D01*
X000798Y001164D01*
X000777Y001214D01*
X000760Y001265D01*
X000747Y001318D01*
X000737Y001371D01*
X000731Y001425D01*
X000729Y001479D01*
X031634Y001479D02*
X031636Y001533D01*
X031642Y001587D01*
X031652Y001640D01*
X031665Y001693D01*
X031682Y001744D01*
X031703Y001794D01*
X031728Y001842D01*
X031756Y001889D01*
X031787Y001933D01*
X031821Y001975D01*
X031858Y002014D01*
X031898Y002051D01*
X031941Y002084D01*
X031986Y002115D01*
X032033Y002142D01*
X032081Y002165D01*
X032132Y002185D01*
X032183Y002202D01*
X032236Y002214D01*
X032289Y002223D01*
X032343Y002228D01*
X032398Y002229D01*
X032452Y002226D01*
X032505Y002219D01*
X032558Y002208D01*
X032611Y002194D01*
X032662Y002176D01*
X032711Y002154D01*
X032759Y002129D01*
X032805Y002100D01*
X032849Y002068D01*
X032890Y002033D01*
X032928Y001995D01*
X032964Y001954D01*
X032997Y001911D01*
X033027Y001866D01*
X033053Y001818D01*
X033076Y001769D01*
X033095Y001718D01*
X033110Y001667D01*
X033122Y001614D01*
X033130Y001560D01*
X033134Y001506D01*
X033134Y001452D01*
X033130Y001398D01*
X033122Y001344D01*
X033110Y001291D01*
X033095Y001240D01*
X033076Y001189D01*
X033053Y001140D01*
X033027Y001092D01*
X032997Y001047D01*
X032964Y001004D01*
X032928Y000963D01*
X032890Y000925D01*
X032849Y000890D01*
X032805Y000858D01*
X032759Y000829D01*
X032711Y000804D01*
X032662Y000782D01*
X032611Y000764D01*
X032558Y000750D01*
X032505Y000739D01*
X032452Y000732D01*
X032398Y000729D01*
X032343Y000730D01*
X032289Y000735D01*
X032236Y000744D01*
X032183Y000756D01*
X032132Y000773D01*
X032081Y000793D01*
X032033Y000816D01*
X031986Y000843D01*
X031941Y000874D01*
X031898Y000907D01*
X031858Y000944D01*
X031821Y000983D01*
X031787Y001025D01*
X031756Y001069D01*
X031728Y001116D01*
X031703Y001164D01*
X031682Y001214D01*
X031665Y001265D01*
X031652Y001318D01*
X031642Y001371D01*
X031636Y001425D01*
X031634Y001479D01*
X031634Y020180D02*
X031636Y020234D01*
X031642Y020288D01*
X031652Y020341D01*
X031665Y020394D01*
X031682Y020445D01*
X031703Y020495D01*
X031728Y020543D01*
X031756Y020590D01*
X031787Y020634D01*
X031821Y020676D01*
X031858Y020715D01*
X031898Y020752D01*
X031941Y020785D01*
X031986Y020816D01*
X032033Y020843D01*
X032081Y020866D01*
X032132Y020886D01*
X032183Y020903D01*
X032236Y020915D01*
X032289Y020924D01*
X032343Y020929D01*
X032398Y020930D01*
X032452Y020927D01*
X032505Y020920D01*
X032558Y020909D01*
X032611Y020895D01*
X032662Y020877D01*
X032711Y020855D01*
X032759Y020830D01*
X032805Y020801D01*
X032849Y020769D01*
X032890Y020734D01*
X032928Y020696D01*
X032964Y020655D01*
X032997Y020612D01*
X033027Y020567D01*
X033053Y020519D01*
X033076Y020470D01*
X033095Y020419D01*
X033110Y020368D01*
X033122Y020315D01*
X033130Y020261D01*
X033134Y020207D01*
X033134Y020153D01*
X033130Y020099D01*
X033122Y020045D01*
X033110Y019992D01*
X033095Y019941D01*
X033076Y019890D01*
X033053Y019841D01*
X033027Y019793D01*
X032997Y019748D01*
X032964Y019705D01*
X032928Y019664D01*
X032890Y019626D01*
X032849Y019591D01*
X032805Y019559D01*
X032759Y019530D01*
X032711Y019505D01*
X032662Y019483D01*
X032611Y019465D01*
X032558Y019451D01*
X032505Y019440D01*
X032452Y019433D01*
X032398Y019430D01*
X032343Y019431D01*
X032289Y019436D01*
X032236Y019445D01*
X032183Y019457D01*
X032132Y019474D01*
X032081Y019494D01*
X032033Y019517D01*
X031986Y019544D01*
X031941Y019575D01*
X031898Y019608D01*
X031858Y019645D01*
X031821Y019684D01*
X031787Y019726D01*
X031756Y019770D01*
X031728Y019817D01*
X031703Y019865D01*
X031682Y019915D01*
X031665Y019966D01*
X031652Y020019D01*
X031642Y020072D01*
X031636Y020126D01*
X031634Y020180D01*
X000729Y020180D02*
X000731Y020234D01*
X000737Y020288D01*
X000747Y020341D01*
X000760Y020394D01*
X000777Y020445D01*
X000798Y020495D01*
X000823Y020543D01*
X000851Y020590D01*
X000882Y020634D01*
X000916Y020676D01*
X000953Y020715D01*
X000993Y020752D01*
X001036Y020785D01*
X001081Y020816D01*
X001128Y020843D01*
X001176Y020866D01*
X001227Y020886D01*
X001278Y020903D01*
X001331Y020915D01*
X001384Y020924D01*
X001438Y020929D01*
X001493Y020930D01*
X001547Y020927D01*
X001600Y020920D01*
X001653Y020909D01*
X001706Y020895D01*
X001757Y020877D01*
X001806Y020855D01*
X001854Y020830D01*
X001900Y020801D01*
X001944Y020769D01*
X001985Y020734D01*
X002023Y020696D01*
X002059Y020655D01*
X002092Y020612D01*
X002122Y020567D01*
X002148Y020519D01*
X002171Y020470D01*
X002190Y020419D01*
X002205Y020368D01*
X002217Y020315D01*
X002225Y020261D01*
X002229Y020207D01*
X002229Y020153D01*
X002225Y020099D01*
X002217Y020045D01*
X002205Y019992D01*
X002190Y019941D01*
X002171Y019890D01*
X002148Y019841D01*
X002122Y019793D01*
X002092Y019748D01*
X002059Y019705D01*
X002023Y019664D01*
X001985Y019626D01*
X001944Y019591D01*
X001900Y019559D01*
X001854Y019530D01*
X001806Y019505D01*
X001757Y019483D01*
X001706Y019465D01*
X001653Y019451D01*
X001600Y019440D01*
X001547Y019433D01*
X001493Y019430D01*
X001438Y019431D01*
X001384Y019436D01*
X001331Y019445D01*
X001278Y019457D01*
X001227Y019474D01*
X001176Y019494D01*
X001128Y019517D01*
X001081Y019544D01*
X001036Y019575D01*
X000993Y019608D01*
X000953Y019645D01*
X000916Y019684D01*
X000882Y019726D01*
X000851Y019770D01*
X000823Y019817D01*
X000798Y019865D01*
X000777Y019915D01*
X000760Y019966D01*
X000747Y020019D01*
X000737Y020072D01*
X000731Y020126D01*
X000729Y020180D01*
M02*
