G75*
G70*
%OFA0B0*%
%FSLAX24Y24*%
%IPPOS*%
%LPD*%
%AMOC8*
5,1,8,0,0,1.08239X$1,22.5*
%
%ADD10C,0.1580*%
%ADD11C,0.0680*%
%ADD12R,0.0560X0.0560*%
%ADD13C,0.0560*%
%ADD14C,0.0580*%
D10*
X001479Y001479D03*
X032384Y001479D03*
X032384Y020180D03*
X001479Y020180D03*
D11*
X004101Y018901D02*
X004101Y018301D01*
X005101Y018301D02*
X005101Y018901D01*
X006101Y018901D02*
X006101Y018301D01*
X011101Y018301D02*
X011101Y018901D01*
X012101Y018901D02*
X012101Y018301D01*
X013101Y018301D02*
X013101Y018901D01*
X018101Y018901D02*
X018101Y018301D01*
X019101Y018301D02*
X019101Y018901D01*
X020101Y018901D02*
X020101Y018301D01*
X025101Y018301D02*
X025101Y018901D01*
X026101Y018901D02*
X026101Y018301D01*
X027101Y018301D02*
X027101Y018901D01*
X027101Y004901D02*
X027101Y004301D01*
X026101Y004301D02*
X026101Y004901D01*
X025101Y004901D02*
X025101Y004301D01*
X020101Y004301D02*
X020101Y004901D01*
X019101Y004901D02*
X019101Y004301D01*
X018101Y004301D02*
X018101Y004901D01*
X013101Y004901D02*
X013101Y004301D01*
X012101Y004301D02*
X012101Y004901D01*
X011101Y004901D02*
X011101Y004301D01*
X006101Y004301D02*
X006101Y004901D01*
X005101Y004901D02*
X005101Y004301D01*
X004101Y004301D02*
X004101Y004901D01*
D12*
X030845Y006589D03*
D13*
X030845Y007967D03*
X030845Y009345D03*
X030845Y010723D03*
X030845Y012101D03*
X030845Y013479D03*
X030845Y014857D03*
X030845Y016235D03*
X030845Y017613D03*
D14*
X027101Y016101D03*
X025101Y017101D03*
X020101Y016101D03*
X018101Y017101D03*
X019976Y014101D03*
X021476Y014101D03*
X026601Y013726D03*
X028476Y013726D03*
X025226Y009226D03*
X023726Y009226D03*
X025101Y007101D03*
X027101Y006101D03*
X020101Y006101D03*
X018101Y007101D03*
X018351Y009351D03*
X016726Y009351D03*
X011601Y008726D03*
X009726Y009101D03*
X011101Y007101D03*
X013101Y006101D03*
X006101Y006101D03*
X004101Y007101D03*
X004601Y008851D03*
X002726Y009226D03*
X007476Y013976D03*
X005726Y014351D03*
X006101Y016101D03*
X004101Y017101D03*
X011101Y017101D03*
X013101Y016101D03*
X012726Y014351D03*
X014476Y013976D03*
M02*
