G75*
G70*
%OFA0B0*%
%FSLAX24Y24*%
%IPPOS*%
%LPD*%
%AMOC8*
5,1,8,0,0,1.08239X$1,22.5*
%
%ADD10C,0.0030*%
%ADD11C,0.0060*%
%ADD12C,0.0040*%
%ADD13C,0.0050*%
%ADD14R,0.4200X0.0300*%
%ADD15R,0.0750X0.0200*%
%ADD16R,0.0300X0.0200*%
D10*
X028462Y004446D02*
X028709Y004446D01*
X028831Y004508D02*
X028892Y004446D01*
X029016Y004446D01*
X029077Y004508D01*
X029077Y004632D01*
X029016Y004693D01*
X028892Y004693D01*
X028831Y004632D01*
X028831Y004508D01*
X029199Y004508D02*
X029199Y004693D01*
X029199Y004508D02*
X029261Y004446D01*
X029322Y004508D01*
X029384Y004446D01*
X029446Y004508D01*
X029446Y004693D01*
X029567Y004632D02*
X029629Y004693D01*
X029814Y004693D01*
X029935Y004693D02*
X029997Y004693D01*
X029997Y004446D01*
X029935Y004446D02*
X030059Y004446D01*
X030181Y004508D02*
X030181Y004632D01*
X030243Y004693D01*
X030428Y004693D01*
X030428Y004817D02*
X030428Y004446D01*
X030243Y004446D01*
X030181Y004508D01*
X029814Y004508D02*
X029752Y004570D01*
X029629Y004570D01*
X029567Y004632D01*
X029567Y004446D02*
X029752Y004446D01*
X029814Y004508D01*
X029997Y004817D02*
X029997Y004879D01*
X030058Y005037D02*
X030058Y005284D01*
X030058Y005160D02*
X030182Y005284D01*
X030243Y005284D01*
X030365Y005284D02*
X030365Y005099D01*
X030427Y005037D01*
X030612Y005037D01*
X030612Y004975D02*
X030550Y004914D01*
X030489Y004914D01*
X030612Y004975D02*
X030612Y005284D01*
X029937Y005222D02*
X029937Y005160D01*
X029690Y005160D01*
X029690Y005099D02*
X029690Y005222D01*
X029752Y005284D01*
X029875Y005284D01*
X029937Y005222D01*
X029875Y005037D02*
X029752Y005037D01*
X029690Y005099D01*
X029568Y005037D02*
X029506Y005099D01*
X029506Y005346D01*
X029444Y005284D02*
X029568Y005284D01*
X029322Y005284D02*
X029199Y005284D01*
X029261Y005346D02*
X029261Y005099D01*
X029322Y005037D01*
X029077Y005037D02*
X028892Y005037D01*
X028831Y005099D01*
X028892Y005160D01*
X029077Y005160D01*
X029077Y005222D02*
X029077Y005037D01*
X029077Y005222D02*
X029016Y005284D01*
X028892Y005284D01*
X028709Y005284D02*
X028647Y005222D01*
X028462Y005222D01*
X028462Y005037D02*
X028647Y005037D01*
X028709Y005099D01*
X028709Y005160D01*
X028647Y005222D01*
X028709Y005284D02*
X028709Y005346D01*
X028647Y005407D01*
X028462Y005407D01*
X028462Y005037D01*
X028462Y004817D02*
X028462Y004446D01*
X030549Y004508D02*
X030549Y004632D01*
X030611Y004693D01*
X030734Y004693D01*
X030796Y004632D01*
X030796Y004570D01*
X030549Y004570D01*
X030549Y004508D02*
X030611Y004446D01*
X030734Y004446D01*
X029261Y018693D02*
X029323Y018755D01*
X029323Y019063D01*
X029138Y019063D01*
X029076Y019002D01*
X029076Y018878D01*
X029138Y018817D01*
X029323Y018817D01*
X029444Y018817D02*
X029444Y019187D01*
X029506Y019063D02*
X029630Y019063D01*
X029691Y019002D01*
X029691Y018817D01*
X029813Y018817D02*
X029998Y018817D01*
X030060Y018878D01*
X029998Y018940D01*
X029874Y018940D01*
X029813Y019002D01*
X029874Y019063D01*
X030060Y019063D01*
X030181Y019063D02*
X030243Y019063D01*
X030243Y018817D01*
X030304Y018817D02*
X030181Y018817D01*
X030426Y018878D02*
X030426Y019002D01*
X030488Y019063D01*
X030673Y019063D01*
X030673Y019187D02*
X030673Y018817D01*
X030488Y018817D01*
X030426Y018878D01*
X030243Y019187D02*
X030243Y019249D01*
X030427Y019407D02*
X030612Y019407D01*
X030612Y019345D02*
X030550Y019284D01*
X030489Y019284D01*
X030612Y019345D02*
X030612Y019654D01*
X030365Y019654D02*
X030365Y019469D01*
X030427Y019407D01*
X030243Y019654D02*
X030182Y019654D01*
X030058Y019531D01*
X029937Y019531D02*
X029690Y019531D01*
X029690Y019592D02*
X029752Y019654D01*
X029875Y019654D01*
X029937Y019592D01*
X029937Y019531D01*
X029875Y019407D02*
X029752Y019407D01*
X029690Y019469D01*
X029690Y019592D01*
X029568Y019654D02*
X029444Y019654D01*
X029506Y019716D02*
X029506Y019469D01*
X029568Y019407D01*
X029322Y019407D02*
X029261Y019469D01*
X029261Y019716D01*
X029322Y019654D02*
X029199Y019654D01*
X029077Y019592D02*
X029077Y019407D01*
X028892Y019407D01*
X028831Y019469D01*
X028892Y019531D01*
X029077Y019531D01*
X029077Y019592D02*
X029016Y019654D01*
X028892Y019654D01*
X028709Y019654D02*
X028647Y019592D01*
X028462Y019592D01*
X028462Y019407D02*
X028647Y019407D01*
X028709Y019469D01*
X028709Y019531D01*
X028647Y019592D01*
X028709Y019654D02*
X028709Y019716D01*
X028647Y019777D01*
X028462Y019777D01*
X028462Y019407D01*
X028462Y019187D02*
X028462Y018817D01*
X028462Y019002D02*
X028709Y019002D01*
X028831Y019063D02*
X028892Y019063D01*
X028892Y018817D01*
X028831Y018817D02*
X028954Y018817D01*
X028709Y018817D02*
X028709Y019187D01*
X028892Y019187D02*
X028892Y019249D01*
X029444Y019002D02*
X029506Y019063D01*
X030058Y019407D02*
X030058Y019654D01*
X030795Y019002D02*
X030856Y019063D01*
X030980Y019063D01*
X031042Y019002D01*
X031042Y018940D01*
X030795Y018940D01*
X030795Y018878D02*
X030795Y019002D01*
X030795Y018878D02*
X030856Y018817D01*
X030980Y018817D01*
X029261Y018693D02*
X029199Y018693D01*
D11*
X003889Y003193D02*
X003568Y003193D01*
X003568Y003834D01*
X003889Y003834D01*
X003995Y003727D01*
X003995Y003620D01*
X003889Y003514D01*
X003568Y003514D01*
X003889Y003514D02*
X003995Y003407D01*
X003995Y003300D01*
X003889Y003193D01*
X004857Y003300D02*
X004964Y003193D01*
X005178Y003193D01*
X005284Y003300D01*
X004857Y003300D02*
X004857Y003727D01*
X004964Y003834D01*
X005178Y003834D01*
X005284Y003727D01*
X006146Y003834D02*
X006146Y003193D01*
X006573Y003193D01*
X006360Y003514D02*
X006146Y003514D01*
X006146Y003834D02*
X006573Y003834D01*
X007613Y001646D02*
X007506Y001540D01*
X007506Y001433D01*
X007613Y001326D01*
X007826Y001326D01*
X007933Y001219D01*
X007933Y001113D01*
X007826Y001006D01*
X007613Y001006D01*
X007506Y001113D01*
X007506Y001219D01*
X007613Y001326D01*
X007826Y001326D02*
X007933Y001433D01*
X007933Y001540D01*
X007826Y001646D01*
X007613Y001646D01*
X008795Y001540D02*
X008795Y001113D01*
X008902Y001006D01*
X009115Y001006D01*
X009222Y001113D01*
X009439Y001113D02*
X009546Y001006D01*
X009760Y001006D01*
X009866Y001219D02*
X009439Y001219D01*
X009439Y001113D02*
X009439Y001326D01*
X009546Y001433D01*
X009760Y001433D01*
X009866Y001326D01*
X009866Y001219D01*
X010084Y001006D02*
X010297Y001006D01*
X010191Y001006D02*
X010191Y001646D01*
X010084Y001646D01*
X010514Y001646D02*
X010620Y001646D01*
X010620Y001006D01*
X010514Y001006D02*
X010727Y001006D01*
X011588Y001113D02*
X011695Y001006D01*
X011908Y001006D01*
X012015Y001113D01*
X012015Y001219D01*
X011908Y001326D01*
X011695Y001326D01*
X011588Y001433D01*
X011588Y001540D01*
X011695Y001646D01*
X011908Y001646D01*
X012015Y001540D01*
X012232Y001646D02*
X012232Y001006D01*
X012659Y001006D02*
X012659Y001326D01*
X012553Y001433D01*
X012339Y001433D01*
X012232Y001326D01*
X012877Y001433D02*
X012877Y001113D01*
X012984Y001006D01*
X013304Y001006D01*
X013304Y001433D01*
X013521Y001433D02*
X013842Y001433D01*
X013948Y001326D01*
X013948Y001006D01*
X014273Y001113D02*
X014379Y001006D01*
X014273Y001113D02*
X014273Y001540D01*
X014379Y001433D02*
X014166Y001433D01*
X013521Y001433D02*
X013521Y001006D01*
X015240Y001006D02*
X015560Y001006D01*
X015667Y001113D01*
X015667Y001219D01*
X015560Y001326D01*
X015240Y001326D01*
X015240Y001006D02*
X015240Y001646D01*
X015560Y001646D01*
X015667Y001540D01*
X015667Y001433D01*
X015560Y001326D01*
X015885Y001113D02*
X015991Y001219D01*
X016312Y001219D01*
X016312Y001326D02*
X016312Y001006D01*
X015991Y001006D01*
X015885Y001113D01*
X015991Y001433D02*
X016205Y001433D01*
X016312Y001326D01*
X016529Y001646D02*
X016636Y001646D01*
X016636Y001006D01*
X016529Y001006D02*
X016743Y001006D01*
X016959Y001113D02*
X017066Y001219D01*
X017386Y001219D01*
X017386Y001326D02*
X017279Y001433D01*
X017066Y001433D01*
X017386Y001326D02*
X017386Y001006D01*
X017066Y001006D01*
X016959Y001113D01*
X017603Y001006D02*
X017603Y001433D01*
X017924Y001433D01*
X018030Y001326D01*
X018030Y001006D01*
X018248Y001113D02*
X018355Y001006D01*
X018675Y001006D01*
X018892Y001113D02*
X018892Y001326D01*
X018999Y001433D01*
X019213Y001433D01*
X019319Y001326D01*
X019319Y001219D01*
X018892Y001219D01*
X018892Y001113D02*
X018999Y001006D01*
X019213Y001006D01*
X019537Y001006D02*
X019537Y001433D01*
X019750Y001433D02*
X019537Y001219D01*
X019750Y001433D02*
X019857Y001433D01*
X020719Y001646D02*
X020719Y001006D01*
X021146Y001006D02*
X021146Y001646D01*
X020932Y001433D01*
X020719Y001646D01*
X021363Y001326D02*
X021363Y001113D01*
X021470Y001006D01*
X021683Y001006D01*
X021790Y001113D01*
X021790Y001326D01*
X021683Y001433D01*
X021470Y001433D01*
X021363Y001326D01*
X022008Y001326D02*
X022008Y001113D01*
X022114Y001006D01*
X022435Y001006D01*
X022435Y001646D01*
X022435Y001433D02*
X022114Y001433D01*
X022008Y001326D01*
X022652Y001433D02*
X022652Y001113D01*
X022759Y001006D01*
X023079Y001006D01*
X023079Y001433D01*
X023297Y001646D02*
X023403Y001646D01*
X023403Y001006D01*
X023297Y001006D02*
X023510Y001006D01*
X023726Y001113D02*
X023726Y001326D01*
X023833Y001433D01*
X024047Y001433D01*
X024153Y001326D01*
X024153Y001219D01*
X023726Y001219D01*
X023726Y001113D02*
X023833Y001006D01*
X024047Y001006D01*
X025015Y001219D02*
X025015Y001646D01*
X025442Y001646D02*
X025442Y001219D01*
X025229Y001006D01*
X025015Y001219D01*
X025660Y001113D02*
X025660Y001540D01*
X025767Y001646D01*
X025980Y001646D01*
X026087Y001540D01*
X025660Y001113D01*
X025767Y001006D01*
X025980Y001006D01*
X026087Y001113D01*
X026087Y001540D01*
X026627Y001433D02*
X026840Y001646D01*
X026840Y001006D01*
X026627Y001006D02*
X027054Y001006D01*
X026411Y001006D02*
X026411Y001113D01*
X026304Y001113D01*
X026304Y001006D01*
X026411Y001006D01*
X026240Y003131D02*
X026347Y003238D01*
X026240Y003131D02*
X026027Y003131D01*
X025920Y003238D01*
X025920Y003665D01*
X026027Y003771D01*
X026240Y003771D01*
X026347Y003665D01*
X027209Y003771D02*
X027209Y003131D01*
X027636Y003131D01*
X027422Y003451D02*
X027209Y003451D01*
X027209Y003771D02*
X027636Y003771D01*
X025058Y003665D02*
X025058Y003558D01*
X024951Y003451D01*
X024631Y003451D01*
X024951Y003451D02*
X025058Y003344D01*
X025058Y003238D01*
X024951Y003131D01*
X024631Y003131D01*
X024631Y003771D01*
X024951Y003771D01*
X025058Y003665D01*
X020636Y003771D02*
X020209Y003771D01*
X020209Y003131D01*
X020636Y003131D01*
X020422Y003451D02*
X020209Y003451D01*
X019347Y003238D02*
X019240Y003131D01*
X019027Y003131D01*
X018920Y003238D01*
X018920Y003665D01*
X019027Y003771D01*
X019240Y003771D01*
X019347Y003665D01*
X018058Y003665D02*
X018058Y003558D01*
X017951Y003451D01*
X017631Y003451D01*
X017951Y003451D02*
X018058Y003344D01*
X018058Y003238D01*
X017951Y003131D01*
X017631Y003131D01*
X017631Y003771D01*
X017951Y003771D01*
X018058Y003665D01*
X018355Y001433D02*
X018248Y001326D01*
X018248Y001113D01*
X018355Y001433D02*
X018675Y001433D01*
X013698Y003131D02*
X013271Y003131D01*
X013271Y003771D01*
X013698Y003771D01*
X013485Y003451D02*
X013271Y003451D01*
X012409Y003238D02*
X012303Y003131D01*
X012089Y003131D01*
X011982Y003238D01*
X011982Y003665D01*
X012089Y003771D01*
X012303Y003771D01*
X012409Y003665D01*
X011120Y003665D02*
X011120Y003558D01*
X011014Y003451D01*
X010693Y003451D01*
X010693Y003131D02*
X011014Y003131D01*
X011120Y003238D01*
X011120Y003344D01*
X011014Y003451D01*
X011120Y003665D02*
X011014Y003771D01*
X010693Y003771D01*
X010693Y003131D01*
X009115Y001646D02*
X008902Y001646D01*
X008795Y001540D01*
X009115Y001646D02*
X009222Y001540D01*
X010443Y019443D02*
X010870Y019443D01*
X010443Y019443D01*
X010443Y020084D01*
X010870Y020084D01*
X010443Y020084D01*
X010443Y019443D01*
X010443Y019764D02*
X010657Y019764D01*
X010443Y019764D01*
X011732Y019977D02*
X011732Y019550D01*
X011839Y019443D01*
X012053Y019443D01*
X012159Y019550D01*
X012053Y019443D01*
X011839Y019443D01*
X011732Y019550D01*
X011732Y019977D01*
X011839Y020084D01*
X012053Y020084D01*
X012159Y019977D01*
X012053Y020084D01*
X011839Y020084D01*
X011732Y019977D01*
X013021Y020084D02*
X013021Y019443D01*
X013342Y019443D01*
X013448Y019550D01*
X013448Y019657D01*
X013342Y019764D01*
X013021Y019764D01*
X013342Y019764D01*
X013448Y019870D01*
X013448Y019977D01*
X013342Y020084D01*
X013021Y020084D01*
X013342Y020084D01*
X013448Y019977D01*
X013448Y019870D01*
X013342Y019764D01*
X013448Y019657D01*
X013448Y019550D01*
X013342Y019443D01*
X013021Y019443D01*
X013021Y020084D01*
X017506Y020021D02*
X017506Y019381D01*
X017933Y019381D01*
X017506Y019381D01*
X017506Y020021D01*
X017933Y020021D01*
X017506Y020021D01*
X017506Y019701D02*
X017719Y019701D01*
X017506Y019701D01*
X018795Y019488D02*
X018902Y019381D01*
X019115Y019381D01*
X019222Y019488D01*
X019115Y019381D01*
X018902Y019381D01*
X018795Y019488D01*
X018795Y019915D01*
X018902Y020021D01*
X019115Y020021D01*
X019222Y019915D01*
X019115Y020021D01*
X018902Y020021D01*
X018795Y019915D01*
X018795Y019488D01*
X020084Y019381D02*
X020404Y019381D01*
X020511Y019488D01*
X020511Y019594D01*
X020404Y019701D01*
X020084Y019701D01*
X020404Y019701D01*
X020511Y019808D01*
X020511Y019915D01*
X020404Y020021D01*
X020084Y020021D01*
X020084Y019381D01*
X020404Y019381D01*
X020511Y019488D01*
X020511Y019594D01*
X020404Y019701D01*
X020511Y019808D01*
X020511Y019915D01*
X020404Y020021D01*
X020084Y020021D01*
X020084Y019381D01*
X024568Y019381D02*
X024995Y019381D01*
X024568Y019381D02*
X024568Y020021D01*
X024995Y020021D01*
X024782Y019701D02*
X024568Y019701D01*
X025857Y019488D02*
X025964Y019381D01*
X026178Y019381D01*
X026284Y019488D01*
X025857Y019488D02*
X025857Y019915D01*
X025964Y020021D01*
X026178Y020021D01*
X026284Y019915D01*
X027146Y020021D02*
X027146Y019381D01*
X027467Y019381D01*
X027573Y019488D01*
X027573Y019594D01*
X027467Y019701D01*
X027146Y019701D01*
X027146Y020021D02*
X027467Y020021D01*
X027573Y019915D01*
X027573Y019808D01*
X027467Y019701D01*
X006636Y019657D02*
X006636Y019550D01*
X006529Y019443D01*
X006209Y019443D01*
X006209Y020084D01*
X006529Y020084D01*
X006636Y019977D01*
X006636Y019870D01*
X006529Y019764D01*
X006209Y019764D01*
X006529Y019764D02*
X006636Y019657D01*
X005347Y019550D02*
X005240Y019443D01*
X005027Y019443D01*
X004920Y019550D01*
X004920Y019977D01*
X005027Y020084D01*
X005240Y020084D01*
X005347Y019977D01*
X004058Y020084D02*
X003631Y020084D01*
X003631Y019443D01*
X004058Y019443D01*
X003844Y019764D02*
X003631Y019764D01*
D12*
X029058Y017806D02*
X029058Y017499D01*
X029211Y017345D01*
X029365Y017499D01*
X029365Y017806D01*
X029518Y017806D02*
X029748Y017806D01*
X029825Y017729D01*
X029825Y017652D01*
X029748Y017575D01*
X029518Y017575D01*
X029518Y017345D02*
X029748Y017345D01*
X029825Y017422D01*
X029825Y017499D01*
X029748Y017575D01*
X029979Y017652D02*
X029979Y017729D01*
X030055Y017806D01*
X030209Y017806D01*
X030285Y017729D01*
X030285Y017422D01*
X030209Y017345D01*
X030055Y017345D01*
X029979Y017422D01*
X030055Y017575D02*
X030285Y017575D01*
X030055Y017575D02*
X029979Y017652D01*
X029518Y017806D02*
X029518Y017345D01*
X029518Y016428D02*
X029748Y016428D01*
X029825Y016351D01*
X029825Y016274D01*
X029748Y016197D01*
X029518Y016197D01*
X029365Y016121D02*
X029211Y015967D01*
X029058Y016121D01*
X029058Y016428D01*
X029365Y016428D02*
X029365Y016121D01*
X029518Y015967D02*
X029748Y015967D01*
X029825Y016044D01*
X029825Y016121D01*
X029748Y016197D01*
X029979Y016121D02*
X030055Y016197D01*
X030209Y016197D01*
X030285Y016121D01*
X030285Y016044D01*
X030209Y015967D01*
X030055Y015967D01*
X029979Y016044D01*
X029979Y016121D01*
X030055Y016197D02*
X029979Y016274D01*
X029979Y016351D01*
X030055Y016428D01*
X030209Y016428D01*
X030285Y016351D01*
X030285Y016274D01*
X030209Y016197D01*
X029518Y015967D02*
X029518Y016428D01*
X029518Y015050D02*
X029748Y015050D01*
X029825Y014973D01*
X029825Y014896D01*
X029748Y014819D01*
X029518Y014819D01*
X029365Y014743D02*
X029211Y014589D01*
X029058Y014743D01*
X029058Y015050D01*
X029365Y015050D02*
X029365Y014743D01*
X029518Y014589D02*
X029748Y014589D01*
X029825Y014666D01*
X029825Y014743D01*
X029748Y014819D01*
X029979Y014666D02*
X029979Y014589D01*
X029979Y014666D02*
X030285Y014973D01*
X030285Y015050D01*
X029979Y015050D01*
X029518Y015050D02*
X029518Y014589D01*
X029518Y013672D02*
X029748Y013672D01*
X029825Y013595D01*
X029825Y013518D01*
X029748Y013441D01*
X029518Y013441D01*
X029365Y013365D02*
X029365Y013672D01*
X029518Y013672D02*
X029518Y013211D01*
X029748Y013211D01*
X029825Y013288D01*
X029825Y013365D01*
X029748Y013441D01*
X029979Y013441D02*
X029979Y013288D01*
X030055Y013211D01*
X030209Y013211D01*
X030285Y013288D01*
X030285Y013365D01*
X030209Y013441D01*
X029979Y013441D01*
X030132Y013595D01*
X030285Y013672D01*
X029365Y013365D02*
X029211Y013211D01*
X029058Y013365D01*
X029058Y013672D01*
X029058Y012294D02*
X029058Y011987D01*
X029211Y011833D01*
X029365Y011987D01*
X029365Y012294D01*
X029518Y012294D02*
X029748Y012294D01*
X029825Y012217D01*
X029825Y012140D01*
X029748Y012064D01*
X029518Y012064D01*
X029518Y012294D02*
X029518Y011833D01*
X029748Y011833D01*
X029825Y011910D01*
X029825Y011987D01*
X029748Y012064D01*
X029979Y012064D02*
X030132Y012140D01*
X030209Y012140D01*
X030285Y012064D01*
X030285Y011910D01*
X030209Y011833D01*
X030055Y011833D01*
X029979Y011910D01*
X029979Y012064D02*
X029979Y012294D01*
X030285Y012294D01*
X030209Y010916D02*
X029979Y010686D01*
X030285Y010686D01*
X030209Y010916D02*
X030209Y010455D01*
X029825Y010532D02*
X029825Y010609D01*
X029748Y010686D01*
X029518Y010686D01*
X029365Y010609D02*
X029211Y010455D01*
X029058Y010609D01*
X029058Y010916D01*
X029365Y010916D02*
X029365Y010609D01*
X029518Y010455D02*
X029748Y010455D01*
X029825Y010532D01*
X029748Y010686D02*
X029825Y010762D01*
X029825Y010839D01*
X029748Y010916D01*
X029518Y010916D01*
X029518Y010455D01*
X029518Y009538D02*
X029748Y009538D01*
X029825Y009461D01*
X029825Y009384D01*
X029748Y009308D01*
X029518Y009308D01*
X029365Y009231D02*
X029365Y009538D01*
X029518Y009538D02*
X029518Y009077D01*
X029748Y009077D01*
X029825Y009154D01*
X029825Y009231D01*
X029748Y009308D01*
X029979Y009461D02*
X030055Y009538D01*
X030209Y009538D01*
X030285Y009461D01*
X030285Y009384D01*
X030209Y009308D01*
X030285Y009231D01*
X030285Y009154D01*
X030209Y009077D01*
X030055Y009077D01*
X029979Y009154D01*
X030132Y009308D02*
X030209Y009308D01*
X029365Y009231D02*
X029211Y009077D01*
X029058Y009231D01*
X029058Y009538D01*
X029058Y008160D02*
X029058Y007853D01*
X029211Y007700D01*
X029365Y007853D01*
X029365Y008160D01*
X029518Y008160D02*
X029748Y008160D01*
X029825Y008083D01*
X029825Y008006D01*
X029748Y007930D01*
X029518Y007930D01*
X029518Y007700D02*
X029518Y008160D01*
X029748Y007930D02*
X029825Y007853D01*
X029825Y007776D01*
X029748Y007700D01*
X029518Y007700D01*
X029979Y007700D02*
X030285Y008006D01*
X030285Y008083D01*
X030209Y008160D01*
X030055Y008160D01*
X029979Y008083D01*
X029979Y007700D02*
X030285Y007700D01*
X030132Y006782D02*
X030132Y006322D01*
X029979Y006322D02*
X030285Y006322D01*
X029979Y006628D02*
X030132Y006782D01*
X029825Y006705D02*
X029825Y006628D01*
X029748Y006552D01*
X029518Y006552D01*
X029365Y006475D02*
X029365Y006782D01*
X029518Y006782D02*
X029748Y006782D01*
X029825Y006705D01*
X029748Y006552D02*
X029825Y006475D01*
X029825Y006398D01*
X029748Y006322D01*
X029518Y006322D01*
X029518Y006782D01*
X029058Y006782D02*
X029058Y006475D01*
X029211Y006322D01*
X029365Y006475D01*
D13*
X028101Y005151D02*
X028051Y004001D01*
X027951Y003901D01*
X024251Y003901D01*
X024151Y004001D01*
X024101Y005151D01*
X024231Y004141D02*
X024233Y004161D01*
X024239Y004179D01*
X024248Y004197D01*
X024260Y004212D01*
X024275Y004224D01*
X024293Y004233D01*
X024311Y004239D01*
X024331Y004241D01*
X024351Y004239D01*
X024369Y004233D01*
X024387Y004224D01*
X024402Y004212D01*
X024414Y004197D01*
X024423Y004179D01*
X024429Y004161D01*
X024431Y004141D01*
X024429Y004121D01*
X024423Y004103D01*
X024414Y004085D01*
X024402Y004070D01*
X024387Y004058D01*
X024369Y004049D01*
X024351Y004043D01*
X024331Y004041D01*
X024311Y004043D01*
X024293Y004049D01*
X024275Y004058D01*
X024260Y004070D01*
X024248Y004085D01*
X024239Y004103D01*
X024233Y004121D01*
X024231Y004141D01*
X021051Y004001D02*
X021101Y005151D01*
X021051Y004001D02*
X020951Y003901D01*
X017251Y003901D01*
X017151Y004001D01*
X017101Y005151D01*
X017231Y004141D02*
X017233Y004161D01*
X017239Y004179D01*
X017248Y004197D01*
X017260Y004212D01*
X017275Y004224D01*
X017293Y004233D01*
X017311Y004239D01*
X017331Y004241D01*
X017351Y004239D01*
X017369Y004233D01*
X017387Y004224D01*
X017402Y004212D01*
X017414Y004197D01*
X017423Y004179D01*
X017429Y004161D01*
X017431Y004141D01*
X017429Y004121D01*
X017423Y004103D01*
X017414Y004085D01*
X017402Y004070D01*
X017387Y004058D01*
X017369Y004049D01*
X017351Y004043D01*
X017331Y004041D01*
X017311Y004043D01*
X017293Y004049D01*
X017275Y004058D01*
X017260Y004070D01*
X017248Y004085D01*
X017239Y004103D01*
X017233Y004121D01*
X017231Y004141D01*
X014051Y004001D02*
X013951Y003901D01*
X010251Y003901D01*
X010151Y004001D01*
X010101Y005151D01*
X010231Y004141D02*
X010233Y004161D01*
X010239Y004179D01*
X010248Y004197D01*
X010260Y004212D01*
X010275Y004224D01*
X010293Y004233D01*
X010311Y004239D01*
X010331Y004241D01*
X010351Y004239D01*
X010369Y004233D01*
X010387Y004224D01*
X010402Y004212D01*
X010414Y004197D01*
X010423Y004179D01*
X010429Y004161D01*
X010431Y004141D01*
X010429Y004121D01*
X010423Y004103D01*
X010414Y004085D01*
X010402Y004070D01*
X010387Y004058D01*
X010369Y004049D01*
X010351Y004043D01*
X010331Y004041D01*
X010311Y004043D01*
X010293Y004049D01*
X010275Y004058D01*
X010260Y004070D01*
X010248Y004085D01*
X010239Y004103D01*
X010233Y004121D01*
X010231Y004141D01*
X007051Y004001D02*
X006951Y003901D01*
X003251Y003901D01*
X003151Y004001D01*
X003101Y005151D01*
X003231Y004141D02*
X003233Y004161D01*
X003239Y004179D01*
X003248Y004197D01*
X003260Y004212D01*
X003275Y004224D01*
X003293Y004233D01*
X003311Y004239D01*
X003331Y004241D01*
X003351Y004239D01*
X003369Y004233D01*
X003387Y004224D01*
X003402Y004212D01*
X003414Y004197D01*
X003423Y004179D01*
X003429Y004161D01*
X003431Y004141D01*
X003429Y004121D01*
X003423Y004103D01*
X003414Y004085D01*
X003402Y004070D01*
X003387Y004058D01*
X003369Y004049D01*
X003351Y004043D01*
X003331Y004041D01*
X003311Y004043D01*
X003293Y004049D01*
X003275Y004058D01*
X003260Y004070D01*
X003248Y004085D01*
X003239Y004103D01*
X003233Y004121D01*
X003231Y004141D01*
X007051Y004001D02*
X007101Y005151D01*
X014101Y005151D02*
X014051Y004001D01*
X014419Y010278D02*
X014421Y010292D01*
X014427Y010306D01*
X014435Y010318D01*
X014447Y010326D01*
X014461Y010332D01*
X014475Y010334D01*
X014489Y010332D01*
X014503Y010326D01*
X014515Y010318D01*
X014523Y010306D01*
X014529Y010292D01*
X014531Y010278D01*
X014529Y010264D01*
X014523Y010250D01*
X014515Y010238D01*
X014503Y010230D01*
X014489Y010224D01*
X014475Y010222D01*
X014461Y010224D01*
X014447Y010230D01*
X014435Y010238D01*
X014427Y010250D01*
X014421Y010264D01*
X014419Y010278D01*
X016671Y012924D02*
X016673Y012938D01*
X016679Y012952D01*
X016687Y012964D01*
X016699Y012972D01*
X016713Y012978D01*
X016727Y012980D01*
X016741Y012978D01*
X016755Y012972D01*
X016767Y012964D01*
X016775Y012952D01*
X016781Y012938D01*
X016783Y012924D01*
X016781Y012910D01*
X016775Y012896D01*
X016767Y012884D01*
X016755Y012876D01*
X016741Y012870D01*
X016727Y012868D01*
X016713Y012870D01*
X016699Y012876D01*
X016687Y012884D01*
X016679Y012896D01*
X016673Y012910D01*
X016671Y012924D01*
X021419Y010278D02*
X021421Y010292D01*
X021427Y010306D01*
X021435Y010318D01*
X021447Y010326D01*
X021461Y010332D01*
X021475Y010334D01*
X021489Y010332D01*
X021503Y010326D01*
X021515Y010318D01*
X021523Y010306D01*
X021529Y010292D01*
X021531Y010278D01*
X021529Y010264D01*
X021523Y010250D01*
X021515Y010238D01*
X021503Y010230D01*
X021489Y010224D01*
X021475Y010222D01*
X021461Y010224D01*
X021447Y010230D01*
X021435Y010238D01*
X021427Y010250D01*
X021421Y010264D01*
X021419Y010278D01*
X023671Y012924D02*
X023673Y012938D01*
X023679Y012952D01*
X023687Y012964D01*
X023699Y012972D01*
X023713Y012978D01*
X023727Y012980D01*
X023741Y012978D01*
X023755Y012972D01*
X023767Y012964D01*
X023775Y012952D01*
X023781Y012938D01*
X023783Y012924D01*
X023781Y012910D01*
X023775Y012896D01*
X023767Y012884D01*
X023755Y012876D01*
X023741Y012870D01*
X023727Y012868D01*
X023713Y012870D01*
X023699Y012876D01*
X023687Y012884D01*
X023679Y012896D01*
X023673Y012910D01*
X023671Y012924D01*
X028419Y010278D02*
X028421Y010292D01*
X028427Y010306D01*
X028435Y010318D01*
X028447Y010326D01*
X028461Y010332D01*
X028475Y010334D01*
X028489Y010332D01*
X028503Y010326D01*
X028515Y010318D01*
X028523Y010306D01*
X028529Y010292D01*
X028531Y010278D01*
X028529Y010264D01*
X028523Y010250D01*
X028515Y010238D01*
X028503Y010230D01*
X028489Y010224D01*
X028475Y010222D01*
X028461Y010224D01*
X028447Y010230D01*
X028435Y010238D01*
X028427Y010250D01*
X028421Y010264D01*
X028419Y010278D01*
X028101Y018051D02*
X028051Y019201D01*
X027951Y019301D01*
X024251Y019301D01*
X024151Y019201D01*
X024101Y018051D01*
X021101Y018051D02*
X021051Y019201D01*
X020951Y019301D01*
X017251Y019301D01*
X017151Y019201D01*
X017101Y018051D01*
X014101Y018051D02*
X014051Y019201D01*
X013951Y019301D01*
X010251Y019301D01*
X010151Y019201D01*
X010101Y018051D01*
X007101Y018051D02*
X007051Y019201D01*
X006951Y019301D01*
X003251Y019301D01*
X003151Y019201D01*
X003101Y018051D01*
X006771Y019061D02*
X006773Y019081D01*
X006779Y019099D01*
X006788Y019117D01*
X006800Y019132D01*
X006815Y019144D01*
X006833Y019153D01*
X006851Y019159D01*
X006871Y019161D01*
X006891Y019159D01*
X006909Y019153D01*
X006927Y019144D01*
X006942Y019132D01*
X006954Y019117D01*
X006963Y019099D01*
X006969Y019081D01*
X006971Y019061D01*
X006969Y019041D01*
X006963Y019023D01*
X006954Y019005D01*
X006942Y018990D01*
X006927Y018978D01*
X006909Y018969D01*
X006891Y018963D01*
X006871Y018961D01*
X006851Y018963D01*
X006833Y018969D01*
X006815Y018978D01*
X006800Y018990D01*
X006788Y019005D01*
X006779Y019023D01*
X006773Y019041D01*
X006771Y019061D01*
X013771Y019061D02*
X013773Y019081D01*
X013779Y019099D01*
X013788Y019117D01*
X013800Y019132D01*
X013815Y019144D01*
X013833Y019153D01*
X013851Y019159D01*
X013871Y019161D01*
X013891Y019159D01*
X013909Y019153D01*
X013927Y019144D01*
X013942Y019132D01*
X013954Y019117D01*
X013963Y019099D01*
X013969Y019081D01*
X013971Y019061D01*
X013969Y019041D01*
X013963Y019023D01*
X013954Y019005D01*
X013942Y018990D01*
X013927Y018978D01*
X013909Y018969D01*
X013891Y018963D01*
X013871Y018961D01*
X013851Y018963D01*
X013833Y018969D01*
X013815Y018978D01*
X013800Y018990D01*
X013788Y019005D01*
X013779Y019023D01*
X013773Y019041D01*
X013771Y019061D01*
X020771Y019061D02*
X020773Y019081D01*
X020779Y019099D01*
X020788Y019117D01*
X020800Y019132D01*
X020815Y019144D01*
X020833Y019153D01*
X020851Y019159D01*
X020871Y019161D01*
X020891Y019159D01*
X020909Y019153D01*
X020927Y019144D01*
X020942Y019132D01*
X020954Y019117D01*
X020963Y019099D01*
X020969Y019081D01*
X020971Y019061D01*
X020969Y019041D01*
X020963Y019023D01*
X020954Y019005D01*
X020942Y018990D01*
X020927Y018978D01*
X020909Y018969D01*
X020891Y018963D01*
X020871Y018961D01*
X020851Y018963D01*
X020833Y018969D01*
X020815Y018978D01*
X020800Y018990D01*
X020788Y019005D01*
X020779Y019023D01*
X020773Y019041D01*
X020771Y019061D01*
X027771Y019061D02*
X027773Y019081D01*
X027779Y019099D01*
X027788Y019117D01*
X027800Y019132D01*
X027815Y019144D01*
X027833Y019153D01*
X027851Y019159D01*
X027871Y019161D01*
X027891Y019159D01*
X027909Y019153D01*
X027927Y019144D01*
X027942Y019132D01*
X027954Y019117D01*
X027963Y019099D01*
X027969Y019081D01*
X027971Y019061D01*
X027969Y019041D01*
X027963Y019023D01*
X027954Y019005D01*
X027942Y018990D01*
X027927Y018978D01*
X027909Y018969D01*
X027891Y018963D01*
X027871Y018961D01*
X027851Y018963D01*
X027833Y018969D01*
X027815Y018978D01*
X027800Y018990D01*
X027788Y019005D01*
X027779Y019023D01*
X027773Y019041D01*
X027771Y019061D01*
X009671Y012924D02*
X009673Y012938D01*
X009679Y012952D01*
X009687Y012964D01*
X009699Y012972D01*
X009713Y012978D01*
X009727Y012980D01*
X009741Y012978D01*
X009755Y012972D01*
X009767Y012964D01*
X009775Y012952D01*
X009781Y012938D01*
X009783Y012924D01*
X009781Y012910D01*
X009775Y012896D01*
X009767Y012884D01*
X009755Y012876D01*
X009741Y012870D01*
X009727Y012868D01*
X009713Y012870D01*
X009699Y012876D01*
X009687Y012884D01*
X009679Y012896D01*
X009673Y012910D01*
X009671Y012924D01*
X007419Y010278D02*
X007421Y010292D01*
X007427Y010306D01*
X007435Y010318D01*
X007447Y010326D01*
X007461Y010332D01*
X007475Y010334D01*
X007489Y010332D01*
X007503Y010326D01*
X007515Y010318D01*
X007523Y010306D01*
X007529Y010292D01*
X007531Y010278D01*
X007529Y010264D01*
X007523Y010250D01*
X007515Y010238D01*
X007503Y010230D01*
X007489Y010224D01*
X007475Y010222D01*
X007461Y010224D01*
X007447Y010230D01*
X007435Y010238D01*
X007427Y010250D01*
X007421Y010264D01*
X007419Y010278D01*
X002671Y012924D02*
X002673Y012938D01*
X002679Y012952D01*
X002687Y012964D01*
X002699Y012972D01*
X002713Y012978D01*
X002727Y012980D01*
X002741Y012978D01*
X002755Y012972D01*
X002767Y012964D01*
X002775Y012952D01*
X002781Y012938D01*
X002783Y012924D01*
X002781Y012910D01*
X002775Y012896D01*
X002767Y012884D01*
X002755Y012876D01*
X002741Y012870D01*
X002727Y012868D01*
X002713Y012870D01*
X002699Y012876D01*
X002687Y012884D01*
X002679Y012896D01*
X002673Y012910D01*
X002671Y012924D01*
D14*
X005101Y017751D03*
X012101Y017751D03*
X019101Y017751D03*
X026101Y017751D03*
X026101Y005451D03*
X019101Y005451D03*
X012101Y005451D03*
X005101Y005451D03*
D15*
X006826Y005201D03*
X010376Y005201D03*
X013826Y005201D03*
X017376Y005201D03*
X020826Y005201D03*
X024376Y005201D03*
X027826Y005201D03*
X027826Y018001D03*
X024376Y018001D03*
X020826Y018001D03*
X017376Y018001D03*
X013826Y018001D03*
X010376Y018001D03*
X006826Y018001D03*
X003376Y018001D03*
X003376Y005201D03*
D16*
X004601Y005201D03*
X005601Y005201D03*
X011601Y005201D03*
X012601Y005201D03*
X018601Y005201D03*
X019601Y005201D03*
X025601Y005201D03*
X026601Y005201D03*
X026601Y018001D03*
X025601Y018001D03*
X019601Y018001D03*
X018601Y018001D03*
X012601Y018001D03*
X011601Y018001D03*
X005601Y018001D03*
X004601Y018001D03*
M02*
