G75*
G70*
%OFA0B0*%
%FSLAX24Y24*%
%IPPOS*%
%LPD*%
%AMOC8*
5,1,8,0,0,1.08239X$1,22.5*
%
%ADD10C,0.0000*%
D10*
X000101Y000101D02*
X000101Y022148D01*
X031087Y022148D01*
X031087Y000101D01*
X000101Y000101D01*
X000729Y001479D02*
X000731Y001533D01*
X000737Y001587D01*
X000747Y001640D01*
X000760Y001693D01*
X000777Y001744D01*
X000798Y001794D01*
X000823Y001842D01*
X000851Y001889D01*
X000882Y001933D01*
X000916Y001975D01*
X000953Y002014D01*
X000993Y002051D01*
X001036Y002084D01*
X001081Y002115D01*
X001128Y002142D01*
X001176Y002165D01*
X001227Y002185D01*
X001278Y002202D01*
X001331Y002214D01*
X001384Y002223D01*
X001438Y002228D01*
X001493Y002229D01*
X001547Y002226D01*
X001600Y002219D01*
X001653Y002208D01*
X001706Y002194D01*
X001757Y002176D01*
X001806Y002154D01*
X001854Y002129D01*
X001900Y002100D01*
X001944Y002068D01*
X001985Y002033D01*
X002023Y001995D01*
X002059Y001954D01*
X002092Y001911D01*
X002122Y001866D01*
X002148Y001818D01*
X002171Y001769D01*
X002190Y001718D01*
X002205Y001667D01*
X002217Y001614D01*
X002225Y001560D01*
X002229Y001506D01*
X002229Y001452D01*
X002225Y001398D01*
X002217Y001344D01*
X002205Y001291D01*
X002190Y001240D01*
X002171Y001189D01*
X002148Y001140D01*
X002122Y001092D01*
X002092Y001047D01*
X002059Y001004D01*
X002023Y000963D01*
X001985Y000925D01*
X001944Y000890D01*
X001900Y000858D01*
X001854Y000829D01*
X001806Y000804D01*
X001757Y000782D01*
X001706Y000764D01*
X001653Y000750D01*
X001600Y000739D01*
X001547Y000732D01*
X001493Y000729D01*
X001438Y000730D01*
X001384Y000735D01*
X001331Y000744D01*
X001278Y000756D01*
X001227Y000773D01*
X001176Y000793D01*
X001128Y000816D01*
X001081Y000843D01*
X001036Y000874D01*
X000993Y000907D01*
X000953Y000944D01*
X000916Y000983D01*
X000882Y001025D01*
X000851Y001069D01*
X000823Y001116D01*
X000798Y001164D01*
X000777Y001214D01*
X000760Y001265D01*
X000747Y001318D01*
X000737Y001371D01*
X000731Y001425D01*
X000729Y001479D01*
X000729Y020770D02*
X000731Y020824D01*
X000737Y020878D01*
X000747Y020931D01*
X000760Y020984D01*
X000777Y021035D01*
X000798Y021085D01*
X000823Y021133D01*
X000851Y021180D01*
X000882Y021224D01*
X000916Y021266D01*
X000953Y021305D01*
X000993Y021342D01*
X001036Y021375D01*
X001081Y021406D01*
X001128Y021433D01*
X001176Y021456D01*
X001227Y021476D01*
X001278Y021493D01*
X001331Y021505D01*
X001384Y021514D01*
X001438Y021519D01*
X001493Y021520D01*
X001547Y021517D01*
X001600Y021510D01*
X001653Y021499D01*
X001706Y021485D01*
X001757Y021467D01*
X001806Y021445D01*
X001854Y021420D01*
X001900Y021391D01*
X001944Y021359D01*
X001985Y021324D01*
X002023Y021286D01*
X002059Y021245D01*
X002092Y021202D01*
X002122Y021157D01*
X002148Y021109D01*
X002171Y021060D01*
X002190Y021009D01*
X002205Y020958D01*
X002217Y020905D01*
X002225Y020851D01*
X002229Y020797D01*
X002229Y020743D01*
X002225Y020689D01*
X002217Y020635D01*
X002205Y020582D01*
X002190Y020531D01*
X002171Y020480D01*
X002148Y020431D01*
X002122Y020383D01*
X002092Y020338D01*
X002059Y020295D01*
X002023Y020254D01*
X001985Y020216D01*
X001944Y020181D01*
X001900Y020149D01*
X001854Y020120D01*
X001806Y020095D01*
X001757Y020073D01*
X001706Y020055D01*
X001653Y020041D01*
X001600Y020030D01*
X001547Y020023D01*
X001493Y020020D01*
X001438Y020021D01*
X001384Y020026D01*
X001331Y020035D01*
X001278Y020047D01*
X001227Y020064D01*
X001176Y020084D01*
X001128Y020107D01*
X001081Y020134D01*
X001036Y020165D01*
X000993Y020198D01*
X000953Y020235D01*
X000916Y020274D01*
X000882Y020316D01*
X000851Y020360D01*
X000823Y020407D01*
X000798Y020455D01*
X000777Y020505D01*
X000760Y020556D01*
X000747Y020609D01*
X000737Y020662D01*
X000731Y020716D01*
X000729Y020770D01*
X028878Y020770D02*
X028880Y020824D01*
X028886Y020878D01*
X028896Y020931D01*
X028909Y020984D01*
X028926Y021035D01*
X028947Y021085D01*
X028972Y021133D01*
X029000Y021180D01*
X029031Y021224D01*
X029065Y021266D01*
X029102Y021305D01*
X029142Y021342D01*
X029185Y021375D01*
X029230Y021406D01*
X029277Y021433D01*
X029325Y021456D01*
X029376Y021476D01*
X029427Y021493D01*
X029480Y021505D01*
X029533Y021514D01*
X029587Y021519D01*
X029642Y021520D01*
X029696Y021517D01*
X029749Y021510D01*
X029802Y021499D01*
X029855Y021485D01*
X029906Y021467D01*
X029955Y021445D01*
X030003Y021420D01*
X030049Y021391D01*
X030093Y021359D01*
X030134Y021324D01*
X030172Y021286D01*
X030208Y021245D01*
X030241Y021202D01*
X030271Y021157D01*
X030297Y021109D01*
X030320Y021060D01*
X030339Y021009D01*
X030354Y020958D01*
X030366Y020905D01*
X030374Y020851D01*
X030378Y020797D01*
X030378Y020743D01*
X030374Y020689D01*
X030366Y020635D01*
X030354Y020582D01*
X030339Y020531D01*
X030320Y020480D01*
X030297Y020431D01*
X030271Y020383D01*
X030241Y020338D01*
X030208Y020295D01*
X030172Y020254D01*
X030134Y020216D01*
X030093Y020181D01*
X030049Y020149D01*
X030003Y020120D01*
X029955Y020095D01*
X029906Y020073D01*
X029855Y020055D01*
X029802Y020041D01*
X029749Y020030D01*
X029696Y020023D01*
X029642Y020020D01*
X029587Y020021D01*
X029533Y020026D01*
X029480Y020035D01*
X029427Y020047D01*
X029376Y020064D01*
X029325Y020084D01*
X029277Y020107D01*
X029230Y020134D01*
X029185Y020165D01*
X029142Y020198D01*
X029102Y020235D01*
X029065Y020274D01*
X029031Y020316D01*
X029000Y020360D01*
X028972Y020407D01*
X028947Y020455D01*
X028926Y020505D01*
X028909Y020556D01*
X028896Y020609D01*
X028886Y020662D01*
X028880Y020716D01*
X028878Y020770D01*
X028878Y001479D02*
X028880Y001533D01*
X028886Y001587D01*
X028896Y001640D01*
X028909Y001693D01*
X028926Y001744D01*
X028947Y001794D01*
X028972Y001842D01*
X029000Y001889D01*
X029031Y001933D01*
X029065Y001975D01*
X029102Y002014D01*
X029142Y002051D01*
X029185Y002084D01*
X029230Y002115D01*
X029277Y002142D01*
X029325Y002165D01*
X029376Y002185D01*
X029427Y002202D01*
X029480Y002214D01*
X029533Y002223D01*
X029587Y002228D01*
X029642Y002229D01*
X029696Y002226D01*
X029749Y002219D01*
X029802Y002208D01*
X029855Y002194D01*
X029906Y002176D01*
X029955Y002154D01*
X030003Y002129D01*
X030049Y002100D01*
X030093Y002068D01*
X030134Y002033D01*
X030172Y001995D01*
X030208Y001954D01*
X030241Y001911D01*
X030271Y001866D01*
X030297Y001818D01*
X030320Y001769D01*
X030339Y001718D01*
X030354Y001667D01*
X030366Y001614D01*
X030374Y001560D01*
X030378Y001506D01*
X030378Y001452D01*
X030374Y001398D01*
X030366Y001344D01*
X030354Y001291D01*
X030339Y001240D01*
X030320Y001189D01*
X030297Y001140D01*
X030271Y001092D01*
X030241Y001047D01*
X030208Y001004D01*
X030172Y000963D01*
X030134Y000925D01*
X030093Y000890D01*
X030049Y000858D01*
X030003Y000829D01*
X029955Y000804D01*
X029906Y000782D01*
X029855Y000764D01*
X029802Y000750D01*
X029749Y000739D01*
X029696Y000732D01*
X029642Y000729D01*
X029587Y000730D01*
X029533Y000735D01*
X029480Y000744D01*
X029427Y000756D01*
X029376Y000773D01*
X029325Y000793D01*
X029277Y000816D01*
X029230Y000843D01*
X029185Y000874D01*
X029142Y000907D01*
X029102Y000944D01*
X029065Y000983D01*
X029031Y001025D01*
X029000Y001069D01*
X028972Y001116D01*
X028947Y001164D01*
X028926Y001214D01*
X028909Y001265D01*
X028896Y001318D01*
X028886Y001371D01*
X028880Y001425D01*
X028878Y001479D01*
M02*
