G75*
G70*
%OFA0B0*%
%FSLAX24Y24*%
%IPPOS*%
%LPD*%
%AMOC8*
5,1,8,0,0,1.08239X$1,22.5*
%
%ADD10C,0.0000*%
D10*
X000101Y000101D02*
X000101Y022148D01*
X033843Y022148D01*
X033843Y000101D01*
X000101Y000101D01*
X000729Y001479D02*
X000731Y001533D01*
X000737Y001587D01*
X000747Y001640D01*
X000760Y001693D01*
X000777Y001744D01*
X000798Y001794D01*
X000823Y001842D01*
X000851Y001889D01*
X000882Y001933D01*
X000916Y001975D01*
X000953Y002014D01*
X000993Y002051D01*
X001036Y002084D01*
X001081Y002115D01*
X001128Y002142D01*
X001176Y002165D01*
X001227Y002185D01*
X001278Y002202D01*
X001331Y002214D01*
X001384Y002223D01*
X001438Y002228D01*
X001493Y002229D01*
X001547Y002226D01*
X001600Y002219D01*
X001653Y002208D01*
X001706Y002194D01*
X001757Y002176D01*
X001806Y002154D01*
X001854Y002129D01*
X001900Y002100D01*
X001944Y002068D01*
X001985Y002033D01*
X002023Y001995D01*
X002059Y001954D01*
X002092Y001911D01*
X002122Y001866D01*
X002148Y001818D01*
X002171Y001769D01*
X002190Y001718D01*
X002205Y001667D01*
X002217Y001614D01*
X002225Y001560D01*
X002229Y001506D01*
X002229Y001452D01*
X002225Y001398D01*
X002217Y001344D01*
X002205Y001291D01*
X002190Y001240D01*
X002171Y001189D01*
X002148Y001140D01*
X002122Y001092D01*
X002092Y001047D01*
X002059Y001004D01*
X002023Y000963D01*
X001985Y000925D01*
X001944Y000890D01*
X001900Y000858D01*
X001854Y000829D01*
X001806Y000804D01*
X001757Y000782D01*
X001706Y000764D01*
X001653Y000750D01*
X001600Y000739D01*
X001547Y000732D01*
X001493Y000729D01*
X001438Y000730D01*
X001384Y000735D01*
X001331Y000744D01*
X001278Y000756D01*
X001227Y000773D01*
X001176Y000793D01*
X001128Y000816D01*
X001081Y000843D01*
X001036Y000874D01*
X000993Y000907D01*
X000953Y000944D01*
X000916Y000983D01*
X000882Y001025D01*
X000851Y001069D01*
X000823Y001116D01*
X000798Y001164D01*
X000777Y001214D01*
X000760Y001265D01*
X000747Y001318D01*
X000737Y001371D01*
X000731Y001425D01*
X000729Y001479D01*
X000729Y020770D02*
X000731Y020824D01*
X000737Y020878D01*
X000747Y020931D01*
X000760Y020984D01*
X000777Y021035D01*
X000798Y021085D01*
X000823Y021133D01*
X000851Y021180D01*
X000882Y021224D01*
X000916Y021266D01*
X000953Y021305D01*
X000993Y021342D01*
X001036Y021375D01*
X001081Y021406D01*
X001128Y021433D01*
X001176Y021456D01*
X001227Y021476D01*
X001278Y021493D01*
X001331Y021505D01*
X001384Y021514D01*
X001438Y021519D01*
X001493Y021520D01*
X001547Y021517D01*
X001600Y021510D01*
X001653Y021499D01*
X001706Y021485D01*
X001757Y021467D01*
X001806Y021445D01*
X001854Y021420D01*
X001900Y021391D01*
X001944Y021359D01*
X001985Y021324D01*
X002023Y021286D01*
X002059Y021245D01*
X002092Y021202D01*
X002122Y021157D01*
X002148Y021109D01*
X002171Y021060D01*
X002190Y021009D01*
X002205Y020958D01*
X002217Y020905D01*
X002225Y020851D01*
X002229Y020797D01*
X002229Y020743D01*
X002225Y020689D01*
X002217Y020635D01*
X002205Y020582D01*
X002190Y020531D01*
X002171Y020480D01*
X002148Y020431D01*
X002122Y020383D01*
X002092Y020338D01*
X002059Y020295D01*
X002023Y020254D01*
X001985Y020216D01*
X001944Y020181D01*
X001900Y020149D01*
X001854Y020120D01*
X001806Y020095D01*
X001757Y020073D01*
X001706Y020055D01*
X001653Y020041D01*
X001600Y020030D01*
X001547Y020023D01*
X001493Y020020D01*
X001438Y020021D01*
X001384Y020026D01*
X001331Y020035D01*
X001278Y020047D01*
X001227Y020064D01*
X001176Y020084D01*
X001128Y020107D01*
X001081Y020134D01*
X001036Y020165D01*
X000993Y020198D01*
X000953Y020235D01*
X000916Y020274D01*
X000882Y020316D01*
X000851Y020360D01*
X000823Y020407D01*
X000798Y020455D01*
X000777Y020505D01*
X000760Y020556D01*
X000747Y020609D01*
X000737Y020662D01*
X000731Y020716D01*
X000729Y020770D01*
X031634Y020770D02*
X031636Y020824D01*
X031642Y020878D01*
X031652Y020931D01*
X031665Y020984D01*
X031682Y021035D01*
X031703Y021085D01*
X031728Y021133D01*
X031756Y021180D01*
X031787Y021224D01*
X031821Y021266D01*
X031858Y021305D01*
X031898Y021342D01*
X031941Y021375D01*
X031986Y021406D01*
X032033Y021433D01*
X032081Y021456D01*
X032132Y021476D01*
X032183Y021493D01*
X032236Y021505D01*
X032289Y021514D01*
X032343Y021519D01*
X032398Y021520D01*
X032452Y021517D01*
X032505Y021510D01*
X032558Y021499D01*
X032611Y021485D01*
X032662Y021467D01*
X032711Y021445D01*
X032759Y021420D01*
X032805Y021391D01*
X032849Y021359D01*
X032890Y021324D01*
X032928Y021286D01*
X032964Y021245D01*
X032997Y021202D01*
X033027Y021157D01*
X033053Y021109D01*
X033076Y021060D01*
X033095Y021009D01*
X033110Y020958D01*
X033122Y020905D01*
X033130Y020851D01*
X033134Y020797D01*
X033134Y020743D01*
X033130Y020689D01*
X033122Y020635D01*
X033110Y020582D01*
X033095Y020531D01*
X033076Y020480D01*
X033053Y020431D01*
X033027Y020383D01*
X032997Y020338D01*
X032964Y020295D01*
X032928Y020254D01*
X032890Y020216D01*
X032849Y020181D01*
X032805Y020149D01*
X032759Y020120D01*
X032711Y020095D01*
X032662Y020073D01*
X032611Y020055D01*
X032558Y020041D01*
X032505Y020030D01*
X032452Y020023D01*
X032398Y020020D01*
X032343Y020021D01*
X032289Y020026D01*
X032236Y020035D01*
X032183Y020047D01*
X032132Y020064D01*
X032081Y020084D01*
X032033Y020107D01*
X031986Y020134D01*
X031941Y020165D01*
X031898Y020198D01*
X031858Y020235D01*
X031821Y020274D01*
X031787Y020316D01*
X031756Y020360D01*
X031728Y020407D01*
X031703Y020455D01*
X031682Y020505D01*
X031665Y020556D01*
X031652Y020609D01*
X031642Y020662D01*
X031636Y020716D01*
X031634Y020770D01*
X031634Y001479D02*
X031636Y001533D01*
X031642Y001587D01*
X031652Y001640D01*
X031665Y001693D01*
X031682Y001744D01*
X031703Y001794D01*
X031728Y001842D01*
X031756Y001889D01*
X031787Y001933D01*
X031821Y001975D01*
X031858Y002014D01*
X031898Y002051D01*
X031941Y002084D01*
X031986Y002115D01*
X032033Y002142D01*
X032081Y002165D01*
X032132Y002185D01*
X032183Y002202D01*
X032236Y002214D01*
X032289Y002223D01*
X032343Y002228D01*
X032398Y002229D01*
X032452Y002226D01*
X032505Y002219D01*
X032558Y002208D01*
X032611Y002194D01*
X032662Y002176D01*
X032711Y002154D01*
X032759Y002129D01*
X032805Y002100D01*
X032849Y002068D01*
X032890Y002033D01*
X032928Y001995D01*
X032964Y001954D01*
X032997Y001911D01*
X033027Y001866D01*
X033053Y001818D01*
X033076Y001769D01*
X033095Y001718D01*
X033110Y001667D01*
X033122Y001614D01*
X033130Y001560D01*
X033134Y001506D01*
X033134Y001452D01*
X033130Y001398D01*
X033122Y001344D01*
X033110Y001291D01*
X033095Y001240D01*
X033076Y001189D01*
X033053Y001140D01*
X033027Y001092D01*
X032997Y001047D01*
X032964Y001004D01*
X032928Y000963D01*
X032890Y000925D01*
X032849Y000890D01*
X032805Y000858D01*
X032759Y000829D01*
X032711Y000804D01*
X032662Y000782D01*
X032611Y000764D01*
X032558Y000750D01*
X032505Y000739D01*
X032452Y000732D01*
X032398Y000729D01*
X032343Y000730D01*
X032289Y000735D01*
X032236Y000744D01*
X032183Y000756D01*
X032132Y000773D01*
X032081Y000793D01*
X032033Y000816D01*
X031986Y000843D01*
X031941Y000874D01*
X031898Y000907D01*
X031858Y000944D01*
X031821Y000983D01*
X031787Y001025D01*
X031756Y001069D01*
X031728Y001116D01*
X031703Y001164D01*
X031682Y001214D01*
X031665Y001265D01*
X031652Y001318D01*
X031642Y001371D01*
X031636Y001425D01*
X031634Y001479D01*
M02*
