G75*
G70*
%OFA0B0*%
%FSLAX24Y24*%
%IPPOS*%
%LPD*%
%AMOC8*
5,1,8,0,0,1.08239X$1,22.5*
%
%ADD10C,0.0030*%
D10*
X028854Y003586D02*
X029101Y003586D01*
X029101Y003647D02*
X029039Y003709D01*
X028916Y003709D01*
X028854Y003647D01*
X028854Y003586D01*
X028916Y003462D02*
X029039Y003462D01*
X029101Y003524D01*
X029101Y003647D01*
X029223Y003709D02*
X029408Y003709D01*
X029469Y003647D01*
X029469Y003524D01*
X029408Y003462D01*
X029223Y003462D01*
X029223Y003833D01*
X029162Y003929D02*
X029100Y003929D01*
X029038Y003991D01*
X029038Y004300D01*
X029038Y004053D02*
X029224Y004053D01*
X029285Y004114D01*
X029285Y004300D01*
X029407Y004300D02*
X029469Y004300D01*
X029592Y004176D01*
X029714Y004176D02*
X029961Y004176D01*
X029961Y004114D02*
X029961Y004238D01*
X029899Y004300D01*
X029775Y004300D01*
X029714Y004238D01*
X029714Y004176D01*
X029775Y004053D02*
X029899Y004053D01*
X029961Y004114D01*
X030083Y004053D02*
X030144Y004114D01*
X030144Y004361D01*
X030206Y004300D02*
X030083Y004300D01*
X030328Y004300D02*
X030452Y004300D01*
X030390Y004361D02*
X030390Y004114D01*
X030328Y004053D01*
X030573Y004053D02*
X030758Y004053D01*
X030820Y004114D01*
X030758Y004176D01*
X030573Y004176D01*
X030573Y004238D02*
X030573Y004053D01*
X030573Y004238D02*
X030635Y004300D01*
X030758Y004300D01*
X030941Y004300D02*
X030941Y004361D01*
X031003Y004423D01*
X031188Y004423D01*
X031188Y004053D01*
X031003Y004053D01*
X030941Y004114D01*
X030941Y004176D01*
X031003Y004238D01*
X031188Y004238D01*
X031003Y004238D02*
X030941Y004300D01*
X031188Y003833D02*
X031188Y003462D01*
X030941Y003462D01*
X030820Y003524D02*
X030758Y003462D01*
X030635Y003462D01*
X030573Y003524D01*
X030573Y003647D01*
X030635Y003709D01*
X030758Y003709D01*
X030820Y003647D01*
X030820Y003524D01*
X030452Y003524D02*
X030390Y003462D01*
X030328Y003524D01*
X030266Y003462D01*
X030205Y003524D01*
X030205Y003709D01*
X030083Y003647D02*
X030022Y003709D01*
X029836Y003709D01*
X029715Y003709D02*
X029653Y003709D01*
X029653Y003462D01*
X029715Y003462D02*
X029591Y003462D01*
X029836Y003524D02*
X029898Y003586D01*
X030022Y003586D01*
X030083Y003647D01*
X030083Y003462D02*
X029898Y003462D01*
X029836Y003524D01*
X029653Y003833D02*
X029653Y003894D01*
X029592Y004053D02*
X029592Y004300D01*
X030452Y003709D02*
X030452Y003524D01*
X030451Y017709D02*
X030389Y017709D01*
X030327Y017771D01*
X030327Y018079D01*
X030513Y018079D01*
X030574Y018017D01*
X030574Y017894D01*
X030513Y017832D01*
X030327Y017832D01*
X030206Y017832D02*
X030206Y018203D01*
X030144Y018079D02*
X030021Y018079D01*
X029959Y018017D01*
X029959Y017832D01*
X029838Y017832D02*
X029653Y017832D01*
X029591Y017894D01*
X029653Y017956D01*
X029776Y017956D01*
X029838Y018017D01*
X029776Y018079D01*
X029591Y018079D01*
X029469Y018079D02*
X029408Y018079D01*
X029408Y017832D01*
X029469Y017832D02*
X029346Y017832D01*
X029224Y017894D02*
X029224Y018017D01*
X029162Y018079D01*
X028977Y018079D01*
X028977Y018203D02*
X028977Y017832D01*
X029162Y017832D01*
X029224Y017894D01*
X029408Y018203D02*
X029408Y018264D01*
X029592Y018423D02*
X029592Y018670D01*
X029469Y018670D02*
X029407Y018670D01*
X029469Y018670D02*
X029592Y018546D01*
X029714Y018546D02*
X029961Y018546D01*
X029961Y018485D02*
X029961Y018608D01*
X029899Y018670D01*
X029775Y018670D01*
X029714Y018608D01*
X029714Y018546D01*
X029775Y018423D02*
X029899Y018423D01*
X029961Y018485D01*
X030083Y018423D02*
X030144Y018485D01*
X030144Y018731D01*
X030206Y018670D02*
X030083Y018670D01*
X030328Y018670D02*
X030452Y018670D01*
X030390Y018731D02*
X030390Y018485D01*
X030328Y018423D01*
X030573Y018423D02*
X030758Y018423D01*
X030820Y018485D01*
X030758Y018546D01*
X030573Y018546D01*
X030573Y018608D02*
X030573Y018423D01*
X030573Y018608D02*
X030635Y018670D01*
X030758Y018670D01*
X030941Y018670D02*
X030941Y018731D01*
X031003Y018793D01*
X031188Y018793D01*
X031188Y018423D01*
X031003Y018423D01*
X030941Y018485D01*
X030941Y018546D01*
X031003Y018608D01*
X031188Y018608D01*
X031003Y018608D02*
X030941Y018670D01*
X030758Y018264D02*
X030758Y018203D01*
X030758Y018079D02*
X030758Y017832D01*
X030820Y017832D02*
X030696Y017832D01*
X030941Y017832D02*
X030941Y018203D01*
X030820Y018079D02*
X030758Y018079D01*
X030941Y018017D02*
X031188Y018017D01*
X031188Y017832D02*
X031188Y018203D01*
X030206Y018017D02*
X030144Y018079D01*
X029285Y018485D02*
X029224Y018423D01*
X029038Y018423D01*
X029038Y018361D02*
X029038Y018670D01*
X029285Y018670D02*
X029285Y018485D01*
X029162Y018299D02*
X029100Y018299D01*
X029038Y018361D01*
X028794Y018079D02*
X028670Y018079D01*
X028609Y018017D01*
X028609Y017956D01*
X028856Y017956D01*
X028856Y018017D02*
X028794Y018079D01*
X028856Y018017D02*
X028856Y017894D01*
X028794Y017832D01*
X028670Y017832D01*
M02*
