G75*
G70*
%OFA0B0*%
%FSLAX24Y24*%
%IPPOS*%
%LPD*%
%AMOC8*
5,1,8,0,0,1.08239X$1,22.5*
%
%ADD10C,0.0030*%
D10*
X025915Y017832D02*
X026038Y017832D01*
X026100Y017894D01*
X026100Y018017D01*
X026038Y018079D01*
X025915Y018079D01*
X025853Y018017D01*
X025853Y017956D01*
X026100Y017956D01*
X026221Y018079D02*
X026406Y018079D01*
X026468Y018017D01*
X026468Y017894D01*
X026406Y017832D01*
X026221Y017832D01*
X026221Y018203D01*
X026344Y018299D02*
X026406Y018299D01*
X026344Y018299D02*
X026283Y018361D01*
X026283Y018670D01*
X026529Y018670D02*
X026529Y018485D01*
X026468Y018423D01*
X026283Y018423D01*
X026652Y018264D02*
X026652Y018203D01*
X026652Y018079D02*
X026652Y017832D01*
X026714Y017832D02*
X026590Y017832D01*
X026835Y017894D02*
X026897Y017956D01*
X027020Y017956D01*
X027082Y018017D01*
X027020Y018079D01*
X026835Y018079D01*
X026714Y018079D02*
X026652Y018079D01*
X026835Y017894D02*
X026897Y017832D01*
X027082Y017832D01*
X027203Y017832D02*
X027203Y018017D01*
X027265Y018079D01*
X027388Y018079D01*
X027450Y018017D01*
X027572Y018079D02*
X027572Y017771D01*
X027633Y017709D01*
X027695Y017709D01*
X027757Y017832D02*
X027572Y017832D01*
X027450Y017832D02*
X027450Y018203D01*
X027572Y018079D02*
X027757Y018079D01*
X027818Y018017D01*
X027818Y017894D01*
X027757Y017832D01*
X027941Y017832D02*
X028064Y017832D01*
X028002Y017832D02*
X028002Y018079D01*
X028064Y018079D01*
X028185Y018017D02*
X028432Y018017D01*
X028432Y017832D02*
X028432Y018203D01*
X028432Y018423D02*
X028247Y018423D01*
X028185Y018485D01*
X028185Y018546D01*
X028247Y018608D01*
X028432Y018608D01*
X028247Y018608D02*
X028185Y018670D01*
X028185Y018731D01*
X028247Y018793D01*
X028432Y018793D01*
X028432Y018423D01*
X028185Y018203D02*
X028185Y017832D01*
X028002Y018203D02*
X028002Y018264D01*
X028002Y018423D02*
X027817Y018423D01*
X027817Y018608D01*
X027879Y018670D01*
X028002Y018670D01*
X028002Y018546D02*
X027817Y018546D01*
X027696Y018670D02*
X027572Y018670D01*
X027634Y018731D02*
X027634Y018485D01*
X027572Y018423D01*
X027388Y018485D02*
X027388Y018731D01*
X027450Y018670D02*
X027327Y018670D01*
X027205Y018608D02*
X027143Y018670D01*
X027019Y018670D01*
X026958Y018608D01*
X026958Y018546D01*
X027205Y018546D01*
X027205Y018485D02*
X027205Y018608D01*
X027205Y018485D02*
X027143Y018423D01*
X027019Y018423D01*
X026836Y018423D02*
X026836Y018670D01*
X026713Y018670D02*
X026836Y018546D01*
X026713Y018670D02*
X026651Y018670D01*
X027327Y018423D02*
X027388Y018485D01*
X028002Y018546D02*
X028064Y018485D01*
X028002Y018423D01*
X028247Y004423D02*
X028185Y004361D01*
X028185Y004300D01*
X028247Y004238D01*
X028432Y004238D01*
X028247Y004238D02*
X028185Y004176D01*
X028185Y004114D01*
X028247Y004053D01*
X028432Y004053D01*
X028432Y004423D01*
X028247Y004423D01*
X028002Y004300D02*
X027879Y004300D01*
X027817Y004238D01*
X027817Y004053D01*
X028002Y004053D01*
X028064Y004114D01*
X028002Y004176D01*
X027817Y004176D01*
X027696Y004300D02*
X027572Y004300D01*
X027634Y004361D02*
X027634Y004114D01*
X027572Y004053D01*
X027388Y004114D02*
X027388Y004361D01*
X027450Y004300D02*
X027327Y004300D01*
X027205Y004238D02*
X027143Y004300D01*
X027019Y004300D01*
X026958Y004238D01*
X026958Y004176D01*
X027205Y004176D01*
X027205Y004114D02*
X027205Y004238D01*
X027205Y004114D02*
X027143Y004053D01*
X027019Y004053D01*
X026836Y004053D02*
X026836Y004300D01*
X026713Y004300D02*
X026836Y004176D01*
X026713Y004300D02*
X026651Y004300D01*
X026529Y004300D02*
X026529Y004114D01*
X026468Y004053D01*
X026283Y004053D01*
X026283Y003991D02*
X026283Y004300D01*
X026283Y003991D02*
X026344Y003929D01*
X026406Y003929D01*
X026467Y003833D02*
X026467Y003462D01*
X026652Y003462D01*
X026714Y003524D01*
X026714Y003647D01*
X026652Y003709D01*
X026467Y003709D01*
X026345Y003647D02*
X026284Y003709D01*
X026160Y003709D01*
X026098Y003647D01*
X026098Y003586D01*
X026345Y003586D01*
X026345Y003647D02*
X026345Y003524D01*
X026284Y003462D01*
X026160Y003462D01*
X026836Y003462D02*
X026959Y003462D01*
X026897Y003462D02*
X026897Y003709D01*
X026959Y003709D01*
X027080Y003709D02*
X027266Y003709D01*
X027327Y003647D01*
X027266Y003586D01*
X027142Y003586D01*
X027080Y003524D01*
X027142Y003462D01*
X027327Y003462D01*
X027449Y003524D02*
X027449Y003709D01*
X027449Y003524D02*
X027510Y003462D01*
X027572Y003524D01*
X027634Y003462D01*
X027696Y003524D01*
X027696Y003709D01*
X027817Y003647D02*
X027879Y003709D01*
X028002Y003709D01*
X028064Y003647D01*
X028064Y003524D01*
X028002Y003462D01*
X027879Y003462D01*
X027817Y003524D01*
X027817Y003647D01*
X028185Y003462D02*
X028432Y003462D01*
X028432Y003833D01*
X027388Y004114D02*
X027327Y004053D01*
X026897Y003894D02*
X026897Y003833D01*
M02*
