%
M48
M72
T01C0.0236
T02C0.0315
T03C0.0400
T04C0.0790
T05C0.1500
%
T01
X3125Y6113
X5325Y6113
X3475Y9413
X1975Y9463
X4994Y14017
X6494Y13967
X5344Y17317
X3144Y17317
X9443Y17317
X11643Y17317
X15743Y17317
X17943Y17317
X17593Y14017
X19093Y13967
X22042Y17317
X24242Y17317
X23892Y14017
X25392Y13967
X22373Y9413
X20873Y9463
X22023Y6113
X24223Y6113
X17924Y6113
X15724Y6113
X16074Y9413
X14574Y9463
X11624Y6113
X9424Y6113
X9774Y9413
X8274Y9463
X11293Y14017
X12793Y13967
T02
X28089Y13880
X28089Y12502
X28089Y11124
X28089Y9746
X28089Y8369
X28089Y6991
X28089Y5613
X28089Y15258
X28089Y16636
T03
X24042Y18817
X23042Y18817
X22042Y18817
X17743Y18817
X16743Y18817
X15743Y18817
X11443Y18817
X10443Y18817
X9443Y18817
X5144Y18817
X4144Y18817
X3144Y18817
X3325Y4613
X4325Y4613
X5325Y4613
X9624Y4613
X10624Y4613
X11624Y4613
X15924Y4613
X16924Y4613
X17924Y4613
X22223Y4613
X23223Y4613
X24223Y4613
T04
X26872Y1479
X4431Y1282
X26872Y20770
X4431Y21361
T05
X1479Y1479
X1479Y20770
X29628Y20770
X29628Y1479
M30
