%
M48
M72
T01C0.0276
T02C0.0315
T03C0.0400
T04C0.0591
T05C0.0790
T06C0.1500
%
T01
X6101Y6101
X4101Y7101
X4601Y8851
X2726Y9226
X7476Y13976
X5726Y14351
X6101Y16101
X4101Y17101
X11101Y17101
X13101Y16101
X12726Y14351
X14476Y13976
X18101Y17101
X20101Y16101
X19976Y14101
X21476Y14101
X25101Y17101
X27101Y16101
X26601Y13726
X28476Y13726
X25226Y9226
X23726Y9226
X25101Y7101
X27101Y6101
X20101Y6101
X18101Y7101
X18351Y9351
X16726Y9351
X13101Y6101
X11101Y7101
X11601Y8726
X9726Y9101
T02
X30845Y9746
X30845Y8369
X30845Y6991
X30845Y5613
X30845Y11124
X30845Y12502
X30845Y13880
X30845Y15258
X30845Y16636
T03
X27101Y18601
X26101Y18601
X25101Y18601
X20101Y18601
X19101Y18601
X18101Y18601
X13101Y18601
X12101Y18601
X11101Y18601
X6101Y18601
X5101Y18601
X4101Y18601
X4101Y4601
X5101Y4601
X6101Y4601
X11101Y4601
X12101Y4601
X13101Y4601
X18101Y4601
X19101Y4601
X20101Y4601
X25101Y4601
X26101Y4601
X27101Y4601
T04
X8565Y16243
T05
X4431Y21361
X29628Y20770
X29628Y1479
X4431Y1282
T06
X1479Y1479
X1479Y20770
X32384Y20770
X32384Y1479
M30
