G75*
G70*
%OFA0B0*%
%FSLAX24Y24*%
%IPPOS*%
%LPD*%
%AMOC8*
5,1,8,0,0,1.08239X$1,22.5*
%
%ADD10C,0.0030*%
%ADD11C,0.0060*%
%ADD12C,0.0040*%
%ADD13C,0.0050*%
%ADD14R,0.4200X0.0300*%
%ADD15R,0.0750X0.0200*%
%ADD16R,0.0300X0.0200*%
D10*
X003462Y002084D02*
X003705Y002084D01*
X003825Y002145D02*
X003885Y002084D01*
X004007Y002084D01*
X004067Y002145D01*
X004067Y002266D01*
X004007Y002327D01*
X003885Y002327D01*
X003825Y002266D01*
X003825Y002145D01*
X004187Y002145D02*
X004187Y002327D01*
X004187Y002145D02*
X004248Y002084D01*
X004309Y002145D01*
X004369Y002084D01*
X004430Y002145D01*
X004430Y002327D01*
X004550Y002266D02*
X004610Y002327D01*
X004792Y002327D01*
X004912Y002327D02*
X004973Y002327D01*
X004973Y002084D01*
X005033Y002084D02*
X004912Y002084D01*
X004792Y002145D02*
X004732Y002206D01*
X004610Y002206D01*
X004550Y002266D01*
X004550Y002084D02*
X004732Y002084D01*
X004792Y002145D01*
X004973Y002448D02*
X004973Y002509D01*
X005214Y002327D02*
X005396Y002327D01*
X005396Y002448D02*
X005396Y002084D01*
X005214Y002084D01*
X005154Y002145D01*
X005154Y002266D01*
X005214Y002327D01*
X005516Y002266D02*
X005577Y002327D01*
X005698Y002327D01*
X005759Y002266D01*
X005759Y002206D01*
X005516Y002206D01*
X005516Y002266D02*
X005516Y002145D01*
X005577Y002084D01*
X005698Y002084D01*
X006241Y002448D02*
X006484Y002448D01*
X006363Y002448D02*
X006363Y002084D01*
X006604Y002084D02*
X006725Y002084D01*
X006664Y002084D02*
X006664Y002327D01*
X006604Y002327D01*
X006664Y002448D02*
X006664Y002509D01*
X006906Y002327D02*
X006845Y002266D01*
X006845Y002145D01*
X006906Y002084D01*
X007027Y002084D01*
X007088Y002206D02*
X006845Y002206D01*
X006906Y002327D02*
X007027Y002327D01*
X007088Y002266D01*
X007088Y002206D01*
X007570Y002206D02*
X007752Y002206D01*
X007813Y002266D01*
X007813Y002388D01*
X007752Y002448D01*
X007570Y002448D01*
X007570Y002084D01*
X007933Y002145D02*
X007993Y002084D01*
X008115Y002084D01*
X008175Y002145D01*
X008175Y002266D01*
X008115Y002327D01*
X007993Y002327D01*
X007933Y002266D01*
X007933Y002145D01*
X008295Y002084D02*
X008417Y002084D01*
X008356Y002084D02*
X008356Y002327D01*
X008295Y002327D01*
X008356Y002448D02*
X008356Y002509D01*
X008537Y002327D02*
X008537Y002084D01*
X008780Y002084D02*
X008780Y002266D01*
X008719Y002327D01*
X008537Y002327D01*
X008899Y002327D02*
X009021Y002327D01*
X008960Y002388D02*
X008960Y002145D01*
X009021Y002084D01*
X003462Y002084D02*
X003462Y002448D01*
X020588Y002251D02*
X020588Y001887D01*
X020831Y001887D01*
X020951Y001948D02*
X021011Y001887D01*
X021133Y001887D01*
X021193Y001948D01*
X021193Y002069D01*
X021133Y002130D01*
X021011Y002130D01*
X020951Y002069D01*
X020951Y001948D01*
X021313Y001948D02*
X021313Y002130D01*
X021313Y001948D02*
X021374Y001887D01*
X021434Y001948D01*
X021495Y001887D01*
X021556Y001948D01*
X021556Y002130D01*
X021676Y002069D02*
X021736Y002130D01*
X021918Y002130D01*
X022038Y002130D02*
X022099Y002130D01*
X022099Y001887D01*
X022159Y001887D02*
X022038Y001887D01*
X021918Y001948D02*
X021858Y002009D01*
X021736Y002009D01*
X021676Y002069D01*
X021676Y001887D02*
X021858Y001887D01*
X021918Y001948D01*
X022099Y002251D02*
X022099Y002312D01*
X022340Y002130D02*
X022522Y002130D01*
X022522Y002251D02*
X022522Y001887D01*
X022340Y001887D01*
X022280Y001948D01*
X022280Y002069D01*
X022340Y002130D01*
X022642Y002069D02*
X022642Y001948D01*
X022703Y001887D01*
X022824Y001887D01*
X022885Y002009D02*
X022642Y002009D01*
X022642Y002069D02*
X022703Y002130D01*
X022824Y002130D01*
X022885Y002069D01*
X022885Y002009D01*
X023367Y002251D02*
X023610Y002251D01*
X023489Y002251D02*
X023489Y001887D01*
X023730Y001887D02*
X023851Y001887D01*
X023790Y001887D02*
X023790Y002130D01*
X023730Y002130D01*
X023790Y002251D02*
X023790Y002312D01*
X024032Y002130D02*
X024153Y002130D01*
X024214Y002069D01*
X024214Y002009D01*
X023971Y002009D01*
X023971Y002069D02*
X023971Y001948D01*
X024032Y001887D01*
X024153Y001887D01*
X023971Y002069D02*
X024032Y002130D01*
X024696Y002009D02*
X024878Y002009D01*
X024939Y002069D01*
X024939Y002191D01*
X024878Y002251D01*
X024696Y002251D01*
X024696Y001887D01*
X025059Y001948D02*
X025059Y002069D01*
X025119Y002130D01*
X025241Y002130D01*
X025301Y002069D01*
X025301Y001948D01*
X025241Y001887D01*
X025119Y001887D01*
X025059Y001948D01*
X025421Y001887D02*
X025543Y001887D01*
X025482Y001887D02*
X025482Y002130D01*
X025421Y002130D01*
X025482Y002251D02*
X025482Y002312D01*
X025663Y002130D02*
X025845Y002130D01*
X025906Y002069D01*
X025906Y001887D01*
X026086Y001948D02*
X026086Y002191D01*
X026025Y002130D02*
X026147Y002130D01*
X026086Y001948D02*
X026147Y001887D01*
X025663Y001887D02*
X025663Y002130D01*
X025706Y003462D02*
X025953Y003462D01*
X026075Y003524D02*
X026136Y003462D01*
X026260Y003462D01*
X026321Y003524D01*
X026321Y003647D01*
X026260Y003709D01*
X026136Y003709D01*
X026075Y003647D01*
X026075Y003524D01*
X026443Y003524D02*
X026505Y003462D01*
X026566Y003524D01*
X026628Y003462D01*
X026690Y003524D01*
X026690Y003709D01*
X026811Y003647D02*
X026873Y003709D01*
X027058Y003709D01*
X027180Y003709D02*
X027241Y003709D01*
X027241Y003462D01*
X027180Y003462D02*
X027303Y003462D01*
X027425Y003524D02*
X027425Y003647D01*
X027487Y003709D01*
X027672Y003709D01*
X027672Y003833D02*
X027672Y003462D01*
X027487Y003462D01*
X027425Y003524D01*
X027241Y003833D02*
X027241Y003894D01*
X027302Y004053D02*
X027302Y004300D01*
X027426Y004300D02*
X027487Y004300D01*
X027426Y004300D02*
X027302Y004176D01*
X027181Y004176D02*
X026934Y004176D01*
X026934Y004114D02*
X026934Y004238D01*
X026996Y004300D01*
X027119Y004300D01*
X027181Y004238D01*
X027181Y004176D01*
X027119Y004053D02*
X026996Y004053D01*
X026934Y004114D01*
X026812Y004053D02*
X026750Y004114D01*
X026750Y004361D01*
X026688Y004300D02*
X026812Y004300D01*
X026566Y004300D02*
X026443Y004300D01*
X026505Y004361D02*
X026505Y004114D01*
X026566Y004053D01*
X026321Y004053D02*
X026136Y004053D01*
X026075Y004114D01*
X026136Y004176D01*
X026321Y004176D01*
X026321Y004238D02*
X026321Y004053D01*
X026321Y004238D02*
X026260Y004300D01*
X026136Y004300D01*
X025953Y004300D02*
X025953Y004361D01*
X025891Y004423D01*
X025706Y004423D01*
X025706Y004053D01*
X025891Y004053D01*
X025953Y004114D01*
X025953Y004176D01*
X025891Y004238D01*
X025706Y004238D01*
X025891Y004238D02*
X025953Y004300D01*
X025706Y003833D02*
X025706Y003462D01*
X026443Y003524D02*
X026443Y003709D01*
X026811Y003647D02*
X026873Y003586D01*
X026996Y003586D01*
X027058Y003524D01*
X026996Y003462D01*
X026811Y003462D01*
X027793Y003524D02*
X027793Y003647D01*
X027855Y003709D01*
X027979Y003709D01*
X028040Y003647D01*
X028040Y003586D01*
X027793Y003586D01*
X027793Y003524D02*
X027855Y003462D01*
X027979Y003462D01*
X027794Y003929D02*
X027733Y003929D01*
X027794Y003929D02*
X027856Y003991D01*
X027856Y004300D01*
X027609Y004300D02*
X027609Y004114D01*
X027671Y004053D01*
X027856Y004053D01*
X026505Y017709D02*
X026567Y017771D01*
X026567Y018079D01*
X026382Y018079D01*
X026320Y018017D01*
X026320Y017894D01*
X026382Y017832D01*
X026567Y017832D01*
X026688Y017832D02*
X026688Y018203D01*
X026750Y018079D02*
X026874Y018079D01*
X026935Y018017D01*
X026935Y017832D01*
X027057Y017832D02*
X027242Y017832D01*
X027304Y017894D01*
X027242Y017956D01*
X027118Y017956D01*
X027057Y018017D01*
X027118Y018079D01*
X027304Y018079D01*
X027425Y018079D02*
X027487Y018079D01*
X027487Y017832D01*
X027425Y017832D02*
X027549Y017832D01*
X027671Y017894D02*
X027732Y017832D01*
X027917Y017832D01*
X027917Y018203D01*
X027917Y018079D02*
X027732Y018079D01*
X027671Y018017D01*
X027671Y017894D01*
X027487Y018203D02*
X027487Y018264D01*
X027671Y018423D02*
X027856Y018423D01*
X027856Y018361D02*
X027856Y018670D01*
X027609Y018670D02*
X027609Y018485D01*
X027671Y018423D01*
X027733Y018299D02*
X027794Y018299D01*
X027856Y018361D01*
X028101Y018079D02*
X028224Y018079D01*
X028286Y018017D01*
X028286Y017956D01*
X028039Y017956D01*
X028039Y018017D02*
X028101Y018079D01*
X028039Y018017D02*
X028039Y017894D01*
X028101Y017832D01*
X028224Y017832D01*
X027302Y018423D02*
X027302Y018670D01*
X027426Y018670D02*
X027487Y018670D01*
X027426Y018670D02*
X027302Y018546D01*
X027181Y018546D02*
X026934Y018546D01*
X026934Y018485D02*
X026934Y018608D01*
X026996Y018670D01*
X027119Y018670D01*
X027181Y018608D01*
X027181Y018546D01*
X027119Y018423D02*
X026996Y018423D01*
X026934Y018485D01*
X026812Y018423D02*
X026750Y018485D01*
X026750Y018731D01*
X026688Y018670D02*
X026812Y018670D01*
X026566Y018670D02*
X026443Y018670D01*
X026505Y018731D02*
X026505Y018485D01*
X026566Y018423D01*
X026321Y018423D02*
X026136Y018423D01*
X026075Y018485D01*
X026136Y018546D01*
X026321Y018546D01*
X026321Y018608D02*
X026321Y018423D01*
X026321Y018608D02*
X026260Y018670D01*
X026136Y018670D01*
X025953Y018670D02*
X025953Y018731D01*
X025891Y018793D01*
X025706Y018793D01*
X025706Y018423D01*
X025891Y018423D01*
X025953Y018485D01*
X025953Y018546D01*
X025891Y018608D01*
X025706Y018608D01*
X025891Y018608D02*
X025953Y018670D01*
X026136Y018264D02*
X026136Y018203D01*
X026136Y018079D02*
X026136Y017832D01*
X026075Y017832D02*
X026198Y017832D01*
X025953Y017832D02*
X025953Y018203D01*
X026075Y018079D02*
X026136Y018079D01*
X025953Y018017D02*
X025706Y018017D01*
X025706Y017832D02*
X025706Y018203D01*
X026444Y017709D02*
X026505Y017709D01*
X026688Y018017D02*
X026750Y018079D01*
X025995Y021376D02*
X025934Y021436D01*
X025934Y021679D01*
X025873Y021618D02*
X025995Y021618D01*
X025754Y021558D02*
X025754Y021376D01*
X025754Y021558D02*
X025693Y021618D01*
X025511Y021618D01*
X025511Y021376D01*
X025391Y021376D02*
X025269Y021376D01*
X025330Y021376D02*
X025330Y021618D01*
X025269Y021618D01*
X025149Y021558D02*
X025089Y021618D01*
X024967Y021618D01*
X024907Y021558D01*
X024907Y021436D01*
X024967Y021376D01*
X025089Y021376D01*
X025149Y021436D01*
X025149Y021558D01*
X025330Y021740D02*
X025330Y021800D01*
X024787Y021679D02*
X024787Y021558D01*
X024726Y021497D01*
X024544Y021497D01*
X024544Y021376D02*
X024544Y021740D01*
X024726Y021740D01*
X024787Y021679D01*
X024062Y021558D02*
X024062Y021497D01*
X023819Y021497D01*
X023819Y021558D02*
X023880Y021618D01*
X024001Y021618D01*
X024062Y021558D01*
X024001Y021376D02*
X023880Y021376D01*
X023819Y021436D01*
X023819Y021558D01*
X023638Y021618D02*
X023638Y021376D01*
X023578Y021376D02*
X023699Y021376D01*
X023638Y021618D02*
X023578Y021618D01*
X023638Y021740D02*
X023638Y021800D01*
X023458Y021740D02*
X023215Y021740D01*
X023336Y021740D02*
X023336Y021376D01*
X022733Y021497D02*
X022490Y021497D01*
X022490Y021558D02*
X022551Y021618D01*
X022672Y021618D01*
X022733Y021558D01*
X022733Y021497D01*
X022672Y021376D02*
X022551Y021376D01*
X022490Y021436D01*
X022490Y021558D01*
X022370Y021618D02*
X022188Y021618D01*
X022128Y021558D01*
X022128Y021436D01*
X022188Y021376D01*
X022370Y021376D01*
X022370Y021740D01*
X021947Y021740D02*
X021947Y021800D01*
X021947Y021618D02*
X021947Y021376D01*
X022007Y021376D02*
X021886Y021376D01*
X021766Y021436D02*
X021706Y021497D01*
X021584Y021497D01*
X021524Y021558D01*
X021584Y021618D01*
X021766Y021618D01*
X021886Y021618D02*
X021947Y021618D01*
X021766Y021436D02*
X021706Y021376D01*
X021524Y021376D01*
X021404Y021376D02*
X021404Y021558D01*
X021343Y021618D01*
X021222Y021618D01*
X021161Y021558D01*
X021041Y021618D02*
X020859Y021618D01*
X020799Y021558D01*
X020799Y021436D01*
X020859Y021376D01*
X021041Y021376D01*
X021041Y021315D02*
X021041Y021618D01*
X021161Y021740D02*
X021161Y021376D01*
X021041Y021315D02*
X020981Y021254D01*
X020920Y021254D01*
X020678Y021376D02*
X020557Y021376D01*
X020618Y021376D02*
X020618Y021618D01*
X020557Y021618D01*
X020437Y021558D02*
X020195Y021558D01*
X020195Y021376D02*
X020195Y021740D01*
X020437Y021740D02*
X020437Y021376D01*
X020618Y021740D02*
X020618Y021800D01*
X011821Y021618D02*
X011700Y021618D01*
X011761Y021679D02*
X011761Y021436D01*
X011821Y021376D01*
X011580Y021376D02*
X011580Y021558D01*
X011520Y021618D01*
X011338Y021618D01*
X011338Y021376D01*
X011217Y021376D02*
X011096Y021376D01*
X011157Y021376D02*
X011157Y021618D01*
X011096Y021618D01*
X010976Y021558D02*
X010916Y021618D01*
X010794Y021618D01*
X010734Y021558D01*
X010734Y021436D01*
X010794Y021376D01*
X010916Y021376D01*
X010976Y021436D01*
X010976Y021558D01*
X011157Y021740D02*
X011157Y021800D01*
X010614Y021679D02*
X010614Y021558D01*
X010553Y021497D01*
X010371Y021497D01*
X010371Y021376D02*
X010371Y021740D01*
X010553Y021740D01*
X010614Y021679D01*
X009889Y021558D02*
X009889Y021497D01*
X009646Y021497D01*
X009646Y021558D02*
X009707Y021618D01*
X009828Y021618D01*
X009889Y021558D01*
X009828Y021376D02*
X009707Y021376D01*
X009646Y021436D01*
X009646Y021558D01*
X009465Y021618D02*
X009465Y021376D01*
X009404Y021376D02*
X009526Y021376D01*
X009465Y021618D02*
X009404Y021618D01*
X009465Y021740D02*
X009465Y021800D01*
X009285Y021740D02*
X009042Y021740D01*
X009163Y021740D02*
X009163Y021376D01*
X008560Y021497D02*
X008317Y021497D01*
X008317Y021558D02*
X008378Y021618D01*
X008499Y021618D01*
X008560Y021558D01*
X008560Y021497D01*
X008499Y021376D02*
X008378Y021376D01*
X008317Y021436D01*
X008317Y021558D01*
X008197Y021618D02*
X008015Y021618D01*
X007955Y021558D01*
X007955Y021436D01*
X008015Y021376D01*
X008197Y021376D01*
X008197Y021740D01*
X007774Y021740D02*
X007774Y021800D01*
X007774Y021618D02*
X007774Y021376D01*
X007834Y021376D02*
X007713Y021376D01*
X007593Y021436D02*
X007532Y021497D01*
X007411Y021497D01*
X007350Y021558D01*
X007411Y021618D01*
X007593Y021618D01*
X007713Y021618D02*
X007774Y021618D01*
X007593Y021436D02*
X007532Y021376D01*
X007350Y021376D01*
X007231Y021376D02*
X007231Y021558D01*
X007170Y021618D01*
X007049Y021618D01*
X006988Y021558D01*
X006868Y021618D02*
X006868Y021315D01*
X006807Y021254D01*
X006747Y021254D01*
X006686Y021376D02*
X006868Y021376D01*
X006988Y021376D02*
X006988Y021740D01*
X006868Y021618D02*
X006686Y021618D01*
X006625Y021558D01*
X006625Y021436D01*
X006686Y021376D01*
X006505Y021376D02*
X006384Y021376D01*
X006444Y021376D02*
X006444Y021618D01*
X006384Y021618D01*
X006264Y021558D02*
X006021Y021558D01*
X006021Y021376D02*
X006021Y021740D01*
X006264Y021740D02*
X006264Y021376D01*
X006444Y021740D02*
X006444Y021800D01*
D11*
X005348Y020478D02*
X005028Y020478D01*
X005028Y019837D01*
X005348Y019837D01*
X005455Y019944D01*
X005455Y020051D01*
X005348Y020157D01*
X005028Y020157D01*
X005348Y020157D02*
X005455Y020264D01*
X005455Y020371D01*
X005348Y020478D01*
X004166Y020371D02*
X004059Y020478D01*
X003845Y020478D01*
X003739Y020371D01*
X003739Y019944D01*
X003845Y019837D01*
X004059Y019837D01*
X004166Y019944D01*
X002877Y019837D02*
X002450Y019837D01*
X002450Y020478D01*
X002877Y020478D01*
X002663Y020157D02*
X002450Y020157D01*
X008869Y020157D02*
X009082Y020157D01*
X008869Y020157D01*
X008869Y019837D02*
X008869Y020478D01*
X009296Y020478D01*
X008869Y020478D01*
X008869Y019837D01*
X009296Y019837D01*
X008869Y019837D01*
X010158Y019944D02*
X010264Y019837D01*
X010478Y019837D01*
X010585Y019944D01*
X010478Y019837D01*
X010264Y019837D01*
X010158Y019944D01*
X010158Y020371D01*
X010264Y020478D01*
X010478Y020478D01*
X010585Y020371D01*
X010478Y020478D01*
X010264Y020478D01*
X010158Y020371D01*
X010158Y019944D01*
X011447Y019837D02*
X011767Y019837D01*
X011874Y019944D01*
X011874Y020051D01*
X011767Y020157D01*
X011447Y020157D01*
X011767Y020157D01*
X011874Y020264D01*
X011874Y020371D01*
X011767Y020478D01*
X011447Y020478D01*
X011447Y019837D01*
X011767Y019837D01*
X011874Y019944D01*
X011874Y020051D01*
X011767Y020157D01*
X011874Y020264D01*
X011874Y020371D01*
X011767Y020478D01*
X011447Y020478D01*
X011447Y019837D01*
X015144Y019775D02*
X015571Y019775D01*
X015144Y019775D01*
X015144Y020415D01*
X015571Y020415D01*
X015144Y020415D01*
X015144Y019775D01*
X015144Y020095D02*
X015357Y020095D01*
X015144Y020095D01*
X016433Y020308D02*
X016433Y019881D01*
X016539Y019775D01*
X016753Y019775D01*
X016860Y019881D01*
X016753Y019775D01*
X016539Y019775D01*
X016433Y019881D01*
X016433Y020308D01*
X016539Y020415D01*
X016753Y020415D01*
X016860Y020308D01*
X016753Y020415D01*
X016539Y020415D01*
X016433Y020308D01*
X017722Y020415D02*
X017722Y019775D01*
X018042Y019775D01*
X018149Y019881D01*
X018149Y019988D01*
X018042Y020095D01*
X017722Y020095D01*
X018042Y020095D01*
X018149Y020202D01*
X018149Y020308D01*
X018042Y020415D01*
X017722Y020415D01*
X018042Y020415D01*
X018149Y020308D01*
X018149Y020202D01*
X018042Y020095D01*
X018149Y019988D01*
X018149Y019881D01*
X018042Y019775D01*
X017722Y019775D01*
X017722Y020415D01*
X021419Y020415D02*
X021419Y019775D01*
X021846Y019775D01*
X021632Y020095D02*
X021419Y020095D01*
X021419Y020415D02*
X021846Y020415D01*
X022708Y020308D02*
X022708Y019881D01*
X022815Y019775D01*
X023028Y019775D01*
X023135Y019881D01*
X023135Y020308D02*
X023028Y020415D01*
X022815Y020415D01*
X022708Y020308D01*
X023997Y020415D02*
X023997Y019775D01*
X024317Y019775D01*
X024424Y019881D01*
X024424Y019988D01*
X024317Y020095D01*
X023997Y020095D01*
X023997Y020415D02*
X024317Y020415D01*
X024424Y020308D01*
X024424Y020202D01*
X024317Y020095D01*
X024453Y003771D02*
X024453Y003131D01*
X024880Y003131D01*
X024667Y003451D02*
X024453Y003451D01*
X024453Y003771D02*
X024880Y003771D01*
X023591Y003665D02*
X023484Y003771D01*
X023271Y003771D01*
X023164Y003665D01*
X023164Y003238D01*
X023271Y003131D01*
X023484Y003131D01*
X023591Y003238D01*
X022302Y003238D02*
X022195Y003131D01*
X021875Y003131D01*
X021875Y003771D01*
X022195Y003771D01*
X022302Y003665D01*
X022302Y003558D01*
X022195Y003451D01*
X021875Y003451D01*
X022195Y003451D02*
X022302Y003344D01*
X022302Y003238D01*
X022025Y001646D02*
X022025Y001006D01*
X021919Y001006D02*
X022132Y001006D01*
X022348Y001113D02*
X022348Y001326D01*
X022455Y001433D01*
X022669Y001433D01*
X022775Y001326D01*
X022775Y001219D01*
X022348Y001219D01*
X022348Y001113D02*
X022455Y001006D01*
X022669Y001006D01*
X022025Y001646D02*
X021919Y001646D01*
X021701Y001433D02*
X021701Y001006D01*
X021381Y001006D01*
X021274Y001113D01*
X021274Y001433D01*
X021057Y001433D02*
X020736Y001433D01*
X020630Y001326D01*
X020630Y001113D01*
X020736Y001006D01*
X021057Y001006D01*
X021057Y001646D01*
X020412Y001326D02*
X020412Y001113D01*
X020305Y001006D01*
X020092Y001006D01*
X019985Y001113D01*
X019985Y001326D01*
X020092Y001433D01*
X020305Y001433D01*
X020412Y001326D01*
X019768Y001646D02*
X019768Y001006D01*
X019554Y001433D02*
X019768Y001646D01*
X019554Y001433D02*
X019341Y001646D01*
X019341Y001006D01*
X018479Y001433D02*
X018373Y001433D01*
X018159Y001219D01*
X018159Y001006D02*
X018159Y001433D01*
X017941Y001326D02*
X017941Y001219D01*
X017514Y001219D01*
X017514Y001113D02*
X017514Y001326D01*
X017621Y001433D01*
X017835Y001433D01*
X017941Y001326D01*
X017835Y001006D02*
X017621Y001006D01*
X017514Y001113D01*
X017297Y001006D02*
X016977Y001006D01*
X016870Y001113D01*
X016870Y001326D01*
X016977Y001433D01*
X017297Y001433D01*
X016652Y001326D02*
X016652Y001006D01*
X016652Y001326D02*
X016546Y001433D01*
X016225Y001433D01*
X016225Y001006D01*
X016008Y001006D02*
X016008Y001326D01*
X015901Y001433D01*
X015688Y001433D01*
X015688Y001219D02*
X016008Y001219D01*
X016008Y001006D02*
X015688Y001006D01*
X015581Y001113D01*
X015688Y001219D01*
X015365Y001006D02*
X015151Y001006D01*
X015258Y001006D02*
X015258Y001646D01*
X015151Y001646D01*
X014934Y001326D02*
X014934Y001006D01*
X014613Y001006D01*
X014507Y001113D01*
X014613Y001219D01*
X014934Y001219D01*
X014934Y001326D02*
X014827Y001433D01*
X014613Y001433D01*
X014289Y001433D02*
X014289Y001540D01*
X014182Y001646D01*
X013862Y001646D01*
X013862Y001006D01*
X014182Y001006D01*
X014289Y001113D01*
X014289Y001219D01*
X014182Y001326D01*
X013862Y001326D01*
X014182Y001326D02*
X014289Y001433D01*
X013001Y001433D02*
X012788Y001433D01*
X012895Y001540D02*
X012895Y001113D01*
X013001Y001006D01*
X012570Y001006D02*
X012570Y001326D01*
X012464Y001433D01*
X012143Y001433D01*
X012143Y001006D01*
X011926Y001006D02*
X011926Y001433D01*
X011499Y001433D02*
X011499Y001113D01*
X011606Y001006D01*
X011926Y001006D01*
X011281Y001006D02*
X011281Y001326D01*
X011175Y001433D01*
X010961Y001433D01*
X010854Y001326D01*
X010637Y001219D02*
X010637Y001113D01*
X010530Y001006D01*
X010317Y001006D01*
X010210Y001113D01*
X010317Y001326D02*
X010210Y001433D01*
X010210Y001540D01*
X010317Y001646D01*
X010530Y001646D01*
X010637Y001540D01*
X010530Y001326D02*
X010637Y001219D01*
X010530Y001326D02*
X010317Y001326D01*
X010854Y001646D02*
X010854Y001006D01*
X009349Y001006D02*
X009136Y001006D01*
X009242Y001006D02*
X009242Y001646D01*
X009136Y001646D01*
X008813Y001646D02*
X008813Y001006D01*
X008919Y001006D02*
X008706Y001006D01*
X008488Y001219D02*
X008061Y001219D01*
X008061Y001113D02*
X008061Y001326D01*
X008168Y001433D01*
X008382Y001433D01*
X008488Y001326D01*
X008488Y001219D01*
X008382Y001006D02*
X008168Y001006D01*
X008061Y001113D01*
X007844Y001113D02*
X007737Y001006D01*
X007524Y001006D01*
X007417Y001113D01*
X007417Y001540D01*
X007524Y001646D01*
X007737Y001646D01*
X007844Y001540D01*
X008706Y001646D02*
X008813Y001646D01*
X009315Y003131D02*
X009636Y003131D01*
X009742Y003238D01*
X009742Y003344D01*
X009636Y003451D01*
X009315Y003451D01*
X009315Y003131D02*
X009315Y003771D01*
X009636Y003771D01*
X009742Y003665D01*
X009742Y003558D01*
X009636Y003451D01*
X010604Y003238D02*
X010711Y003131D01*
X010925Y003131D01*
X011031Y003238D01*
X010604Y003238D02*
X010604Y003665D01*
X010711Y003771D01*
X010925Y003771D01*
X011031Y003665D01*
X011893Y003771D02*
X011893Y003131D01*
X012320Y003131D01*
X012107Y003451D02*
X011893Y003451D01*
X011893Y003771D02*
X012320Y003771D01*
X015662Y003771D02*
X015662Y003131D01*
X015983Y003131D01*
X016089Y003238D01*
X016089Y003344D01*
X015983Y003451D01*
X015662Y003451D01*
X015983Y003451D02*
X016089Y003558D01*
X016089Y003665D01*
X015983Y003771D01*
X015662Y003771D01*
X016951Y003665D02*
X016951Y003238D01*
X017058Y003131D01*
X017272Y003131D01*
X017378Y003238D01*
X017378Y003665D02*
X017272Y003771D01*
X017058Y003771D01*
X016951Y003665D01*
X018240Y003771D02*
X018240Y003131D01*
X018667Y003131D01*
X018454Y003451D02*
X018240Y003451D01*
X018240Y003771D02*
X018667Y003771D01*
X023637Y001646D02*
X023637Y001219D01*
X023851Y001006D01*
X024064Y001219D01*
X024064Y001646D01*
X024282Y001540D02*
X024389Y001646D01*
X024602Y001646D01*
X024709Y001540D01*
X024282Y001113D01*
X024389Y001006D01*
X024602Y001006D01*
X024709Y001113D01*
X024709Y001540D01*
X025249Y001433D02*
X025462Y001646D01*
X025462Y001006D01*
X025249Y001006D02*
X025676Y001006D01*
X025033Y001006D02*
X024927Y001006D01*
X024927Y001113D01*
X025033Y001113D01*
X025033Y001006D01*
X024282Y001113D02*
X024282Y001540D01*
X006555Y001540D02*
X006555Y001433D01*
X006448Y001326D01*
X006235Y001326D01*
X006128Y001433D01*
X006128Y001540D01*
X006235Y001646D01*
X006448Y001646D01*
X006555Y001540D01*
X006448Y001326D02*
X006555Y001219D01*
X006555Y001113D01*
X006448Y001006D01*
X006235Y001006D01*
X006128Y001113D01*
X006128Y001219D01*
X006235Y001326D01*
X005786Y003193D02*
X005359Y003193D01*
X005359Y003834D01*
X005786Y003834D01*
X005573Y003514D02*
X005359Y003514D01*
X004497Y003727D02*
X004390Y003834D01*
X004177Y003834D01*
X004070Y003727D01*
X004070Y003300D01*
X004177Y003193D01*
X004390Y003193D01*
X004497Y003300D01*
X003208Y003300D02*
X003101Y003193D01*
X002781Y003193D01*
X002781Y003834D01*
X003101Y003834D01*
X003208Y003727D01*
X003208Y003620D01*
X003101Y003514D01*
X002781Y003514D01*
X003101Y003514D02*
X003208Y003407D01*
X003208Y003300D01*
D12*
X026302Y005491D02*
X026455Y005337D01*
X026609Y005491D01*
X026609Y005798D01*
X026762Y005798D02*
X026992Y005798D01*
X027069Y005721D01*
X027069Y005644D01*
X026992Y005567D01*
X026762Y005567D01*
X026762Y005337D02*
X026992Y005337D01*
X027069Y005414D01*
X027069Y005491D01*
X026992Y005567D01*
X027223Y005644D02*
X027376Y005798D01*
X027376Y005337D01*
X027223Y005337D02*
X027529Y005337D01*
X026762Y005337D02*
X026762Y005798D01*
X026302Y005798D02*
X026302Y005491D01*
X026455Y006715D02*
X026302Y006869D01*
X026302Y007176D01*
X026609Y007176D02*
X026609Y006869D01*
X026455Y006715D01*
X026762Y006715D02*
X026992Y006715D01*
X027069Y006792D01*
X027069Y006869D01*
X026992Y006945D01*
X026762Y006945D01*
X026762Y006715D02*
X026762Y007176D01*
X026992Y007176D01*
X027069Y007099D01*
X027069Y007022D01*
X026992Y006945D01*
X027223Y007099D02*
X027299Y007176D01*
X027453Y007176D01*
X027529Y007099D01*
X027529Y007022D01*
X027223Y006715D01*
X027529Y006715D01*
X027453Y008093D02*
X027299Y008093D01*
X027223Y008170D01*
X027069Y008170D02*
X026992Y008093D01*
X026762Y008093D01*
X026762Y008554D01*
X026992Y008554D01*
X027069Y008477D01*
X027069Y008400D01*
X026992Y008323D01*
X026762Y008323D01*
X026609Y008247D02*
X026609Y008554D01*
X026302Y008554D02*
X026302Y008247D01*
X026455Y008093D01*
X026609Y008247D01*
X026992Y008323D02*
X027069Y008247D01*
X027069Y008170D01*
X027223Y008477D02*
X027299Y008554D01*
X027453Y008554D01*
X027529Y008477D01*
X027529Y008400D01*
X027453Y008323D01*
X027529Y008247D01*
X027529Y008170D01*
X027453Y008093D01*
X027453Y008323D02*
X027376Y008323D01*
X027453Y009471D02*
X027453Y009932D01*
X027223Y009701D01*
X027529Y009701D01*
X027069Y009625D02*
X027069Y009548D01*
X026992Y009471D01*
X026762Y009471D01*
X026762Y009932D01*
X026992Y009932D01*
X027069Y009855D01*
X027069Y009778D01*
X026992Y009701D01*
X026762Y009701D01*
X026609Y009625D02*
X026609Y009932D01*
X026302Y009932D02*
X026302Y009625D01*
X026455Y009471D01*
X026609Y009625D01*
X026992Y009701D02*
X027069Y009625D01*
X026992Y010849D02*
X026762Y010849D01*
X026762Y011309D01*
X026992Y011309D01*
X027069Y011233D01*
X027069Y011156D01*
X026992Y011079D01*
X026762Y011079D01*
X026609Y011003D02*
X026609Y011309D01*
X026609Y011003D02*
X026455Y010849D01*
X026302Y011003D01*
X026302Y011309D01*
X026992Y011079D02*
X027069Y011003D01*
X027069Y010926D01*
X026992Y010849D01*
X027223Y010926D02*
X027299Y010849D01*
X027453Y010849D01*
X027529Y010926D01*
X027529Y011079D01*
X027453Y011156D01*
X027376Y011156D01*
X027223Y011079D01*
X027223Y011309D01*
X027529Y011309D01*
X027453Y012227D02*
X027529Y012304D01*
X027529Y012381D01*
X027453Y012457D01*
X027223Y012457D01*
X027223Y012304D01*
X027299Y012227D01*
X027453Y012227D01*
X027223Y012457D02*
X027376Y012611D01*
X027529Y012687D01*
X027069Y012611D02*
X027069Y012534D01*
X026992Y012457D01*
X026762Y012457D01*
X026609Y012381D02*
X026609Y012687D01*
X026762Y012687D02*
X026992Y012687D01*
X027069Y012611D01*
X026992Y012457D02*
X027069Y012381D01*
X027069Y012304D01*
X026992Y012227D01*
X026762Y012227D01*
X026762Y012687D01*
X026609Y012381D02*
X026455Y012227D01*
X026302Y012381D01*
X026302Y012687D01*
X026455Y013605D02*
X026302Y013758D01*
X026302Y014065D01*
X026609Y014065D02*
X026609Y013758D01*
X026455Y013605D01*
X026762Y013605D02*
X026992Y013605D01*
X027069Y013682D01*
X027069Y013758D01*
X026992Y013835D01*
X026762Y013835D01*
X026762Y013605D02*
X026762Y014065D01*
X026992Y014065D01*
X027069Y013989D01*
X027069Y013912D01*
X026992Y013835D01*
X027223Y013682D02*
X027223Y013605D01*
X027223Y013682D02*
X027529Y013989D01*
X027529Y014065D01*
X027223Y014065D01*
X027299Y014983D02*
X027223Y015060D01*
X027223Y015136D01*
X027299Y015213D01*
X027453Y015213D01*
X027529Y015136D01*
X027529Y015060D01*
X027453Y014983D01*
X027299Y014983D01*
X027299Y015213D02*
X027223Y015290D01*
X027223Y015367D01*
X027299Y015443D01*
X027453Y015443D01*
X027529Y015367D01*
X027529Y015290D01*
X027453Y015213D01*
X027069Y015136D02*
X027069Y015060D01*
X026992Y014983D01*
X026762Y014983D01*
X026762Y015443D01*
X026992Y015443D01*
X027069Y015367D01*
X027069Y015290D01*
X026992Y015213D01*
X026762Y015213D01*
X026609Y015136D02*
X026609Y015443D01*
X026609Y015136D02*
X026455Y014983D01*
X026302Y015136D01*
X026302Y015443D01*
X026992Y015213D02*
X027069Y015136D01*
X026992Y016361D02*
X026762Y016361D01*
X026762Y016821D01*
X026992Y016821D01*
X027069Y016745D01*
X027069Y016668D01*
X026992Y016591D01*
X026762Y016591D01*
X026609Y016514D02*
X026609Y016821D01*
X026609Y016514D02*
X026455Y016361D01*
X026302Y016514D01*
X026302Y016821D01*
X026992Y016591D02*
X027069Y016514D01*
X027069Y016438D01*
X026992Y016361D01*
X027223Y016438D02*
X027299Y016361D01*
X027453Y016361D01*
X027529Y016438D01*
X027529Y016745D01*
X027453Y016821D01*
X027299Y016821D01*
X027223Y016745D01*
X027223Y016668D01*
X027299Y016591D01*
X027529Y016591D01*
D13*
X025042Y018267D02*
X024992Y019417D01*
X024892Y019517D01*
X021192Y019517D01*
X021092Y019417D01*
X021042Y018267D01*
X018743Y018267D02*
X018693Y019417D01*
X018593Y019517D01*
X014893Y019517D01*
X014793Y019417D01*
X014743Y018267D01*
X012443Y018267D02*
X012393Y019417D01*
X012293Y019517D01*
X008593Y019517D01*
X008493Y019417D01*
X008443Y018267D01*
X006144Y018267D02*
X006094Y019417D01*
X005994Y019517D01*
X002294Y019517D01*
X002194Y019417D01*
X002144Y018267D01*
X005814Y019277D02*
X005816Y019297D01*
X005822Y019315D01*
X005831Y019333D01*
X005843Y019348D01*
X005858Y019360D01*
X005876Y019369D01*
X005894Y019375D01*
X005914Y019377D01*
X005934Y019375D01*
X005952Y019369D01*
X005970Y019360D01*
X005985Y019348D01*
X005997Y019333D01*
X006006Y019315D01*
X006012Y019297D01*
X006014Y019277D01*
X006012Y019257D01*
X006006Y019239D01*
X005997Y019221D01*
X005985Y019206D01*
X005970Y019194D01*
X005952Y019185D01*
X005934Y019179D01*
X005914Y019177D01*
X005894Y019179D01*
X005876Y019185D01*
X005858Y019194D01*
X005843Y019206D01*
X005831Y019221D01*
X005822Y019239D01*
X005816Y019257D01*
X005814Y019277D01*
X012113Y019277D02*
X012115Y019297D01*
X012121Y019315D01*
X012130Y019333D01*
X012142Y019348D01*
X012157Y019360D01*
X012175Y019369D01*
X012193Y019375D01*
X012213Y019377D01*
X012233Y019375D01*
X012251Y019369D01*
X012269Y019360D01*
X012284Y019348D01*
X012296Y019333D01*
X012305Y019315D01*
X012311Y019297D01*
X012313Y019277D01*
X012311Y019257D01*
X012305Y019239D01*
X012296Y019221D01*
X012284Y019206D01*
X012269Y019194D01*
X012251Y019185D01*
X012233Y019179D01*
X012213Y019177D01*
X012193Y019179D01*
X012175Y019185D01*
X012157Y019194D01*
X012142Y019206D01*
X012130Y019221D01*
X012121Y019239D01*
X012115Y019257D01*
X012113Y019277D01*
X018413Y019277D02*
X018415Y019297D01*
X018421Y019315D01*
X018430Y019333D01*
X018442Y019348D01*
X018457Y019360D01*
X018475Y019369D01*
X018493Y019375D01*
X018513Y019377D01*
X018533Y019375D01*
X018551Y019369D01*
X018569Y019360D01*
X018584Y019348D01*
X018596Y019333D01*
X018605Y019315D01*
X018611Y019297D01*
X018613Y019277D01*
X018611Y019257D01*
X018605Y019239D01*
X018596Y019221D01*
X018584Y019206D01*
X018569Y019194D01*
X018551Y019185D01*
X018533Y019179D01*
X018513Y019177D01*
X018493Y019179D01*
X018475Y019185D01*
X018457Y019194D01*
X018442Y019206D01*
X018430Y019221D01*
X018421Y019239D01*
X018415Y019257D01*
X018413Y019277D01*
X024712Y019277D02*
X024714Y019297D01*
X024720Y019315D01*
X024729Y019333D01*
X024741Y019348D01*
X024756Y019360D01*
X024774Y019369D01*
X024792Y019375D01*
X024812Y019377D01*
X024832Y019375D01*
X024850Y019369D01*
X024868Y019360D01*
X024883Y019348D01*
X024895Y019333D01*
X024904Y019315D01*
X024910Y019297D01*
X024912Y019277D01*
X024910Y019257D01*
X024904Y019239D01*
X024895Y019221D01*
X024883Y019206D01*
X024868Y019194D01*
X024850Y019185D01*
X024832Y019179D01*
X024812Y019177D01*
X024792Y019179D01*
X024774Y019185D01*
X024756Y019194D01*
X024741Y019206D01*
X024729Y019221D01*
X024720Y019239D01*
X024714Y019257D01*
X024712Y019277D01*
X021652Y013180D02*
X021654Y013194D01*
X021660Y013208D01*
X021668Y013220D01*
X021680Y013228D01*
X021694Y013234D01*
X021708Y013236D01*
X021722Y013234D01*
X021736Y013228D01*
X021748Y013220D01*
X021756Y013208D01*
X021762Y013194D01*
X021764Y013180D01*
X021762Y013166D01*
X021756Y013152D01*
X021748Y013140D01*
X021736Y013132D01*
X021722Y013126D01*
X021708Y013124D01*
X021694Y013126D01*
X021680Y013132D01*
X021668Y013140D01*
X021660Y013152D01*
X021654Y013166D01*
X021652Y013180D01*
X024501Y010250D02*
X024503Y010264D01*
X024509Y010278D01*
X024517Y010290D01*
X024529Y010298D01*
X024543Y010304D01*
X024557Y010306D01*
X024571Y010304D01*
X024585Y010298D01*
X024597Y010290D01*
X024605Y010278D01*
X024611Y010264D01*
X024613Y010250D01*
X024611Y010236D01*
X024605Y010222D01*
X024597Y010210D01*
X024585Y010202D01*
X024571Y010196D01*
X024557Y010194D01*
X024543Y010196D01*
X024529Y010202D01*
X024517Y010210D01*
X024509Y010222D01*
X024503Y010236D01*
X024501Y010250D01*
X025223Y005163D02*
X025173Y004013D01*
X025073Y003913D01*
X021373Y003913D01*
X021273Y004013D01*
X021223Y005163D01*
X021353Y004153D02*
X021355Y004173D01*
X021361Y004191D01*
X021370Y004209D01*
X021382Y004224D01*
X021397Y004236D01*
X021415Y004245D01*
X021433Y004251D01*
X021453Y004253D01*
X021473Y004251D01*
X021491Y004245D01*
X021509Y004236D01*
X021524Y004224D01*
X021536Y004209D01*
X021545Y004191D01*
X021551Y004173D01*
X021553Y004153D01*
X021551Y004133D01*
X021545Y004115D01*
X021536Y004097D01*
X021524Y004082D01*
X021509Y004070D01*
X021491Y004061D01*
X021473Y004055D01*
X021453Y004053D01*
X021433Y004055D01*
X021415Y004061D01*
X021397Y004070D01*
X021382Y004082D01*
X021370Y004097D01*
X021361Y004115D01*
X021355Y004133D01*
X021353Y004153D01*
X018874Y004013D02*
X018774Y003913D01*
X015074Y003913D01*
X014974Y004013D01*
X014924Y005163D01*
X015054Y004153D02*
X015056Y004173D01*
X015062Y004191D01*
X015071Y004209D01*
X015083Y004224D01*
X015098Y004236D01*
X015116Y004245D01*
X015134Y004251D01*
X015154Y004253D01*
X015174Y004251D01*
X015192Y004245D01*
X015210Y004236D01*
X015225Y004224D01*
X015237Y004209D01*
X015246Y004191D01*
X015252Y004173D01*
X015254Y004153D01*
X015252Y004133D01*
X015246Y004115D01*
X015237Y004097D01*
X015225Y004082D01*
X015210Y004070D01*
X015192Y004061D01*
X015174Y004055D01*
X015154Y004053D01*
X015134Y004055D01*
X015116Y004061D01*
X015098Y004070D01*
X015083Y004082D01*
X015071Y004097D01*
X015062Y004115D01*
X015056Y004133D01*
X015054Y004153D01*
X012574Y004013D02*
X012474Y003913D01*
X008774Y003913D01*
X008674Y004013D01*
X008624Y005163D01*
X008754Y004153D02*
X008756Y004173D01*
X008762Y004191D01*
X008771Y004209D01*
X008783Y004224D01*
X008798Y004236D01*
X008816Y004245D01*
X008834Y004251D01*
X008854Y004253D01*
X008874Y004251D01*
X008892Y004245D01*
X008910Y004236D01*
X008925Y004224D01*
X008937Y004209D01*
X008946Y004191D01*
X008952Y004173D01*
X008954Y004153D01*
X008952Y004133D01*
X008946Y004115D01*
X008937Y004097D01*
X008925Y004082D01*
X008910Y004070D01*
X008892Y004061D01*
X008874Y004055D01*
X008854Y004053D01*
X008834Y004055D01*
X008816Y004061D01*
X008798Y004070D01*
X008783Y004082D01*
X008771Y004097D01*
X008762Y004115D01*
X008756Y004133D01*
X008754Y004153D01*
X006275Y004013D02*
X006175Y003913D01*
X002475Y003913D01*
X002375Y004013D01*
X002325Y005163D01*
X002455Y004153D02*
X002457Y004173D01*
X002463Y004191D01*
X002472Y004209D01*
X002484Y004224D01*
X002499Y004236D01*
X002517Y004245D01*
X002535Y004251D01*
X002555Y004253D01*
X002575Y004251D01*
X002593Y004245D01*
X002611Y004236D01*
X002626Y004224D01*
X002638Y004209D01*
X002647Y004191D01*
X002653Y004173D01*
X002655Y004153D01*
X002653Y004133D01*
X002647Y004115D01*
X002638Y004097D01*
X002626Y004082D01*
X002611Y004070D01*
X002593Y004061D01*
X002575Y004055D01*
X002555Y004053D01*
X002535Y004055D01*
X002517Y004061D01*
X002499Y004070D01*
X002484Y004082D01*
X002472Y004097D01*
X002463Y004115D01*
X002457Y004133D01*
X002455Y004153D01*
X006275Y004013D02*
X006325Y005163D01*
X005603Y010250D02*
X005605Y010264D01*
X005611Y010278D01*
X005619Y010290D01*
X005631Y010298D01*
X005645Y010304D01*
X005659Y010306D01*
X005673Y010304D01*
X005687Y010298D01*
X005699Y010290D01*
X005707Y010278D01*
X005713Y010264D01*
X005715Y010250D01*
X005713Y010236D01*
X005707Y010222D01*
X005699Y010210D01*
X005687Y010202D01*
X005673Y010196D01*
X005659Y010194D01*
X005645Y010196D01*
X005631Y010202D01*
X005619Y010210D01*
X005611Y010222D01*
X005605Y010236D01*
X005603Y010250D01*
X002754Y013180D02*
X002756Y013194D01*
X002762Y013208D01*
X002770Y013220D01*
X002782Y013228D01*
X002796Y013234D01*
X002810Y013236D01*
X002824Y013234D01*
X002838Y013228D01*
X002850Y013220D01*
X002858Y013208D01*
X002864Y013194D01*
X002866Y013180D01*
X002864Y013166D01*
X002858Y013152D01*
X002850Y013140D01*
X002838Y013132D01*
X002824Y013126D01*
X002810Y013124D01*
X002796Y013126D01*
X002782Y013132D01*
X002770Y013140D01*
X002762Y013152D01*
X002756Y013166D01*
X002754Y013180D01*
X009053Y013180D02*
X009055Y013194D01*
X009061Y013208D01*
X009069Y013220D01*
X009081Y013228D01*
X009095Y013234D01*
X009109Y013236D01*
X009123Y013234D01*
X009137Y013228D01*
X009149Y013220D01*
X009157Y013208D01*
X009163Y013194D01*
X009165Y013180D01*
X009163Y013166D01*
X009157Y013152D01*
X009149Y013140D01*
X009137Y013132D01*
X009123Y013126D01*
X009109Y013124D01*
X009095Y013126D01*
X009081Y013132D01*
X009069Y013140D01*
X009061Y013152D01*
X009055Y013166D01*
X009053Y013180D01*
X011902Y010250D02*
X011904Y010264D01*
X011910Y010278D01*
X011918Y010290D01*
X011930Y010298D01*
X011944Y010304D01*
X011958Y010306D01*
X011972Y010304D01*
X011986Y010298D01*
X011998Y010290D01*
X012006Y010278D01*
X012012Y010264D01*
X012014Y010250D01*
X012012Y010236D01*
X012006Y010222D01*
X011998Y010210D01*
X011986Y010202D01*
X011972Y010196D01*
X011958Y010194D01*
X011944Y010196D01*
X011930Y010202D01*
X011918Y010210D01*
X011910Y010222D01*
X011904Y010236D01*
X011902Y010250D01*
X015353Y013180D02*
X015355Y013194D01*
X015361Y013208D01*
X015369Y013220D01*
X015381Y013228D01*
X015395Y013234D01*
X015409Y013236D01*
X015423Y013234D01*
X015437Y013228D01*
X015449Y013220D01*
X015457Y013208D01*
X015463Y013194D01*
X015465Y013180D01*
X015463Y013166D01*
X015457Y013152D01*
X015449Y013140D01*
X015437Y013132D01*
X015423Y013126D01*
X015409Y013124D01*
X015395Y013126D01*
X015381Y013132D01*
X015369Y013140D01*
X015361Y013152D01*
X015355Y013166D01*
X015353Y013180D01*
X018202Y010250D02*
X018204Y010264D01*
X018210Y010278D01*
X018218Y010290D01*
X018230Y010298D01*
X018244Y010304D01*
X018258Y010306D01*
X018272Y010304D01*
X018286Y010298D01*
X018298Y010290D01*
X018306Y010278D01*
X018312Y010264D01*
X018314Y010250D01*
X018312Y010236D01*
X018306Y010222D01*
X018298Y010210D01*
X018286Y010202D01*
X018272Y010196D01*
X018258Y010194D01*
X018244Y010196D01*
X018230Y010202D01*
X018218Y010210D01*
X018210Y010222D01*
X018204Y010236D01*
X018202Y010250D01*
X018924Y005163D02*
X018874Y004013D01*
X012574Y004013D02*
X012624Y005163D01*
D14*
X010624Y005463D03*
X004325Y005463D03*
X016924Y005463D03*
X023223Y005463D03*
X023042Y017967D03*
X016743Y017967D03*
X010443Y017967D03*
X004144Y017967D03*
D15*
X002419Y018217D03*
X005869Y018217D03*
X008718Y018217D03*
X012168Y018217D03*
X015018Y018217D03*
X018468Y018217D03*
X021317Y018217D03*
X024767Y018217D03*
X024948Y005213D03*
X021498Y005213D03*
X018649Y005213D03*
X015199Y005213D03*
X012349Y005213D03*
X008899Y005213D03*
X006050Y005213D03*
X002600Y005213D03*
D16*
X003825Y005213D03*
X004825Y005213D03*
X010124Y005213D03*
X011124Y005213D03*
X016424Y005213D03*
X017424Y005213D03*
X022723Y005213D03*
X023723Y005213D03*
X023542Y018217D03*
X022542Y018217D03*
X017243Y018217D03*
X016243Y018217D03*
X010943Y018217D03*
X009943Y018217D03*
X004644Y018217D03*
X003644Y018217D03*
M02*
