G75*
G70*
%OFA0B0*%
%FSLAX24Y24*%
%IPPOS*%
%LPD*%
%AMOC8*
5,1,8,0,0,1.08239X$1,22.5*
%
%ADD10C,0.0000*%
%ADD11R,0.0480X0.0480*%
%ADD12C,0.0480*%
%ADD13C,0.1185*%
%ADD14R,0.0394X0.0433*%
%ADD15C,0.0600*%
%ADD16R,0.0394X0.0551*%
%ADD17R,0.0236X0.0413*%
%ADD18C,0.0240*%
%ADD19C,0.0400*%
%ADD20C,0.1000*%
%ADD21C,0.0700*%
%ADD22C,0.0376*%
D10*
X000101Y000101D02*
X000101Y022148D01*
X031087Y022148D01*
X031087Y000101D01*
X000101Y000101D01*
X000729Y001479D02*
X000731Y001533D01*
X000737Y001587D01*
X000747Y001640D01*
X000760Y001693D01*
X000777Y001744D01*
X000798Y001794D01*
X000823Y001842D01*
X000851Y001889D01*
X000882Y001933D01*
X000916Y001975D01*
X000953Y002014D01*
X000993Y002051D01*
X001036Y002084D01*
X001081Y002115D01*
X001128Y002142D01*
X001176Y002165D01*
X001227Y002185D01*
X001278Y002202D01*
X001331Y002214D01*
X001384Y002223D01*
X001438Y002228D01*
X001493Y002229D01*
X001547Y002226D01*
X001600Y002219D01*
X001653Y002208D01*
X001706Y002194D01*
X001757Y002176D01*
X001806Y002154D01*
X001854Y002129D01*
X001900Y002100D01*
X001944Y002068D01*
X001985Y002033D01*
X002023Y001995D01*
X002059Y001954D01*
X002092Y001911D01*
X002122Y001866D01*
X002148Y001818D01*
X002171Y001769D01*
X002190Y001718D01*
X002205Y001667D01*
X002217Y001614D01*
X002225Y001560D01*
X002229Y001506D01*
X002229Y001452D01*
X002225Y001398D01*
X002217Y001344D01*
X002205Y001291D01*
X002190Y001240D01*
X002171Y001189D01*
X002148Y001140D01*
X002122Y001092D01*
X002092Y001047D01*
X002059Y001004D01*
X002023Y000963D01*
X001985Y000925D01*
X001944Y000890D01*
X001900Y000858D01*
X001854Y000829D01*
X001806Y000804D01*
X001757Y000782D01*
X001706Y000764D01*
X001653Y000750D01*
X001600Y000739D01*
X001547Y000732D01*
X001493Y000729D01*
X001438Y000730D01*
X001384Y000735D01*
X001331Y000744D01*
X001278Y000756D01*
X001227Y000773D01*
X001176Y000793D01*
X001128Y000816D01*
X001081Y000843D01*
X001036Y000874D01*
X000993Y000907D01*
X000953Y000944D01*
X000916Y000983D01*
X000882Y001025D01*
X000851Y001069D01*
X000823Y001116D01*
X000798Y001164D01*
X000777Y001214D01*
X000760Y001265D01*
X000747Y001318D01*
X000737Y001371D01*
X000731Y001425D01*
X000729Y001479D01*
X000729Y020770D02*
X000731Y020824D01*
X000737Y020878D01*
X000747Y020931D01*
X000760Y020984D01*
X000777Y021035D01*
X000798Y021085D01*
X000823Y021133D01*
X000851Y021180D01*
X000882Y021224D01*
X000916Y021266D01*
X000953Y021305D01*
X000993Y021342D01*
X001036Y021375D01*
X001081Y021406D01*
X001128Y021433D01*
X001176Y021456D01*
X001227Y021476D01*
X001278Y021493D01*
X001331Y021505D01*
X001384Y021514D01*
X001438Y021519D01*
X001493Y021520D01*
X001547Y021517D01*
X001600Y021510D01*
X001653Y021499D01*
X001706Y021485D01*
X001757Y021467D01*
X001806Y021445D01*
X001854Y021420D01*
X001900Y021391D01*
X001944Y021359D01*
X001985Y021324D01*
X002023Y021286D01*
X002059Y021245D01*
X002092Y021202D01*
X002122Y021157D01*
X002148Y021109D01*
X002171Y021060D01*
X002190Y021009D01*
X002205Y020958D01*
X002217Y020905D01*
X002225Y020851D01*
X002229Y020797D01*
X002229Y020743D01*
X002225Y020689D01*
X002217Y020635D01*
X002205Y020582D01*
X002190Y020531D01*
X002171Y020480D01*
X002148Y020431D01*
X002122Y020383D01*
X002092Y020338D01*
X002059Y020295D01*
X002023Y020254D01*
X001985Y020216D01*
X001944Y020181D01*
X001900Y020149D01*
X001854Y020120D01*
X001806Y020095D01*
X001757Y020073D01*
X001706Y020055D01*
X001653Y020041D01*
X001600Y020030D01*
X001547Y020023D01*
X001493Y020020D01*
X001438Y020021D01*
X001384Y020026D01*
X001331Y020035D01*
X001278Y020047D01*
X001227Y020064D01*
X001176Y020084D01*
X001128Y020107D01*
X001081Y020134D01*
X001036Y020165D01*
X000993Y020198D01*
X000953Y020235D01*
X000916Y020274D01*
X000882Y020316D01*
X000851Y020360D01*
X000823Y020407D01*
X000798Y020455D01*
X000777Y020505D01*
X000760Y020556D01*
X000747Y020609D01*
X000737Y020662D01*
X000731Y020716D01*
X000729Y020770D01*
X028878Y020770D02*
X028880Y020824D01*
X028886Y020878D01*
X028896Y020931D01*
X028909Y020984D01*
X028926Y021035D01*
X028947Y021085D01*
X028972Y021133D01*
X029000Y021180D01*
X029031Y021224D01*
X029065Y021266D01*
X029102Y021305D01*
X029142Y021342D01*
X029185Y021375D01*
X029230Y021406D01*
X029277Y021433D01*
X029325Y021456D01*
X029376Y021476D01*
X029427Y021493D01*
X029480Y021505D01*
X029533Y021514D01*
X029587Y021519D01*
X029642Y021520D01*
X029696Y021517D01*
X029749Y021510D01*
X029802Y021499D01*
X029855Y021485D01*
X029906Y021467D01*
X029955Y021445D01*
X030003Y021420D01*
X030049Y021391D01*
X030093Y021359D01*
X030134Y021324D01*
X030172Y021286D01*
X030208Y021245D01*
X030241Y021202D01*
X030271Y021157D01*
X030297Y021109D01*
X030320Y021060D01*
X030339Y021009D01*
X030354Y020958D01*
X030366Y020905D01*
X030374Y020851D01*
X030378Y020797D01*
X030378Y020743D01*
X030374Y020689D01*
X030366Y020635D01*
X030354Y020582D01*
X030339Y020531D01*
X030320Y020480D01*
X030297Y020431D01*
X030271Y020383D01*
X030241Y020338D01*
X030208Y020295D01*
X030172Y020254D01*
X030134Y020216D01*
X030093Y020181D01*
X030049Y020149D01*
X030003Y020120D01*
X029955Y020095D01*
X029906Y020073D01*
X029855Y020055D01*
X029802Y020041D01*
X029749Y020030D01*
X029696Y020023D01*
X029642Y020020D01*
X029587Y020021D01*
X029533Y020026D01*
X029480Y020035D01*
X029427Y020047D01*
X029376Y020064D01*
X029325Y020084D01*
X029277Y020107D01*
X029230Y020134D01*
X029185Y020165D01*
X029142Y020198D01*
X029102Y020235D01*
X029065Y020274D01*
X029031Y020316D01*
X029000Y020360D01*
X028972Y020407D01*
X028947Y020455D01*
X028926Y020505D01*
X028909Y020556D01*
X028896Y020609D01*
X028886Y020662D01*
X028880Y020716D01*
X028878Y020770D01*
X028878Y001479D02*
X028880Y001533D01*
X028886Y001587D01*
X028896Y001640D01*
X028909Y001693D01*
X028926Y001744D01*
X028947Y001794D01*
X028972Y001842D01*
X029000Y001889D01*
X029031Y001933D01*
X029065Y001975D01*
X029102Y002014D01*
X029142Y002051D01*
X029185Y002084D01*
X029230Y002115D01*
X029277Y002142D01*
X029325Y002165D01*
X029376Y002185D01*
X029427Y002202D01*
X029480Y002214D01*
X029533Y002223D01*
X029587Y002228D01*
X029642Y002229D01*
X029696Y002226D01*
X029749Y002219D01*
X029802Y002208D01*
X029855Y002194D01*
X029906Y002176D01*
X029955Y002154D01*
X030003Y002129D01*
X030049Y002100D01*
X030093Y002068D01*
X030134Y002033D01*
X030172Y001995D01*
X030208Y001954D01*
X030241Y001911D01*
X030271Y001866D01*
X030297Y001818D01*
X030320Y001769D01*
X030339Y001718D01*
X030354Y001667D01*
X030366Y001614D01*
X030374Y001560D01*
X030378Y001506D01*
X030378Y001452D01*
X030374Y001398D01*
X030366Y001344D01*
X030354Y001291D01*
X030339Y001240D01*
X030320Y001189D01*
X030297Y001140D01*
X030271Y001092D01*
X030241Y001047D01*
X030208Y001004D01*
X030172Y000963D01*
X030134Y000925D01*
X030093Y000890D01*
X030049Y000858D01*
X030003Y000829D01*
X029955Y000804D01*
X029906Y000782D01*
X029855Y000764D01*
X029802Y000750D01*
X029749Y000739D01*
X029696Y000732D01*
X029642Y000729D01*
X029587Y000730D01*
X029533Y000735D01*
X029480Y000744D01*
X029427Y000756D01*
X029376Y000773D01*
X029325Y000793D01*
X029277Y000816D01*
X029230Y000843D01*
X029185Y000874D01*
X029142Y000907D01*
X029102Y000944D01*
X029065Y000983D01*
X029031Y001025D01*
X029000Y001069D01*
X028972Y001116D01*
X028947Y001164D01*
X028926Y001214D01*
X028909Y001265D01*
X028896Y001318D01*
X028886Y001371D01*
X028880Y001425D01*
X028878Y001479D01*
D11*
X028089Y005613D03*
D12*
X028089Y006991D03*
X028089Y008369D03*
X028089Y009746D03*
X028089Y011124D03*
X028089Y012502D03*
X028089Y013880D03*
X028089Y015258D03*
X028089Y016636D03*
D13*
X026872Y020178D02*
X026872Y021363D01*
X005024Y021361D02*
X003839Y021361D01*
X026872Y002071D02*
X026872Y000886D01*
X005024Y001282D02*
X003839Y001282D01*
D14*
X003991Y006113D03*
X004660Y006113D03*
X004660Y007363D03*
X003991Y007363D03*
X003991Y008613D03*
X004660Y008613D03*
X005991Y007363D03*
X006660Y007363D03*
X006660Y006113D03*
X005991Y006113D03*
X006650Y009528D03*
X006650Y010197D03*
X008290Y010613D03*
X008959Y010613D03*
X009790Y010613D03*
X010459Y010613D03*
X010290Y008613D03*
X010959Y008613D03*
X010959Y007363D03*
X010290Y007363D03*
X010290Y006113D03*
X010959Y006113D03*
X012290Y006113D03*
X012959Y006113D03*
X012959Y007363D03*
X012290Y007363D03*
X012949Y009528D03*
X012949Y010197D03*
X014589Y010613D03*
X015258Y010613D03*
X016089Y010613D03*
X016758Y010613D03*
X016589Y008613D03*
X017258Y008613D03*
X017258Y007363D03*
X016589Y007363D03*
X016589Y006113D03*
X017258Y006113D03*
X018589Y006113D03*
X019258Y006113D03*
X019258Y007363D03*
X018589Y007363D03*
X019249Y009528D03*
X019249Y010197D03*
X020888Y010613D03*
X021557Y010613D03*
X022388Y010613D03*
X023057Y010613D03*
X022888Y008613D03*
X023557Y008613D03*
X023557Y007363D03*
X022888Y007363D03*
X022888Y006113D03*
X023557Y006113D03*
X024888Y006113D03*
X025557Y006113D03*
X025557Y007363D03*
X024888Y007363D03*
X025548Y009528D03*
X025548Y010197D03*
X025376Y012817D03*
X024707Y012817D03*
X023876Y012817D03*
X023207Y012817D03*
X023376Y014817D03*
X022707Y014817D03*
X022707Y016067D03*
X023376Y016067D03*
X023376Y017317D03*
X022707Y017317D03*
X021376Y017317D03*
X020707Y017317D03*
X020707Y016067D03*
X021376Y016067D03*
X020717Y013902D03*
X020717Y013233D03*
X019077Y012817D03*
X018408Y012817D03*
X017577Y012817D03*
X016908Y012817D03*
X017077Y014817D03*
X016408Y014817D03*
X016408Y016067D03*
X017077Y016067D03*
X017077Y017317D03*
X016408Y017317D03*
X015077Y017317D03*
X014408Y017317D03*
X014408Y016067D03*
X015077Y016067D03*
X014418Y013902D03*
X014418Y013233D03*
X012778Y012817D03*
X012109Y012817D03*
X011278Y012817D03*
X010609Y012817D03*
X010778Y014817D03*
X010109Y014817D03*
X010109Y016067D03*
X010778Y016067D03*
X010778Y017317D03*
X010109Y017317D03*
X008778Y017317D03*
X008109Y017317D03*
X008109Y016067D03*
X008778Y016067D03*
X008118Y013902D03*
X008118Y013233D03*
X006479Y012817D03*
X005809Y012817D03*
X004979Y012817D03*
X004309Y012817D03*
X004479Y014817D03*
X003809Y014817D03*
X003809Y016067D03*
X004479Y016067D03*
X004479Y017317D03*
X003809Y017317D03*
X002479Y017317D03*
X001809Y017317D03*
X001809Y016067D03*
X002479Y016067D03*
X001819Y013902D03*
X001819Y013233D03*
X001991Y010613D03*
X002660Y010613D03*
X003491Y010613D03*
X004160Y010613D03*
D15*
X004325Y004913D02*
X004325Y004313D01*
X003325Y004313D02*
X003325Y004913D01*
X005325Y004913D02*
X005325Y004313D01*
X009624Y004313D02*
X009624Y004913D01*
X010624Y004913D02*
X010624Y004313D01*
X011624Y004313D02*
X011624Y004913D01*
X015924Y004913D02*
X015924Y004313D01*
X016924Y004313D02*
X016924Y004913D01*
X017924Y004913D02*
X017924Y004313D01*
X022223Y004313D02*
X022223Y004913D01*
X023223Y004913D02*
X023223Y004313D01*
X024223Y004313D02*
X024223Y004913D01*
X024042Y018517D02*
X024042Y019117D01*
X023042Y019117D02*
X023042Y018517D01*
X022042Y018517D02*
X022042Y019117D01*
X017743Y019117D02*
X017743Y018517D01*
X016743Y018517D02*
X016743Y019117D01*
X015743Y019117D02*
X015743Y018517D01*
X011443Y018517D02*
X011443Y019117D01*
X010443Y019117D02*
X010443Y018517D01*
X009443Y018517D02*
X009443Y019117D01*
X005144Y019117D02*
X005144Y018517D01*
X004144Y018517D02*
X004144Y019117D01*
X003144Y019117D02*
X003144Y018517D01*
D16*
X006144Y016250D03*
X005770Y015384D03*
X006518Y015384D03*
X012069Y015384D03*
X012817Y015384D03*
X012443Y016250D03*
X018369Y015384D03*
X019117Y015384D03*
X018743Y016250D03*
X024668Y015384D03*
X025416Y015384D03*
X025042Y016250D03*
X021597Y008046D03*
X020849Y008046D03*
X021223Y007180D03*
X015298Y008046D03*
X014550Y008046D03*
X014924Y007180D03*
X008998Y008046D03*
X008250Y008046D03*
X008624Y007180D03*
X002699Y008046D03*
X001951Y008046D03*
X002325Y007180D03*
D17*
X004911Y009541D03*
X005659Y009541D03*
X005659Y010604D03*
X005285Y010604D03*
X004911Y010604D03*
X003558Y012826D03*
X003184Y012826D03*
X002810Y012826D03*
X002810Y013889D03*
X003558Y013889D03*
X009109Y013889D03*
X009857Y013889D03*
X009857Y012826D03*
X009483Y012826D03*
X009109Y012826D03*
X011210Y010604D03*
X011584Y010604D03*
X011958Y010604D03*
X011958Y009541D03*
X011210Y009541D03*
X015409Y012826D03*
X015783Y012826D03*
X016157Y012826D03*
X016157Y013889D03*
X015409Y013889D03*
X017510Y010604D03*
X017884Y010604D03*
X018258Y010604D03*
X018258Y009541D03*
X017510Y009541D03*
X021708Y012826D03*
X022082Y012826D03*
X022456Y012826D03*
X022456Y013889D03*
X021708Y013889D03*
X023809Y010604D03*
X024183Y010604D03*
X024557Y010604D03*
X024557Y009541D03*
X023809Y009541D03*
D18*
X023557Y009290D01*
X023557Y008613D01*
X023557Y007363D01*
X024888Y007363D01*
X025548Y007372D02*
X025548Y009528D01*
X025535Y009541D01*
X024557Y009541D01*
X025523Y010222D02*
X025523Y010713D01*
X025073Y011163D01*
X020973Y011163D01*
X020888Y011078D01*
X020888Y010613D01*
X020888Y009478D01*
X020873Y009463D01*
X020873Y008070D01*
X020849Y008046D01*
X021597Y008046D02*
X021597Y010573D01*
X021557Y010613D01*
X022388Y010613D01*
X023057Y010613D02*
X023800Y010613D01*
X023809Y010604D01*
X022373Y009413D02*
X022373Y009128D01*
X022888Y008613D01*
X022888Y007363D01*
X022888Y006113D01*
X023557Y006113D02*
X023557Y007363D01*
X024223Y006113D02*
X024888Y006113D01*
X025557Y006113D02*
X025557Y007363D01*
X025548Y007372D01*
X025548Y010197D02*
X025523Y010222D01*
X025292Y012267D02*
X025376Y012352D01*
X025376Y012817D01*
X025376Y013952D01*
X025392Y013967D01*
X025392Y015360D01*
X025416Y015384D01*
X024668Y015384D02*
X024668Y012857D01*
X024707Y012817D01*
X023876Y012817D01*
X023207Y012817D02*
X022464Y012817D01*
X022456Y012826D01*
X021192Y012267D02*
X025292Y012267D01*
X025376Y012702D02*
X025376Y012817D01*
X023892Y014017D02*
X023892Y014302D01*
X023376Y014817D01*
X023376Y016067D01*
X023376Y017317D01*
X022707Y017317D02*
X022707Y016067D01*
X021376Y016067D01*
X020717Y016058D02*
X020717Y013902D01*
X020730Y013889D01*
X021708Y013889D01*
X022456Y013889D02*
X022707Y014140D01*
X022707Y014817D01*
X022707Y016067D01*
X022042Y017317D02*
X021376Y017317D01*
X020707Y017317D02*
X020707Y016067D01*
X020717Y016058D01*
X019117Y015384D02*
X019093Y015360D01*
X019093Y013967D01*
X019077Y013952D01*
X019077Y012817D01*
X019077Y012352D01*
X018993Y012267D01*
X014893Y012267D01*
X014443Y012717D01*
X014443Y013208D01*
X014418Y013233D01*
X014431Y013889D02*
X015409Y013889D01*
X016157Y013889D02*
X016408Y014140D01*
X016408Y014817D01*
X016408Y016067D01*
X015077Y016067D01*
X014418Y016058D02*
X014418Y013902D01*
X014431Y013889D01*
X012793Y013967D02*
X012793Y015360D01*
X012817Y015384D01*
X012069Y015384D02*
X012069Y012857D01*
X012109Y012817D01*
X011278Y012817D01*
X010609Y012817D02*
X009866Y012817D01*
X009857Y012826D01*
X008593Y012267D02*
X012693Y012267D01*
X012778Y012352D01*
X012778Y012817D01*
X012778Y013952D01*
X012793Y013967D01*
X012778Y012817D02*
X012778Y012702D01*
X011293Y014017D02*
X011293Y014302D01*
X010778Y014817D01*
X010778Y016067D01*
X010778Y017317D01*
X010109Y017317D02*
X010109Y016067D01*
X008778Y016067D01*
X008118Y016058D02*
X008118Y013902D01*
X008131Y013889D01*
X009109Y013889D01*
X009857Y013889D02*
X010109Y014140D01*
X010109Y014817D01*
X010109Y016067D01*
X009443Y017317D02*
X008778Y017317D01*
X008109Y017317D02*
X008109Y016067D01*
X008118Y016058D01*
X006518Y015384D02*
X006494Y015360D01*
X006494Y013967D01*
X006479Y013952D01*
X006479Y012817D01*
X006479Y012352D01*
X006394Y012267D01*
X002294Y012267D01*
X001844Y012717D01*
X001844Y013208D01*
X001819Y013233D01*
X001832Y013889D02*
X002810Y013889D01*
X001832Y013889D02*
X001819Y013902D01*
X001819Y016058D01*
X001809Y016067D01*
X001809Y017317D01*
X002479Y017317D02*
X003144Y017317D01*
X003809Y017317D02*
X003809Y016067D01*
X002479Y016067D01*
X003809Y016067D02*
X003809Y014817D01*
X003809Y014140D01*
X003558Y013889D01*
X004479Y014817D02*
X004994Y014302D01*
X004994Y014017D01*
X004479Y014817D02*
X004479Y016067D01*
X004479Y017317D01*
X005344Y017317D02*
X006144Y017317D01*
X005770Y015384D02*
X005770Y012857D01*
X005809Y012817D01*
X004979Y012817D01*
X004309Y012817D02*
X003567Y012817D01*
X003558Y012826D01*
X002075Y011163D02*
X001991Y011078D01*
X001991Y010613D01*
X001991Y009478D01*
X001975Y009463D01*
X001975Y008070D01*
X001951Y008046D01*
X002699Y008046D02*
X002699Y010573D01*
X002660Y010613D01*
X003491Y010613D01*
X004160Y010613D02*
X004903Y010613D01*
X004911Y010604D01*
X004911Y009541D02*
X004660Y009290D01*
X004660Y008613D01*
X004660Y007363D01*
X005991Y007363D01*
X006650Y007372D02*
X006650Y009528D01*
X006637Y009541D01*
X005659Y009541D01*
X006625Y010222D02*
X006625Y010713D01*
X006175Y011163D01*
X002075Y011163D01*
X001991Y010728D02*
X001991Y010613D01*
X003475Y009413D02*
X003475Y009128D01*
X003991Y008613D01*
X003991Y007363D01*
X003991Y006113D01*
X004660Y006113D02*
X004660Y007363D01*
X005325Y006113D02*
X005991Y006113D01*
X006660Y006113D02*
X006660Y007363D01*
X006650Y007372D01*
X008250Y008046D02*
X008274Y008070D01*
X008274Y009463D01*
X008290Y009478D01*
X008290Y010613D01*
X008290Y011078D01*
X008374Y011163D01*
X012474Y011163D01*
X012924Y010713D01*
X012924Y010222D01*
X012949Y010197D01*
X012936Y009541D02*
X011958Y009541D01*
X011210Y009541D02*
X010959Y009290D01*
X010959Y008613D01*
X010959Y007363D01*
X012290Y007363D01*
X012949Y007372D02*
X012949Y009528D01*
X012936Y009541D01*
X014574Y009463D02*
X014574Y008070D01*
X014550Y008046D01*
X015298Y008046D02*
X015298Y010573D01*
X015258Y010613D01*
X016089Y010613D01*
X016758Y010613D02*
X017501Y010613D01*
X017510Y010604D01*
X017510Y009541D02*
X017258Y009290D01*
X017258Y008613D01*
X017258Y007363D01*
X018589Y007363D01*
X019249Y007372D02*
X019249Y009528D01*
X019235Y009541D01*
X018258Y009541D01*
X019224Y010222D02*
X019224Y010713D01*
X018774Y011163D01*
X014674Y011163D01*
X014589Y011078D01*
X014589Y010613D01*
X014589Y009478D01*
X014574Y009463D01*
X014589Y010613D02*
X014589Y010728D01*
X016074Y009413D02*
X016074Y009128D01*
X016589Y008613D01*
X016589Y007363D01*
X016589Y006113D01*
X017258Y006113D02*
X017258Y007363D01*
X017924Y006113D02*
X018589Y006113D01*
X019258Y006113D02*
X019258Y007363D01*
X019249Y007372D01*
X021223Y006113D02*
X022023Y006113D01*
X019249Y010197D02*
X019224Y010222D01*
X020888Y010613D02*
X020888Y010728D01*
X021192Y012267D02*
X020742Y012717D01*
X020742Y013208D01*
X020717Y013233D01*
X019077Y012817D02*
X019077Y012702D01*
X018408Y012817D02*
X018369Y012857D01*
X018369Y015384D01*
X017593Y014302D02*
X017593Y014017D01*
X017593Y014302D02*
X017077Y014817D01*
X017077Y016067D01*
X017077Y017317D01*
X016408Y017317D02*
X016408Y016067D01*
X015743Y017317D02*
X015077Y017317D01*
X014408Y017317D02*
X014408Y016067D01*
X014418Y016058D01*
X012443Y017317D02*
X011643Y017317D01*
X008118Y013233D02*
X008143Y013208D01*
X008143Y012717D01*
X008593Y012267D01*
X008290Y010728D02*
X008290Y010613D01*
X008959Y010613D02*
X008998Y010573D01*
X008998Y008046D01*
X009774Y009128D02*
X009774Y009413D01*
X009774Y009128D02*
X010290Y008613D01*
X010290Y007363D01*
X010290Y006113D01*
X010959Y006113D02*
X010959Y007363D01*
X011624Y006113D02*
X012290Y006113D01*
X012959Y006113D02*
X012959Y007363D01*
X012949Y007372D01*
X014924Y006113D02*
X015724Y006113D01*
X011210Y010604D02*
X011202Y010613D01*
X010459Y010613D01*
X009790Y010613D02*
X008959Y010613D01*
X006650Y010197D02*
X006625Y010222D01*
X006479Y012702D02*
X006479Y012817D01*
X008624Y006113D02*
X009424Y006113D01*
X003125Y006113D02*
X002325Y006113D01*
X016157Y012826D02*
X016165Y012817D01*
X016908Y012817D01*
X017577Y012817D02*
X018408Y012817D01*
X018743Y017317D02*
X017943Y017317D01*
X024242Y017317D02*
X025042Y017317D01*
D19*
X025042Y017817D01*
X024042Y018817D01*
X023376Y018483D02*
X023376Y017317D01*
X023376Y018483D02*
X023042Y018817D01*
X022042Y018817D02*
X021042Y018817D01*
X020707Y018483D01*
X020707Y017317D01*
X018743Y017317D02*
X018743Y016250D01*
X018743Y017317D02*
X018743Y017817D01*
X017743Y018817D01*
X017077Y018483D02*
X017077Y017317D01*
X017077Y018483D02*
X016743Y018817D01*
X015743Y018817D02*
X014743Y018817D01*
X014408Y018483D01*
X014408Y017317D01*
X012443Y017317D02*
X012443Y016250D01*
X012443Y017317D02*
X012443Y017817D01*
X011443Y018817D01*
X010778Y018483D02*
X010778Y017317D01*
X010778Y018483D02*
X010443Y018817D01*
X009443Y018817D02*
X008443Y018817D01*
X008109Y018483D01*
X008109Y017317D01*
X006144Y017317D02*
X006144Y016250D01*
X006144Y017317D02*
X006144Y017817D01*
X005144Y018817D01*
X004479Y018483D02*
X004479Y017317D01*
X004479Y018483D02*
X004144Y018817D01*
X003144Y018817D02*
X002144Y018817D01*
X001809Y018483D01*
X001809Y017317D01*
X002325Y007180D02*
X002325Y006113D01*
X002325Y005613D01*
X003325Y004613D01*
X003991Y004947D02*
X003991Y006113D01*
X003991Y004947D02*
X004325Y004613D01*
X005325Y004613D02*
X006325Y004613D01*
X006660Y004947D01*
X006660Y006113D01*
X008624Y006113D02*
X008624Y005613D01*
X009624Y004613D01*
X010290Y004947D02*
X010290Y006113D01*
X010290Y004947D02*
X010624Y004613D01*
X011624Y004613D02*
X012624Y004613D01*
X012959Y004947D01*
X012959Y006113D01*
X014924Y006113D02*
X014924Y005613D01*
X015924Y004613D01*
X016589Y004947D02*
X016589Y006113D01*
X016589Y004947D02*
X016924Y004613D01*
X017924Y004613D02*
X018924Y004613D01*
X019258Y004947D01*
X019258Y006113D01*
X021223Y006113D02*
X021223Y005613D01*
X022223Y004613D01*
X022888Y004947D02*
X022888Y006113D01*
X022888Y004947D02*
X023223Y004613D01*
X024223Y004613D02*
X025223Y004613D01*
X025557Y004947D01*
X025557Y006113D01*
X021223Y006113D02*
X021223Y007180D01*
X014924Y007180D02*
X014924Y006113D01*
X008624Y006113D02*
X008624Y007180D01*
X025042Y016250D02*
X025042Y017317D01*
D20*
X026872Y017853D02*
X028089Y016636D01*
X026872Y017853D02*
X026872Y020770D01*
X026282Y021361D01*
X004431Y021361D01*
X026872Y004396D02*
X028089Y005613D01*
X026872Y004396D02*
X026872Y001479D01*
X026676Y001282D01*
X004431Y001282D01*
D21*
X006203Y003250D02*
X005325Y004128D01*
X005325Y004613D01*
X006203Y003250D02*
X009746Y003250D01*
X010624Y004128D01*
X010624Y004613D01*
X011624Y004613D02*
X012987Y003250D01*
X016243Y003250D01*
X016924Y003735D01*
X016924Y004613D01*
X017924Y004613D02*
X019680Y003250D01*
X022935Y003250D01*
X023223Y003538D01*
X023223Y004613D01*
X024223Y004613D02*
X027089Y004613D01*
X028089Y005613D01*
X028089Y016636D02*
X024743Y019983D01*
X023329Y019983D01*
X023042Y019695D01*
X023042Y018817D01*
X022042Y018817D02*
X020876Y019983D01*
X017227Y019983D01*
X016743Y019498D01*
X016743Y018817D01*
X015743Y018817D02*
X014577Y019983D01*
X010928Y019983D01*
X010443Y019498D01*
X010443Y018817D01*
X009443Y018817D02*
X008278Y019983D01*
X004628Y019983D01*
X004144Y019498D01*
X004144Y018817D01*
D22*
X003144Y017317D03*
X005344Y017317D03*
X009443Y017317D03*
X011643Y017317D03*
X015743Y017317D03*
X017943Y017317D03*
X017593Y014017D03*
X019093Y013967D03*
X022042Y017317D03*
X024242Y017317D03*
X023892Y014017D03*
X025392Y013967D03*
X022373Y009413D03*
X020873Y009463D03*
X022023Y006113D03*
X024223Y006113D03*
X017924Y006113D03*
X015724Y006113D03*
X016074Y009413D03*
X014574Y009463D03*
X011624Y006113D03*
X009424Y006113D03*
X009774Y009413D03*
X008274Y009463D03*
X005325Y006113D03*
X003125Y006113D03*
X003475Y009413D03*
X001975Y009463D03*
X004994Y014017D03*
X006494Y013967D03*
X011293Y014017D03*
X012793Y013967D03*
M02*
