G75*
G70*
%OFA0B0*%
%FSLAX24Y24*%
%IPPOS*%
%LPD*%
%AMOC8*
5,1,8,0,0,1.08239X$1,22.5*
%
%ADD10C,0.1580*%
%ADD11R,0.0474X0.0513*%
%ADD12C,0.0680*%
%ADD13R,0.0474X0.0631*%
%ADD14R,0.0316X0.0493*%
%ADD15R,0.0560X0.0560*%
%ADD16C,0.0560*%
%ADD17C,0.1265*%
%ADD18C,0.0580*%
%ADD19C,0.1080*%
D10*
X001479Y001479D03*
X001479Y020770D03*
X032384Y020770D03*
X032384Y001479D03*
D11*
X028435Y007101D03*
X027766Y007101D03*
X027766Y008101D03*
X028435Y008101D03*
X026935Y008101D03*
X026266Y008101D03*
X026435Y010601D03*
X025766Y010601D03*
X024435Y010601D03*
X023766Y010601D03*
X025766Y012601D03*
X026435Y012601D03*
X027766Y012601D03*
X028435Y012601D03*
X025935Y015101D03*
X025266Y015101D03*
X024435Y015101D03*
X023766Y015101D03*
X023766Y016101D03*
X024435Y016101D03*
X021435Y012601D03*
X020766Y012601D03*
X019435Y012601D03*
X018766Y012601D03*
X018766Y010601D03*
X019435Y010601D03*
X017435Y010601D03*
X016766Y010601D03*
X014435Y012601D03*
X013766Y012601D03*
X012435Y012601D03*
X011766Y012601D03*
X011766Y010601D03*
X012435Y010601D03*
X010435Y010601D03*
X009766Y010601D03*
X007435Y012601D03*
X006766Y012601D03*
X005435Y012601D03*
X004766Y012601D03*
X004766Y010601D03*
X005435Y010601D03*
X003435Y010601D03*
X002766Y010601D03*
X005141Y008101D03*
X005810Y008101D03*
X006766Y008101D03*
X007435Y008101D03*
X007435Y007101D03*
X006766Y007101D03*
X012266Y008101D03*
X012935Y008101D03*
X013766Y008101D03*
X014435Y008101D03*
X014435Y007101D03*
X013766Y007101D03*
X019266Y008101D03*
X019935Y008101D03*
X020766Y008101D03*
X021435Y008101D03*
X021435Y007101D03*
X020766Y007101D03*
X018935Y015101D03*
X018266Y015101D03*
X017435Y015101D03*
X016766Y015101D03*
X016766Y016101D03*
X017435Y016101D03*
X011935Y015101D03*
X011266Y015101D03*
X010435Y015101D03*
X009766Y015101D03*
X009766Y016101D03*
X010435Y016101D03*
X004935Y015101D03*
X004266Y015101D03*
X003435Y015101D03*
X002766Y015101D03*
X002766Y016101D03*
X003435Y016101D03*
D12*
X004101Y018301D02*
X004101Y018901D01*
X005101Y018901D02*
X005101Y018301D01*
X006101Y018301D02*
X006101Y018901D01*
X011101Y018901D02*
X011101Y018301D01*
X012101Y018301D02*
X012101Y018901D01*
X013101Y018901D02*
X013101Y018301D01*
X018101Y018301D02*
X018101Y018901D01*
X019101Y018901D02*
X019101Y018301D01*
X020101Y018301D02*
X020101Y018901D01*
X025101Y018901D02*
X025101Y018301D01*
X026101Y018301D02*
X026101Y018901D01*
X027101Y018901D02*
X027101Y018301D01*
X027101Y004901D02*
X027101Y004301D01*
X026101Y004301D02*
X026101Y004901D01*
X025101Y004901D02*
X025101Y004301D01*
X020101Y004301D02*
X020101Y004901D01*
X019101Y004901D02*
X019101Y004301D01*
X018101Y004301D02*
X018101Y004901D01*
X013101Y004901D02*
X013101Y004301D01*
X012101Y004301D02*
X012101Y004901D01*
X011101Y004901D02*
X011101Y004301D01*
X006101Y004301D02*
X006101Y004901D01*
X005101Y004901D02*
X005101Y004301D01*
X004101Y004301D02*
X004101Y004901D01*
D13*
X003101Y007168D03*
X003475Y008034D03*
X002727Y008034D03*
X009727Y008034D03*
X010475Y008034D03*
X010101Y007168D03*
X016727Y008034D03*
X017475Y008034D03*
X017101Y007168D03*
X023727Y008034D03*
X024475Y008034D03*
X024101Y007168D03*
X021475Y015168D03*
X020727Y015168D03*
X021101Y016034D03*
X027727Y015168D03*
X028475Y015168D03*
X028101Y016034D03*
X014475Y015168D03*
X013727Y015168D03*
X014101Y016034D03*
X007475Y015168D03*
X006727Y015168D03*
X007101Y016034D03*
D14*
X009727Y013632D03*
X010475Y013632D03*
X010475Y012569D03*
X010101Y012569D03*
X009727Y012569D03*
X007475Y010632D03*
X007101Y010632D03*
X006727Y010632D03*
X006727Y009569D03*
X007475Y009569D03*
X003475Y012569D03*
X003101Y012569D03*
X002727Y012569D03*
X002727Y013632D03*
X003475Y013632D03*
X013727Y010632D03*
X014101Y010632D03*
X014475Y010632D03*
X014475Y009569D03*
X013727Y009569D03*
X016727Y012569D03*
X017101Y012569D03*
X017475Y012569D03*
X017475Y013632D03*
X016727Y013632D03*
X020727Y010632D03*
X021101Y010632D03*
X021475Y010632D03*
X021475Y009569D03*
X020727Y009569D03*
X023727Y012569D03*
X024101Y012569D03*
X024475Y012569D03*
X024475Y013632D03*
X023727Y013632D03*
X027727Y010632D03*
X028101Y010632D03*
X028475Y010632D03*
X028475Y009569D03*
X027727Y009569D03*
D15*
X030845Y005613D03*
D16*
X030845Y006991D03*
X030845Y008369D03*
X030845Y009746D03*
X030845Y011124D03*
X030845Y012502D03*
X030845Y013880D03*
X030845Y015258D03*
X030845Y016636D03*
D17*
X029628Y020178D02*
X029628Y021363D01*
X005024Y021361D02*
X003839Y021361D01*
X029628Y002071D02*
X029628Y000886D01*
X005024Y001282D02*
X003839Y001282D01*
D18*
X006101Y006101D03*
X004101Y007101D03*
X004601Y008851D03*
X002726Y009226D03*
X007476Y013976D03*
X005726Y014351D03*
X006101Y016101D03*
X004101Y017101D03*
X011101Y017101D03*
X013101Y016101D03*
X012726Y014351D03*
X014476Y013976D03*
X018101Y017101D03*
X020101Y016101D03*
X019976Y014101D03*
X021476Y014101D03*
X025101Y017101D03*
X027101Y016101D03*
X026601Y013726D03*
X028476Y013726D03*
X025226Y009226D03*
X023726Y009226D03*
X025101Y007101D03*
X027101Y006101D03*
X020101Y006101D03*
X018101Y007101D03*
X018351Y009351D03*
X016726Y009351D03*
X013101Y006101D03*
X011101Y007101D03*
X011601Y008726D03*
X009726Y009101D03*
D19*
X008565Y016243D03*
M02*
