G75*
G70*
%OFA0B0*%
%FSLAX24Y24*%
%IPPOS*%
%LPD*%
%AMOC8*
5,1,8,0,0,1.08239X$1,22.5*
%
%ADD10C,0.0030*%
%ADD11C,0.0060*%
%ADD12C,0.0040*%
%ADD13C,0.0050*%
%ADD14R,0.4200X0.0300*%
%ADD15R,0.0750X0.0200*%
%ADD16R,0.0300X0.0200*%
D10*
X003462Y002084D02*
X003705Y002084D01*
X003825Y002145D02*
X003885Y002084D01*
X004007Y002084D01*
X004067Y002145D01*
X004067Y002266D01*
X004007Y002327D01*
X003885Y002327D01*
X003825Y002266D01*
X003825Y002145D01*
X004187Y002145D02*
X004187Y002327D01*
X004187Y002145D02*
X004248Y002084D01*
X004309Y002145D01*
X004369Y002084D01*
X004430Y002145D01*
X004430Y002327D01*
X004550Y002266D02*
X004610Y002327D01*
X004792Y002327D01*
X004912Y002327D02*
X004973Y002327D01*
X004973Y002084D01*
X005033Y002084D02*
X004912Y002084D01*
X004792Y002145D02*
X004732Y002206D01*
X004610Y002206D01*
X004550Y002266D01*
X004550Y002084D02*
X004732Y002084D01*
X004792Y002145D01*
X004973Y002448D02*
X004973Y002509D01*
X005214Y002327D02*
X005396Y002327D01*
X005396Y002448D02*
X005396Y002084D01*
X005214Y002084D01*
X005154Y002145D01*
X005154Y002266D01*
X005214Y002327D01*
X005516Y002266D02*
X005577Y002327D01*
X005698Y002327D01*
X005759Y002266D01*
X005759Y002206D01*
X005516Y002206D01*
X005516Y002266D02*
X005516Y002145D01*
X005577Y002084D01*
X005698Y002084D01*
X006241Y002448D02*
X006484Y002448D01*
X006363Y002448D02*
X006363Y002084D01*
X006604Y002084D02*
X006725Y002084D01*
X006664Y002084D02*
X006664Y002327D01*
X006604Y002327D01*
X006664Y002448D02*
X006664Y002509D01*
X006906Y002327D02*
X006845Y002266D01*
X006845Y002145D01*
X006906Y002084D01*
X007027Y002084D01*
X007088Y002206D02*
X006845Y002206D01*
X006906Y002327D02*
X007027Y002327D01*
X007088Y002266D01*
X007088Y002206D01*
X007570Y002206D02*
X007752Y002206D01*
X007813Y002266D01*
X007813Y002388D01*
X007752Y002448D01*
X007570Y002448D01*
X007570Y002084D01*
X007933Y002145D02*
X007993Y002084D01*
X008115Y002084D01*
X008175Y002145D01*
X008175Y002266D01*
X008115Y002327D01*
X007993Y002327D01*
X007933Y002266D01*
X007933Y002145D01*
X008295Y002084D02*
X008417Y002084D01*
X008356Y002084D02*
X008356Y002327D01*
X008295Y002327D01*
X008356Y002448D02*
X008356Y002509D01*
X008537Y002327D02*
X008537Y002084D01*
X008780Y002084D02*
X008780Y002266D01*
X008719Y002327D01*
X008537Y002327D01*
X008899Y002327D02*
X009021Y002327D01*
X008960Y002388D02*
X008960Y002145D01*
X009021Y002084D01*
X003462Y002084D02*
X003462Y002448D01*
X023344Y002251D02*
X023344Y001887D01*
X023587Y001887D01*
X023707Y001948D02*
X023767Y001887D01*
X023889Y001887D01*
X023949Y001948D01*
X023949Y002069D01*
X023889Y002130D01*
X023767Y002130D01*
X023707Y002069D01*
X023707Y001948D01*
X024069Y001948D02*
X024069Y002130D01*
X024069Y001948D02*
X024130Y001887D01*
X024190Y001948D01*
X024251Y001887D01*
X024312Y001948D01*
X024312Y002130D01*
X024432Y002069D02*
X024492Y002130D01*
X024674Y002130D01*
X024794Y002130D02*
X024855Y002130D01*
X024855Y001887D01*
X024915Y001887D02*
X024794Y001887D01*
X024674Y001948D02*
X024614Y002009D01*
X024492Y002009D01*
X024432Y002069D01*
X024432Y001887D02*
X024614Y001887D01*
X024674Y001948D01*
X024855Y002251D02*
X024855Y002312D01*
X025096Y002130D02*
X025036Y002069D01*
X025036Y001948D01*
X025096Y001887D01*
X025278Y001887D01*
X025278Y002251D01*
X025278Y002130D02*
X025096Y002130D01*
X025398Y002069D02*
X025459Y002130D01*
X025580Y002130D01*
X025641Y002069D01*
X025641Y002009D01*
X025398Y002009D01*
X025398Y002069D02*
X025398Y001948D01*
X025459Y001887D01*
X025580Y001887D01*
X026123Y002251D02*
X026366Y002251D01*
X026244Y002251D02*
X026244Y001887D01*
X026486Y001887D02*
X026607Y001887D01*
X026546Y001887D02*
X026546Y002130D01*
X026486Y002130D01*
X026546Y002251D02*
X026546Y002312D01*
X026788Y002130D02*
X026909Y002130D01*
X026970Y002069D01*
X026970Y002009D01*
X026727Y002009D01*
X026727Y002069D02*
X026727Y001948D01*
X026788Y001887D01*
X026909Y001887D01*
X026727Y002069D02*
X026788Y002130D01*
X027452Y002009D02*
X027634Y002009D01*
X027695Y002069D01*
X027695Y002191D01*
X027634Y002251D01*
X027452Y002251D01*
X027452Y001887D01*
X027815Y001948D02*
X027815Y002069D01*
X027875Y002130D01*
X027997Y002130D01*
X028057Y002069D01*
X028057Y001948D01*
X027997Y001887D01*
X027875Y001887D01*
X027815Y001948D01*
X028177Y001887D02*
X028299Y001887D01*
X028238Y001887D02*
X028238Y002130D01*
X028177Y002130D01*
X028238Y002251D02*
X028238Y002312D01*
X028419Y002130D02*
X028601Y002130D01*
X028661Y002069D01*
X028661Y001887D01*
X028842Y001948D02*
X028903Y001887D01*
X028842Y001948D02*
X028842Y002191D01*
X028781Y002130D02*
X028903Y002130D01*
X028419Y002130D02*
X028419Y001887D01*
X028462Y003462D02*
X028709Y003462D01*
X028831Y003524D02*
X028892Y003462D01*
X029016Y003462D01*
X029077Y003524D01*
X029077Y003647D01*
X029016Y003709D01*
X028892Y003709D01*
X028831Y003647D01*
X028831Y003524D01*
X029199Y003524D02*
X029261Y003462D01*
X029322Y003524D01*
X029384Y003462D01*
X029446Y003524D01*
X029446Y003709D01*
X029567Y003647D02*
X029629Y003709D01*
X029814Y003709D01*
X029935Y003709D02*
X029997Y003709D01*
X029997Y003462D01*
X029935Y003462D02*
X030059Y003462D01*
X030181Y003524D02*
X030181Y003647D01*
X030243Y003709D01*
X030428Y003709D01*
X030428Y003833D02*
X030428Y003462D01*
X030243Y003462D01*
X030181Y003524D01*
X029997Y003833D02*
X029997Y003894D01*
X030058Y004053D02*
X030058Y004300D01*
X030182Y004300D02*
X030243Y004300D01*
X030182Y004300D02*
X030058Y004176D01*
X029937Y004176D02*
X029690Y004176D01*
X029690Y004114D02*
X029690Y004238D01*
X029752Y004300D01*
X029875Y004300D01*
X029937Y004238D01*
X029937Y004176D01*
X029875Y004053D02*
X029752Y004053D01*
X029690Y004114D01*
X029568Y004053D02*
X029506Y004114D01*
X029506Y004361D01*
X029444Y004300D02*
X029568Y004300D01*
X029322Y004300D02*
X029199Y004300D01*
X029261Y004361D02*
X029261Y004114D01*
X029322Y004053D01*
X029077Y004053D02*
X028892Y004053D01*
X028831Y004114D01*
X028892Y004176D01*
X029077Y004176D01*
X029077Y004238D02*
X029077Y004053D01*
X029077Y004238D02*
X029016Y004300D01*
X028892Y004300D01*
X028709Y004300D02*
X028709Y004361D01*
X028647Y004423D01*
X028462Y004423D01*
X028462Y004053D01*
X028647Y004053D01*
X028709Y004114D01*
X028709Y004176D01*
X028647Y004238D01*
X028462Y004238D01*
X028647Y004238D02*
X028709Y004300D01*
X028462Y003833D02*
X028462Y003462D01*
X029199Y003524D02*
X029199Y003709D01*
X029567Y003647D02*
X029629Y003586D01*
X029752Y003586D01*
X029814Y003524D01*
X029752Y003462D01*
X029567Y003462D01*
X030365Y004114D02*
X030427Y004053D01*
X030612Y004053D01*
X030612Y003991D02*
X030612Y004300D01*
X030365Y004300D02*
X030365Y004114D01*
X030489Y003929D02*
X030550Y003929D01*
X030612Y003991D01*
X030611Y003709D02*
X030734Y003709D01*
X030796Y003647D01*
X030796Y003586D01*
X030549Y003586D01*
X030549Y003647D02*
X030611Y003709D01*
X030549Y003647D02*
X030549Y003524D01*
X030611Y003462D01*
X030734Y003462D01*
X029261Y017709D02*
X029199Y017709D01*
X029261Y017709D02*
X029323Y017771D01*
X029323Y018079D01*
X029138Y018079D01*
X029076Y018017D01*
X029076Y017894D01*
X029138Y017832D01*
X029323Y017832D01*
X029444Y017832D02*
X029444Y018203D01*
X029506Y018079D02*
X029630Y018079D01*
X029691Y018017D01*
X029691Y017832D01*
X029813Y017832D02*
X029998Y017832D01*
X030060Y017894D01*
X029998Y017956D01*
X029874Y017956D01*
X029813Y018017D01*
X029874Y018079D01*
X030060Y018079D01*
X030181Y018079D02*
X030243Y018079D01*
X030243Y017832D01*
X030304Y017832D02*
X030181Y017832D01*
X030426Y017894D02*
X030426Y018017D01*
X030488Y018079D01*
X030673Y018079D01*
X030673Y018203D02*
X030673Y017832D01*
X030488Y017832D01*
X030426Y017894D01*
X030243Y018203D02*
X030243Y018264D01*
X030427Y018423D02*
X030365Y018485D01*
X030365Y018670D01*
X030243Y018670D02*
X030182Y018670D01*
X030058Y018546D01*
X029937Y018546D02*
X029690Y018546D01*
X029690Y018485D02*
X029690Y018608D01*
X029752Y018670D01*
X029875Y018670D01*
X029937Y018608D01*
X029937Y018546D01*
X029875Y018423D02*
X029752Y018423D01*
X029690Y018485D01*
X029568Y018423D02*
X029506Y018485D01*
X029506Y018731D01*
X029444Y018670D02*
X029568Y018670D01*
X029322Y018670D02*
X029199Y018670D01*
X029261Y018731D02*
X029261Y018485D01*
X029322Y018423D01*
X029077Y018423D02*
X028892Y018423D01*
X028831Y018485D01*
X028892Y018546D01*
X029077Y018546D01*
X029077Y018608D02*
X029077Y018423D01*
X029077Y018608D02*
X029016Y018670D01*
X028892Y018670D01*
X028709Y018670D02*
X028709Y018731D01*
X028647Y018793D01*
X028462Y018793D01*
X028462Y018423D01*
X028647Y018423D01*
X028709Y018485D01*
X028709Y018546D01*
X028647Y018608D01*
X028462Y018608D01*
X028647Y018608D02*
X028709Y018670D01*
X028892Y018264D02*
X028892Y018203D01*
X028892Y018079D02*
X028831Y018079D01*
X028892Y018079D02*
X028892Y017832D01*
X028831Y017832D02*
X028954Y017832D01*
X028709Y017832D02*
X028709Y018203D01*
X028709Y018017D02*
X028462Y018017D01*
X028462Y017832D02*
X028462Y018203D01*
X029444Y018017D02*
X029506Y018079D01*
X030058Y018423D02*
X030058Y018670D01*
X030427Y018423D02*
X030612Y018423D01*
X030612Y018361D02*
X030612Y018670D01*
X030612Y018361D02*
X030550Y018299D01*
X030489Y018299D01*
X030795Y018017D02*
X030856Y018079D01*
X030980Y018079D01*
X031042Y018017D01*
X031042Y017956D01*
X030795Y017956D01*
X030795Y018017D02*
X030795Y017894D01*
X030856Y017832D01*
X030980Y017832D01*
X028751Y021376D02*
X028690Y021436D01*
X028690Y021679D01*
X028629Y021618D02*
X028751Y021618D01*
X028509Y021558D02*
X028509Y021376D01*
X028509Y021558D02*
X028449Y021618D01*
X028267Y021618D01*
X028267Y021376D01*
X028146Y021376D02*
X028025Y021376D01*
X028086Y021376D02*
X028086Y021618D01*
X028025Y021618D01*
X027905Y021558D02*
X027845Y021618D01*
X027723Y021618D01*
X027663Y021558D01*
X027663Y021436D01*
X027723Y021376D01*
X027845Y021376D01*
X027905Y021436D01*
X027905Y021558D01*
X028086Y021740D02*
X028086Y021800D01*
X027543Y021679D02*
X027543Y021558D01*
X027482Y021497D01*
X027300Y021497D01*
X027300Y021376D02*
X027300Y021740D01*
X027482Y021740D01*
X027543Y021679D01*
X026818Y021558D02*
X026818Y021497D01*
X026575Y021497D01*
X026575Y021558D02*
X026636Y021618D01*
X026757Y021618D01*
X026818Y021558D01*
X026757Y021376D02*
X026636Y021376D01*
X026575Y021436D01*
X026575Y021558D01*
X026394Y021618D02*
X026394Y021376D01*
X026334Y021376D02*
X026455Y021376D01*
X026394Y021618D02*
X026334Y021618D01*
X026394Y021740D02*
X026394Y021800D01*
X026214Y021740D02*
X025971Y021740D01*
X026092Y021740D02*
X026092Y021376D01*
X025489Y021497D02*
X025246Y021497D01*
X025246Y021558D02*
X025307Y021618D01*
X025428Y021618D01*
X025489Y021558D01*
X025489Y021497D01*
X025428Y021376D02*
X025307Y021376D01*
X025246Y021436D01*
X025246Y021558D01*
X025126Y021618D02*
X024944Y021618D01*
X024884Y021558D01*
X024884Y021436D01*
X024944Y021376D01*
X025126Y021376D01*
X025126Y021740D01*
X024703Y021740D02*
X024703Y021800D01*
X024703Y021618D02*
X024703Y021376D01*
X024763Y021376D02*
X024642Y021376D01*
X024522Y021436D02*
X024461Y021497D01*
X024340Y021497D01*
X024280Y021558D01*
X024340Y021618D01*
X024522Y021618D01*
X024642Y021618D02*
X024703Y021618D01*
X024522Y021436D02*
X024461Y021376D01*
X024280Y021376D01*
X024160Y021376D02*
X024160Y021558D01*
X024099Y021618D01*
X023978Y021618D01*
X023917Y021558D01*
X023797Y021618D02*
X023797Y021315D01*
X023737Y021254D01*
X023676Y021254D01*
X023615Y021376D02*
X023797Y021376D01*
X023917Y021376D02*
X023917Y021740D01*
X023797Y021618D02*
X023615Y021618D01*
X023555Y021558D01*
X023555Y021436D01*
X023615Y021376D01*
X023434Y021376D02*
X023313Y021376D01*
X023374Y021376D02*
X023374Y021618D01*
X023313Y021618D01*
X023193Y021558D02*
X022950Y021558D01*
X022950Y021376D02*
X022950Y021740D01*
X023193Y021740D02*
X023193Y021376D01*
X023374Y021740D02*
X023374Y021800D01*
X011821Y021618D02*
X011700Y021618D01*
X011761Y021679D02*
X011761Y021436D01*
X011821Y021376D01*
X011580Y021376D02*
X011580Y021558D01*
X011520Y021618D01*
X011338Y021618D01*
X011338Y021376D01*
X011217Y021376D02*
X011096Y021376D01*
X011157Y021376D02*
X011157Y021618D01*
X011096Y021618D01*
X010976Y021558D02*
X010916Y021618D01*
X010794Y021618D01*
X010734Y021558D01*
X010734Y021436D01*
X010794Y021376D01*
X010916Y021376D01*
X010976Y021436D01*
X010976Y021558D01*
X011157Y021740D02*
X011157Y021800D01*
X010614Y021679D02*
X010614Y021558D01*
X010553Y021497D01*
X010371Y021497D01*
X010371Y021376D02*
X010371Y021740D01*
X010553Y021740D01*
X010614Y021679D01*
X009889Y021558D02*
X009889Y021497D01*
X009646Y021497D01*
X009646Y021558D02*
X009707Y021618D01*
X009828Y021618D01*
X009889Y021558D01*
X009828Y021376D02*
X009707Y021376D01*
X009646Y021436D01*
X009646Y021558D01*
X009465Y021618D02*
X009465Y021376D01*
X009404Y021376D02*
X009526Y021376D01*
X009465Y021618D02*
X009404Y021618D01*
X009465Y021740D02*
X009465Y021800D01*
X009285Y021740D02*
X009042Y021740D01*
X009163Y021740D02*
X009163Y021376D01*
X008560Y021497D02*
X008317Y021497D01*
X008317Y021558D02*
X008378Y021618D01*
X008499Y021618D01*
X008560Y021558D01*
X008560Y021497D01*
X008499Y021376D02*
X008378Y021376D01*
X008317Y021436D01*
X008317Y021558D01*
X008197Y021618D02*
X008015Y021618D01*
X007955Y021558D01*
X007955Y021436D01*
X008015Y021376D01*
X008197Y021376D01*
X008197Y021740D01*
X007774Y021740D02*
X007774Y021800D01*
X007774Y021618D02*
X007774Y021376D01*
X007834Y021376D02*
X007713Y021376D01*
X007593Y021436D02*
X007532Y021497D01*
X007411Y021497D01*
X007350Y021558D01*
X007411Y021618D01*
X007593Y021618D01*
X007713Y021618D02*
X007774Y021618D01*
X007593Y021436D02*
X007532Y021376D01*
X007350Y021376D01*
X007231Y021376D02*
X007231Y021558D01*
X007170Y021618D01*
X007049Y021618D01*
X006988Y021558D01*
X006868Y021618D02*
X006868Y021315D01*
X006807Y021254D01*
X006747Y021254D01*
X006686Y021376D02*
X006868Y021376D01*
X006988Y021376D02*
X006988Y021740D01*
X006868Y021618D02*
X006686Y021618D01*
X006625Y021558D01*
X006625Y021436D01*
X006686Y021376D01*
X006505Y021376D02*
X006384Y021376D01*
X006444Y021376D02*
X006444Y021618D01*
X006384Y021618D01*
X006264Y021558D02*
X006021Y021558D01*
X006021Y021376D02*
X006021Y021740D01*
X006264Y021740D02*
X006264Y021376D01*
X006444Y021740D02*
X006444Y021800D01*
D11*
X006529Y020084D02*
X006209Y020084D01*
X006209Y019443D01*
X006529Y019443D01*
X006636Y019550D01*
X006636Y019657D01*
X006529Y019764D01*
X006209Y019764D01*
X006529Y019764D02*
X006636Y019870D01*
X006636Y019977D01*
X006529Y020084D01*
X005347Y019977D02*
X005240Y020084D01*
X005027Y020084D01*
X004920Y019977D01*
X004920Y019550D01*
X005027Y019443D01*
X005240Y019443D01*
X005347Y019550D01*
X004058Y019443D02*
X003631Y019443D01*
X003631Y020084D01*
X004058Y020084D01*
X003844Y019764D02*
X003631Y019764D01*
X010443Y019764D02*
X010657Y019764D01*
X010443Y019764D01*
X010443Y020084D02*
X010443Y019443D01*
X010870Y019443D01*
X010443Y019443D01*
X010443Y020084D01*
X010870Y020084D01*
X010443Y020084D01*
X011732Y019977D02*
X011732Y019550D01*
X011839Y019443D01*
X012053Y019443D01*
X012159Y019550D01*
X012053Y019443D01*
X011839Y019443D01*
X011732Y019550D01*
X011732Y019977D01*
X011839Y020084D01*
X012053Y020084D01*
X012159Y019977D01*
X012053Y020084D01*
X011839Y020084D01*
X011732Y019977D01*
X013021Y020084D02*
X013021Y019443D01*
X013342Y019443D01*
X013448Y019550D01*
X013448Y019657D01*
X013342Y019764D01*
X013021Y019764D01*
X013342Y019764D01*
X013448Y019870D01*
X013448Y019977D01*
X013342Y020084D01*
X013021Y020084D01*
X013342Y020084D01*
X013448Y019977D01*
X013448Y019870D01*
X013342Y019764D01*
X013448Y019657D01*
X013448Y019550D01*
X013342Y019443D01*
X013021Y019443D01*
X013021Y020084D01*
X017506Y020021D02*
X017506Y019381D01*
X017933Y019381D01*
X017506Y019381D01*
X017506Y020021D01*
X017933Y020021D01*
X017506Y020021D01*
X017506Y019701D02*
X017719Y019701D01*
X017506Y019701D01*
X018795Y019488D02*
X018902Y019381D01*
X019115Y019381D01*
X019222Y019488D01*
X019115Y019381D01*
X018902Y019381D01*
X018795Y019488D01*
X018795Y019915D01*
X018902Y020021D01*
X019115Y020021D01*
X019222Y019915D01*
X019115Y020021D01*
X018902Y020021D01*
X018795Y019915D01*
X018795Y019488D01*
X020084Y019381D02*
X020404Y019381D01*
X020511Y019488D01*
X020511Y019594D01*
X020404Y019701D01*
X020084Y019701D01*
X020404Y019701D01*
X020511Y019808D01*
X020511Y019915D01*
X020404Y020021D01*
X020084Y020021D01*
X020084Y019381D01*
X020404Y019381D01*
X020511Y019488D01*
X020511Y019594D01*
X020404Y019701D01*
X020511Y019808D01*
X020511Y019915D01*
X020404Y020021D01*
X020084Y020021D01*
X020084Y019381D01*
X024568Y019381D02*
X024995Y019381D01*
X024782Y019701D02*
X024568Y019701D01*
X024568Y020021D02*
X024568Y019381D01*
X024568Y020021D02*
X024995Y020021D01*
X025857Y019915D02*
X025857Y019488D01*
X025964Y019381D01*
X026178Y019381D01*
X026284Y019488D01*
X026284Y019915D02*
X026178Y020021D01*
X025964Y020021D01*
X025857Y019915D01*
X027146Y020021D02*
X027146Y019381D01*
X027467Y019381D01*
X027573Y019488D01*
X027573Y019594D01*
X027467Y019701D01*
X027146Y019701D01*
X027146Y020021D02*
X027467Y020021D01*
X027573Y019915D01*
X027573Y019808D01*
X027467Y019701D01*
X027636Y003771D02*
X027209Y003771D01*
X027209Y003131D01*
X027636Y003131D01*
X027422Y003451D02*
X027209Y003451D01*
X026347Y003238D02*
X026240Y003131D01*
X026027Y003131D01*
X025920Y003238D01*
X025920Y003665D01*
X026027Y003771D01*
X026240Y003771D01*
X026347Y003665D01*
X025058Y003665D02*
X025058Y003558D01*
X024951Y003451D01*
X024631Y003451D01*
X024951Y003451D02*
X025058Y003344D01*
X025058Y003238D01*
X024951Y003131D01*
X024631Y003131D01*
X024631Y003771D01*
X024951Y003771D01*
X025058Y003665D01*
X025015Y001646D02*
X025015Y001219D01*
X025229Y001006D01*
X025442Y001219D01*
X025442Y001646D01*
X025660Y001540D02*
X025767Y001646D01*
X025980Y001646D01*
X026087Y001540D01*
X025660Y001113D01*
X025767Y001006D01*
X025980Y001006D01*
X026087Y001113D01*
X026087Y001540D01*
X025660Y001540D02*
X025660Y001113D01*
X026304Y001113D02*
X026411Y001113D01*
X026411Y001006D01*
X026304Y001006D01*
X026304Y001113D01*
X026627Y001006D02*
X027054Y001006D01*
X026840Y001006D02*
X026840Y001646D01*
X026627Y001433D01*
X024153Y001326D02*
X024153Y001219D01*
X023726Y001219D01*
X023726Y001113D02*
X023726Y001326D01*
X023833Y001433D01*
X024047Y001433D01*
X024153Y001326D01*
X024047Y001006D02*
X023833Y001006D01*
X023726Y001113D01*
X023510Y001006D02*
X023297Y001006D01*
X023403Y001006D02*
X023403Y001646D01*
X023297Y001646D01*
X023079Y001433D02*
X023079Y001006D01*
X022759Y001006D01*
X022652Y001113D01*
X022652Y001433D01*
X022435Y001433D02*
X022114Y001433D01*
X022008Y001326D01*
X022008Y001113D01*
X022114Y001006D01*
X022435Y001006D01*
X022435Y001646D01*
X021790Y001326D02*
X021790Y001113D01*
X021683Y001006D01*
X021470Y001006D01*
X021363Y001113D01*
X021363Y001326D01*
X021470Y001433D01*
X021683Y001433D01*
X021790Y001326D01*
X021146Y001646D02*
X021146Y001006D01*
X020719Y001006D02*
X020719Y001646D01*
X020932Y001433D01*
X021146Y001646D01*
X019857Y001433D02*
X019750Y001433D01*
X019537Y001219D01*
X019537Y001006D02*
X019537Y001433D01*
X019319Y001326D02*
X019319Y001219D01*
X018892Y001219D01*
X018892Y001113D02*
X018892Y001326D01*
X018999Y001433D01*
X019213Y001433D01*
X019319Y001326D01*
X019213Y001006D02*
X018999Y001006D01*
X018892Y001113D01*
X018675Y001006D02*
X018355Y001006D01*
X018248Y001113D01*
X018248Y001326D01*
X018355Y001433D01*
X018675Y001433D01*
X018030Y001326D02*
X018030Y001006D01*
X018030Y001326D02*
X017924Y001433D01*
X017603Y001433D01*
X017603Y001006D01*
X017386Y001006D02*
X017386Y001326D01*
X017279Y001433D01*
X017066Y001433D01*
X017066Y001219D02*
X017386Y001219D01*
X017386Y001006D02*
X017066Y001006D01*
X016959Y001113D01*
X017066Y001219D01*
X016743Y001006D02*
X016529Y001006D01*
X016636Y001006D02*
X016636Y001646D01*
X016529Y001646D01*
X016312Y001326D02*
X016312Y001006D01*
X015991Y001006D01*
X015885Y001113D01*
X015991Y001219D01*
X016312Y001219D01*
X016312Y001326D02*
X016205Y001433D01*
X015991Y001433D01*
X015667Y001433D02*
X015667Y001540D01*
X015560Y001646D01*
X015240Y001646D01*
X015240Y001006D01*
X015560Y001006D01*
X015667Y001113D01*
X015667Y001219D01*
X015560Y001326D01*
X015240Y001326D01*
X015560Y001326D02*
X015667Y001433D01*
X014379Y001433D02*
X014166Y001433D01*
X014273Y001540D02*
X014273Y001113D01*
X014379Y001006D01*
X013948Y001006D02*
X013948Y001326D01*
X013842Y001433D01*
X013521Y001433D01*
X013521Y001006D01*
X013304Y001006D02*
X013304Y001433D01*
X013304Y001006D02*
X012984Y001006D01*
X012877Y001113D01*
X012877Y001433D01*
X012659Y001326D02*
X012659Y001006D01*
X012659Y001326D02*
X012553Y001433D01*
X012339Y001433D01*
X012232Y001326D01*
X012015Y001219D02*
X012015Y001113D01*
X011908Y001006D01*
X011695Y001006D01*
X011588Y001113D01*
X011695Y001326D02*
X011908Y001326D01*
X012015Y001219D01*
X012232Y001006D02*
X012232Y001646D01*
X012015Y001540D02*
X011908Y001646D01*
X011695Y001646D01*
X011588Y001540D01*
X011588Y001433D01*
X011695Y001326D01*
X010727Y001006D02*
X010514Y001006D01*
X010620Y001006D02*
X010620Y001646D01*
X010514Y001646D01*
X010191Y001646D02*
X010191Y001006D01*
X010297Y001006D02*
X010084Y001006D01*
X009866Y001219D02*
X009439Y001219D01*
X009439Y001113D02*
X009439Y001326D01*
X009546Y001433D01*
X009760Y001433D01*
X009866Y001326D01*
X009866Y001219D01*
X009760Y001006D02*
X009546Y001006D01*
X009439Y001113D01*
X009222Y001113D02*
X009115Y001006D01*
X008902Y001006D01*
X008795Y001113D01*
X008795Y001540D01*
X008902Y001646D01*
X009115Y001646D01*
X009222Y001540D01*
X010084Y001646D02*
X010191Y001646D01*
X010693Y003131D02*
X011014Y003131D01*
X011120Y003238D01*
X011120Y003344D01*
X011014Y003451D01*
X010693Y003451D01*
X010693Y003131D02*
X010693Y003771D01*
X011014Y003771D01*
X011120Y003665D01*
X011120Y003558D01*
X011014Y003451D01*
X011982Y003238D02*
X012089Y003131D01*
X012303Y003131D01*
X012409Y003238D01*
X012409Y003665D02*
X012303Y003771D01*
X012089Y003771D01*
X011982Y003665D01*
X011982Y003238D01*
X013271Y003131D02*
X013698Y003131D01*
X013485Y003451D02*
X013271Y003451D01*
X013271Y003771D02*
X013271Y003131D01*
X013271Y003771D02*
X013698Y003771D01*
X017631Y003771D02*
X017631Y003131D01*
X017951Y003131D01*
X018058Y003238D01*
X018058Y003344D01*
X017951Y003451D01*
X017631Y003451D01*
X017951Y003451D02*
X018058Y003558D01*
X018058Y003665D01*
X017951Y003771D01*
X017631Y003771D01*
X018920Y003665D02*
X018920Y003238D01*
X019027Y003131D01*
X019240Y003131D01*
X019347Y003238D01*
X019347Y003665D02*
X019240Y003771D01*
X019027Y003771D01*
X018920Y003665D01*
X020209Y003771D02*
X020209Y003131D01*
X020636Y003131D01*
X020422Y003451D02*
X020209Y003451D01*
X020209Y003771D02*
X020636Y003771D01*
X007933Y001540D02*
X007933Y001433D01*
X007826Y001326D01*
X007613Y001326D01*
X007506Y001433D01*
X007506Y001540D01*
X007613Y001646D01*
X007826Y001646D01*
X007933Y001540D01*
X007826Y001326D02*
X007933Y001219D01*
X007933Y001113D01*
X007826Y001006D01*
X007613Y001006D01*
X007506Y001113D01*
X007506Y001219D01*
X007613Y001326D01*
X006573Y003193D02*
X006146Y003193D01*
X006146Y003834D01*
X006573Y003834D01*
X006360Y003514D02*
X006146Y003514D01*
X005284Y003727D02*
X005178Y003834D01*
X004964Y003834D01*
X004857Y003727D01*
X004857Y003300D01*
X004964Y003193D01*
X005178Y003193D01*
X005284Y003300D01*
X003995Y003300D02*
X003889Y003193D01*
X003568Y003193D01*
X003568Y003834D01*
X003889Y003834D01*
X003995Y003727D01*
X003995Y003620D01*
X003889Y003514D01*
X003568Y003514D01*
X003889Y003514D02*
X003995Y003407D01*
X003995Y003300D01*
D12*
X029058Y005491D02*
X029211Y005337D01*
X029365Y005491D01*
X029365Y005798D01*
X029518Y005798D02*
X029748Y005798D01*
X029825Y005721D01*
X029825Y005644D01*
X029748Y005567D01*
X029518Y005567D01*
X029518Y005337D02*
X029748Y005337D01*
X029825Y005414D01*
X029825Y005491D01*
X029748Y005567D01*
X029979Y005644D02*
X030132Y005798D01*
X030132Y005337D01*
X029979Y005337D02*
X030285Y005337D01*
X029518Y005337D02*
X029518Y005798D01*
X029058Y005798D02*
X029058Y005491D01*
X029211Y006715D02*
X029365Y006869D01*
X029365Y007176D01*
X029518Y007176D02*
X029748Y007176D01*
X029825Y007099D01*
X029825Y007022D01*
X029748Y006945D01*
X029518Y006945D01*
X029518Y006715D02*
X029518Y007176D01*
X029748Y006945D02*
X029825Y006869D01*
X029825Y006792D01*
X029748Y006715D01*
X029518Y006715D01*
X029211Y006715D02*
X029058Y006869D01*
X029058Y007176D01*
X029979Y007099D02*
X030055Y007176D01*
X030209Y007176D01*
X030285Y007099D01*
X030285Y007022D01*
X029979Y006715D01*
X030285Y006715D01*
X030209Y008093D02*
X030055Y008093D01*
X029979Y008170D01*
X029825Y008170D02*
X029748Y008093D01*
X029518Y008093D01*
X029518Y008554D01*
X029748Y008554D01*
X029825Y008477D01*
X029825Y008400D01*
X029748Y008323D01*
X029518Y008323D01*
X029365Y008247D02*
X029365Y008554D01*
X029058Y008554D02*
X029058Y008247D01*
X029211Y008093D01*
X029365Y008247D01*
X029748Y008323D02*
X029825Y008247D01*
X029825Y008170D01*
X029979Y008477D02*
X030055Y008554D01*
X030209Y008554D01*
X030285Y008477D01*
X030285Y008400D01*
X030209Y008323D01*
X030285Y008247D01*
X030285Y008170D01*
X030209Y008093D01*
X030209Y008323D02*
X030132Y008323D01*
X030209Y009471D02*
X030209Y009932D01*
X029979Y009701D01*
X030285Y009701D01*
X029825Y009625D02*
X029825Y009548D01*
X029748Y009471D01*
X029518Y009471D01*
X029518Y009932D01*
X029748Y009932D01*
X029825Y009855D01*
X029825Y009778D01*
X029748Y009701D01*
X029518Y009701D01*
X029365Y009625D02*
X029365Y009932D01*
X029058Y009932D02*
X029058Y009625D01*
X029211Y009471D01*
X029365Y009625D01*
X029748Y009701D02*
X029825Y009625D01*
X029748Y010849D02*
X029518Y010849D01*
X029518Y011309D01*
X029748Y011309D01*
X029825Y011233D01*
X029825Y011156D01*
X029748Y011079D01*
X029518Y011079D01*
X029365Y011003D02*
X029365Y011309D01*
X029365Y011003D02*
X029211Y010849D01*
X029058Y011003D01*
X029058Y011309D01*
X029748Y011079D02*
X029825Y011003D01*
X029825Y010926D01*
X029748Y010849D01*
X029979Y010926D02*
X030055Y010849D01*
X030209Y010849D01*
X030285Y010926D01*
X030285Y011079D01*
X030209Y011156D01*
X030132Y011156D01*
X029979Y011079D01*
X029979Y011309D01*
X030285Y011309D01*
X030209Y012227D02*
X030285Y012304D01*
X030285Y012381D01*
X030209Y012457D01*
X029979Y012457D01*
X029979Y012304D01*
X030055Y012227D01*
X030209Y012227D01*
X029979Y012457D02*
X030132Y012611D01*
X030285Y012687D01*
X029825Y012611D02*
X029825Y012534D01*
X029748Y012457D01*
X029518Y012457D01*
X029365Y012381D02*
X029365Y012687D01*
X029518Y012687D02*
X029748Y012687D01*
X029825Y012611D01*
X029748Y012457D02*
X029825Y012381D01*
X029825Y012304D01*
X029748Y012227D01*
X029518Y012227D01*
X029518Y012687D01*
X029365Y012381D02*
X029211Y012227D01*
X029058Y012381D01*
X029058Y012687D01*
X029211Y013605D02*
X029365Y013758D01*
X029365Y014065D01*
X029518Y014065D02*
X029748Y014065D01*
X029825Y013989D01*
X029825Y013912D01*
X029748Y013835D01*
X029518Y013835D01*
X029518Y013605D02*
X029518Y014065D01*
X029748Y013835D02*
X029825Y013758D01*
X029825Y013682D01*
X029748Y013605D01*
X029518Y013605D01*
X029211Y013605D02*
X029058Y013758D01*
X029058Y014065D01*
X029979Y014065D02*
X030285Y014065D01*
X030285Y013989D01*
X029979Y013682D01*
X029979Y013605D01*
X030055Y014983D02*
X029979Y015060D01*
X029979Y015136D01*
X030055Y015213D01*
X030209Y015213D01*
X030285Y015136D01*
X030285Y015060D01*
X030209Y014983D01*
X030055Y014983D01*
X030055Y015213D02*
X029979Y015290D01*
X029979Y015367D01*
X030055Y015443D01*
X030209Y015443D01*
X030285Y015367D01*
X030285Y015290D01*
X030209Y015213D01*
X029825Y015136D02*
X029825Y015060D01*
X029748Y014983D01*
X029518Y014983D01*
X029518Y015443D01*
X029748Y015443D01*
X029825Y015367D01*
X029825Y015290D01*
X029748Y015213D01*
X029518Y015213D01*
X029365Y015136D02*
X029365Y015443D01*
X029365Y015136D02*
X029211Y014983D01*
X029058Y015136D01*
X029058Y015443D01*
X029748Y015213D02*
X029825Y015136D01*
X029748Y016361D02*
X029518Y016361D01*
X029518Y016821D01*
X029748Y016821D01*
X029825Y016745D01*
X029825Y016668D01*
X029748Y016591D01*
X029518Y016591D01*
X029365Y016514D02*
X029365Y016821D01*
X029365Y016514D02*
X029211Y016361D01*
X029058Y016514D01*
X029058Y016821D01*
X029748Y016591D02*
X029825Y016514D01*
X029825Y016438D01*
X029748Y016361D01*
X029979Y016438D02*
X030055Y016361D01*
X030209Y016361D01*
X030285Y016438D01*
X030285Y016745D01*
X030209Y016821D01*
X030055Y016821D01*
X029979Y016745D01*
X029979Y016668D01*
X030055Y016591D01*
X030285Y016591D01*
D13*
X028101Y018051D02*
X028051Y019201D01*
X027951Y019301D01*
X024251Y019301D01*
X024151Y019201D01*
X024101Y018051D01*
X021101Y018051D02*
X021051Y019201D01*
X020951Y019301D01*
X017251Y019301D01*
X017151Y019201D01*
X017101Y018051D01*
X014101Y018051D02*
X014051Y019201D01*
X013951Y019301D01*
X010251Y019301D01*
X010151Y019201D01*
X010101Y018051D01*
X007101Y018051D02*
X007051Y019201D01*
X006951Y019301D01*
X003251Y019301D01*
X003151Y019201D01*
X003101Y018051D01*
X006771Y019061D02*
X006773Y019081D01*
X006779Y019099D01*
X006788Y019117D01*
X006800Y019132D01*
X006815Y019144D01*
X006833Y019153D01*
X006851Y019159D01*
X006871Y019161D01*
X006891Y019159D01*
X006909Y019153D01*
X006927Y019144D01*
X006942Y019132D01*
X006954Y019117D01*
X006963Y019099D01*
X006969Y019081D01*
X006971Y019061D01*
X006969Y019041D01*
X006963Y019023D01*
X006954Y019005D01*
X006942Y018990D01*
X006927Y018978D01*
X006909Y018969D01*
X006891Y018963D01*
X006871Y018961D01*
X006851Y018963D01*
X006833Y018969D01*
X006815Y018978D01*
X006800Y018990D01*
X006788Y019005D01*
X006779Y019023D01*
X006773Y019041D01*
X006771Y019061D01*
X013771Y019061D02*
X013773Y019081D01*
X013779Y019099D01*
X013788Y019117D01*
X013800Y019132D01*
X013815Y019144D01*
X013833Y019153D01*
X013851Y019159D01*
X013871Y019161D01*
X013891Y019159D01*
X013909Y019153D01*
X013927Y019144D01*
X013942Y019132D01*
X013954Y019117D01*
X013963Y019099D01*
X013969Y019081D01*
X013971Y019061D01*
X013969Y019041D01*
X013963Y019023D01*
X013954Y019005D01*
X013942Y018990D01*
X013927Y018978D01*
X013909Y018969D01*
X013891Y018963D01*
X013871Y018961D01*
X013851Y018963D01*
X013833Y018969D01*
X013815Y018978D01*
X013800Y018990D01*
X013788Y019005D01*
X013779Y019023D01*
X013773Y019041D01*
X013771Y019061D01*
X020771Y019061D02*
X020773Y019081D01*
X020779Y019099D01*
X020788Y019117D01*
X020800Y019132D01*
X020815Y019144D01*
X020833Y019153D01*
X020851Y019159D01*
X020871Y019161D01*
X020891Y019159D01*
X020909Y019153D01*
X020927Y019144D01*
X020942Y019132D01*
X020954Y019117D01*
X020963Y019099D01*
X020969Y019081D01*
X020971Y019061D01*
X020969Y019041D01*
X020963Y019023D01*
X020954Y019005D01*
X020942Y018990D01*
X020927Y018978D01*
X020909Y018969D01*
X020891Y018963D01*
X020871Y018961D01*
X020851Y018963D01*
X020833Y018969D01*
X020815Y018978D01*
X020800Y018990D01*
X020788Y019005D01*
X020779Y019023D01*
X020773Y019041D01*
X020771Y019061D01*
X027771Y019061D02*
X027773Y019081D01*
X027779Y019099D01*
X027788Y019117D01*
X027800Y019132D01*
X027815Y019144D01*
X027833Y019153D01*
X027851Y019159D01*
X027871Y019161D01*
X027891Y019159D01*
X027909Y019153D01*
X027927Y019144D01*
X027942Y019132D01*
X027954Y019117D01*
X027963Y019099D01*
X027969Y019081D01*
X027971Y019061D01*
X027969Y019041D01*
X027963Y019023D01*
X027954Y019005D01*
X027942Y018990D01*
X027927Y018978D01*
X027909Y018969D01*
X027891Y018963D01*
X027871Y018961D01*
X027851Y018963D01*
X027833Y018969D01*
X027815Y018978D01*
X027800Y018990D01*
X027788Y019005D01*
X027779Y019023D01*
X027773Y019041D01*
X027771Y019061D01*
X023671Y012924D02*
X023673Y012938D01*
X023679Y012952D01*
X023687Y012964D01*
X023699Y012972D01*
X023713Y012978D01*
X023727Y012980D01*
X023741Y012978D01*
X023755Y012972D01*
X023767Y012964D01*
X023775Y012952D01*
X023781Y012938D01*
X023783Y012924D01*
X023781Y012910D01*
X023775Y012896D01*
X023767Y012884D01*
X023755Y012876D01*
X023741Y012870D01*
X023727Y012868D01*
X023713Y012870D01*
X023699Y012876D01*
X023687Y012884D01*
X023679Y012896D01*
X023673Y012910D01*
X023671Y012924D01*
X021419Y010278D02*
X021421Y010292D01*
X021427Y010306D01*
X021435Y010318D01*
X021447Y010326D01*
X021461Y010332D01*
X021475Y010334D01*
X021489Y010332D01*
X021503Y010326D01*
X021515Y010318D01*
X021523Y010306D01*
X021529Y010292D01*
X021531Y010278D01*
X021529Y010264D01*
X021523Y010250D01*
X021515Y010238D01*
X021503Y010230D01*
X021489Y010224D01*
X021475Y010222D01*
X021461Y010224D01*
X021447Y010230D01*
X021435Y010238D01*
X021427Y010250D01*
X021421Y010264D01*
X021419Y010278D01*
X016671Y012924D02*
X016673Y012938D01*
X016679Y012952D01*
X016687Y012964D01*
X016699Y012972D01*
X016713Y012978D01*
X016727Y012980D01*
X016741Y012978D01*
X016755Y012972D01*
X016767Y012964D01*
X016775Y012952D01*
X016781Y012938D01*
X016783Y012924D01*
X016781Y012910D01*
X016775Y012896D01*
X016767Y012884D01*
X016755Y012876D01*
X016741Y012870D01*
X016727Y012868D01*
X016713Y012870D01*
X016699Y012876D01*
X016687Y012884D01*
X016679Y012896D01*
X016673Y012910D01*
X016671Y012924D01*
X014419Y010278D02*
X014421Y010292D01*
X014427Y010306D01*
X014435Y010318D01*
X014447Y010326D01*
X014461Y010332D01*
X014475Y010334D01*
X014489Y010332D01*
X014503Y010326D01*
X014515Y010318D01*
X014523Y010306D01*
X014529Y010292D01*
X014531Y010278D01*
X014529Y010264D01*
X014523Y010250D01*
X014515Y010238D01*
X014503Y010230D01*
X014489Y010224D01*
X014475Y010222D01*
X014461Y010224D01*
X014447Y010230D01*
X014435Y010238D01*
X014427Y010250D01*
X014421Y010264D01*
X014419Y010278D01*
X009671Y012924D02*
X009673Y012938D01*
X009679Y012952D01*
X009687Y012964D01*
X009699Y012972D01*
X009713Y012978D01*
X009727Y012980D01*
X009741Y012978D01*
X009755Y012972D01*
X009767Y012964D01*
X009775Y012952D01*
X009781Y012938D01*
X009783Y012924D01*
X009781Y012910D01*
X009775Y012896D01*
X009767Y012884D01*
X009755Y012876D01*
X009741Y012870D01*
X009727Y012868D01*
X009713Y012870D01*
X009699Y012876D01*
X009687Y012884D01*
X009679Y012896D01*
X009673Y012910D01*
X009671Y012924D01*
X007419Y010278D02*
X007421Y010292D01*
X007427Y010306D01*
X007435Y010318D01*
X007447Y010326D01*
X007461Y010332D01*
X007475Y010334D01*
X007489Y010332D01*
X007503Y010326D01*
X007515Y010318D01*
X007523Y010306D01*
X007529Y010292D01*
X007531Y010278D01*
X007529Y010264D01*
X007523Y010250D01*
X007515Y010238D01*
X007503Y010230D01*
X007489Y010224D01*
X007475Y010222D01*
X007461Y010224D01*
X007447Y010230D01*
X007435Y010238D01*
X007427Y010250D01*
X007421Y010264D01*
X007419Y010278D01*
X002671Y012924D02*
X002673Y012938D01*
X002679Y012952D01*
X002687Y012964D01*
X002699Y012972D01*
X002713Y012978D01*
X002727Y012980D01*
X002741Y012978D01*
X002755Y012972D01*
X002767Y012964D01*
X002775Y012952D01*
X002781Y012938D01*
X002783Y012924D01*
X002781Y012910D01*
X002775Y012896D01*
X002767Y012884D01*
X002755Y012876D01*
X002741Y012870D01*
X002727Y012868D01*
X002713Y012870D01*
X002699Y012876D01*
X002687Y012884D01*
X002679Y012896D01*
X002673Y012910D01*
X002671Y012924D01*
X003101Y005151D02*
X003151Y004001D01*
X003251Y003901D01*
X006951Y003901D01*
X007051Y004001D01*
X007101Y005151D01*
X010101Y005151D02*
X010151Y004001D01*
X010251Y003901D01*
X013951Y003901D01*
X014051Y004001D01*
X014101Y005151D01*
X017101Y005151D02*
X017151Y004001D01*
X017251Y003901D01*
X020951Y003901D01*
X021051Y004001D01*
X021101Y005151D01*
X024101Y005151D02*
X024151Y004001D01*
X024251Y003901D01*
X027951Y003901D01*
X028051Y004001D01*
X028101Y005151D01*
X024231Y004141D02*
X024233Y004161D01*
X024239Y004179D01*
X024248Y004197D01*
X024260Y004212D01*
X024275Y004224D01*
X024293Y004233D01*
X024311Y004239D01*
X024331Y004241D01*
X024351Y004239D01*
X024369Y004233D01*
X024387Y004224D01*
X024402Y004212D01*
X024414Y004197D01*
X024423Y004179D01*
X024429Y004161D01*
X024431Y004141D01*
X024429Y004121D01*
X024423Y004103D01*
X024414Y004085D01*
X024402Y004070D01*
X024387Y004058D01*
X024369Y004049D01*
X024351Y004043D01*
X024331Y004041D01*
X024311Y004043D01*
X024293Y004049D01*
X024275Y004058D01*
X024260Y004070D01*
X024248Y004085D01*
X024239Y004103D01*
X024233Y004121D01*
X024231Y004141D01*
X017231Y004141D02*
X017233Y004161D01*
X017239Y004179D01*
X017248Y004197D01*
X017260Y004212D01*
X017275Y004224D01*
X017293Y004233D01*
X017311Y004239D01*
X017331Y004241D01*
X017351Y004239D01*
X017369Y004233D01*
X017387Y004224D01*
X017402Y004212D01*
X017414Y004197D01*
X017423Y004179D01*
X017429Y004161D01*
X017431Y004141D01*
X017429Y004121D01*
X017423Y004103D01*
X017414Y004085D01*
X017402Y004070D01*
X017387Y004058D01*
X017369Y004049D01*
X017351Y004043D01*
X017331Y004041D01*
X017311Y004043D01*
X017293Y004049D01*
X017275Y004058D01*
X017260Y004070D01*
X017248Y004085D01*
X017239Y004103D01*
X017233Y004121D01*
X017231Y004141D01*
X010231Y004141D02*
X010233Y004161D01*
X010239Y004179D01*
X010248Y004197D01*
X010260Y004212D01*
X010275Y004224D01*
X010293Y004233D01*
X010311Y004239D01*
X010331Y004241D01*
X010351Y004239D01*
X010369Y004233D01*
X010387Y004224D01*
X010402Y004212D01*
X010414Y004197D01*
X010423Y004179D01*
X010429Y004161D01*
X010431Y004141D01*
X010429Y004121D01*
X010423Y004103D01*
X010414Y004085D01*
X010402Y004070D01*
X010387Y004058D01*
X010369Y004049D01*
X010351Y004043D01*
X010331Y004041D01*
X010311Y004043D01*
X010293Y004049D01*
X010275Y004058D01*
X010260Y004070D01*
X010248Y004085D01*
X010239Y004103D01*
X010233Y004121D01*
X010231Y004141D01*
X003231Y004141D02*
X003233Y004161D01*
X003239Y004179D01*
X003248Y004197D01*
X003260Y004212D01*
X003275Y004224D01*
X003293Y004233D01*
X003311Y004239D01*
X003331Y004241D01*
X003351Y004239D01*
X003369Y004233D01*
X003387Y004224D01*
X003402Y004212D01*
X003414Y004197D01*
X003423Y004179D01*
X003429Y004161D01*
X003431Y004141D01*
X003429Y004121D01*
X003423Y004103D01*
X003414Y004085D01*
X003402Y004070D01*
X003387Y004058D01*
X003369Y004049D01*
X003351Y004043D01*
X003331Y004041D01*
X003311Y004043D01*
X003293Y004049D01*
X003275Y004058D01*
X003260Y004070D01*
X003248Y004085D01*
X003239Y004103D01*
X003233Y004121D01*
X003231Y004141D01*
X028419Y010278D02*
X028421Y010292D01*
X028427Y010306D01*
X028435Y010318D01*
X028447Y010326D01*
X028461Y010332D01*
X028475Y010334D01*
X028489Y010332D01*
X028503Y010326D01*
X028515Y010318D01*
X028523Y010306D01*
X028529Y010292D01*
X028531Y010278D01*
X028529Y010264D01*
X028523Y010250D01*
X028515Y010238D01*
X028503Y010230D01*
X028489Y010224D01*
X028475Y010222D01*
X028461Y010224D01*
X028447Y010230D01*
X028435Y010238D01*
X028427Y010250D01*
X028421Y010264D01*
X028419Y010278D01*
D14*
X026101Y005451D03*
X019101Y005451D03*
X012101Y005451D03*
X005101Y005451D03*
X005101Y017751D03*
X012101Y017751D03*
X019101Y017751D03*
X026101Y017751D03*
D15*
X024376Y018001D03*
X027826Y018001D03*
X020826Y018001D03*
X017376Y018001D03*
X013826Y018001D03*
X010376Y018001D03*
X006826Y018001D03*
X003376Y018001D03*
X003376Y005201D03*
X006826Y005201D03*
X010376Y005201D03*
X013826Y005201D03*
X017376Y005201D03*
X020826Y005201D03*
X024376Y005201D03*
X027826Y005201D03*
D16*
X026601Y005201D03*
X025601Y005201D03*
X019601Y005201D03*
X018601Y005201D03*
X012601Y005201D03*
X011601Y005201D03*
X005601Y005201D03*
X004601Y005201D03*
X004601Y018001D03*
X005601Y018001D03*
X011601Y018001D03*
X012601Y018001D03*
X018601Y018001D03*
X019601Y018001D03*
X025601Y018001D03*
X026601Y018001D03*
M02*
